<?xml version="1.0" encoding="UTF-8" standalone="no"?>
<svg
   xmlns:dc="http://purl.org/dc/elements/1.1/"
   xmlns:cc="http://creativecommons.org/ns#"
   xmlns:rdf="http://www.w3.org/1999/02/22-rdf-syntax-ns#"
   xmlns:svg="http://www.w3.org/2000/svg"
   xmlns="http://www.w3.org/2000/svg"
   id="svg14"
   xml:space="preserve"
   viewBox="0 0 18 18"
   y="0px"
   x="0px"
   version="1.1"
   fill="#000000"
   width="18"
   height="18"><metadata
     id="metadata20"><rdf:RDF><cc:Work
         rdf:about=""><dc:format>image/svg+xml</dc:format><dc:type
           rdf:resource="http://purl.org/dc/dcmitype/StillImage" /><dc:title></dc:title></cc:Work></rdf:RDF></metadata><defs
     id="defs18" /><path
     d="M 3.7741672,1.596737 V 4.4999321 H 4.3548606 V 5.0806255 L 5.5161114,4.4999321 H 8.4193066 V 1.596737 Z M 7.2580558,5.0806255 V 7.9838206 H 10.161251 L 11.322638,8.564514 V 7.9838206 h 0.580557 V 5.0806255 Z M 3.1934738,6.532291 A 2.0322683,2.0322683 0 0 0 1.1612508,8.564514 2.0322683,2.0322683 0 0 0 3.1934738,10.596737 2.0322683,2.0322683 0 0 0 5.2258327,8.564514 2.0322683,2.0322683 0 0 0 3.1934738,6.532291 Z m 11.6130522,0 a 2.0322683,2.0322683 0 0 0 -2.032359,2.032223 2.0322683,2.0322683 0 0 0 2.032359,2.032223 2.0322683,2.0322683 0 0 0 2.032223,-2.032223 2.0322683,2.0322683 0 0 0 -2.032223,-2.032223 z M 3.1934738,11.17743 C 1.4341101,11.17743 0,12.611676 0,14.37104 v 2.032223 H 6.3870836 V 14.37104 c 0,-1.759364 -1.4342461,-3.19361 -3.1936098,-3.19361 z m 11.6130522,0 c -1.759364,0 -3.19361,1.434246 -3.19361,3.19361 v 2.032223 H 18 V 14.37104 c 0,-1.759364 -1.43411,-3.19361 -3.193474,-3.19361 z"
     style="stroke-width:0.580648"
     id="path2" /></svg>
