<?xml version="1.0" encoding="UTF-8" standalone="no"?>
<svg
   xmlns:dc="http://purl.org/dc/elements/1.1/"
   xmlns:cc="http://creativecommons.org/ns#"
   xmlns:rdf="http://www.w3.org/1999/02/22-rdf-syntax-ns#"
   xmlns:svg="http://www.w3.org/2000/svg"
   xmlns="http://www.w3.org/2000/svg"
   id="svg8"
   xml:space="preserve"
   enable-background="new 0 0 100 100"
   viewBox="0 0 18 18"
   y="0px"
   x="0px"
   version="1.1"
   fill="#000000"
   width="18"
   height="18"><metadata
     id="metadata14"><rdf:RDF><cc:Work
         rdf:about=""><dc:format>image/svg+xml</dc:format><dc:type
           rdf:resource="http://purl.org/dc/dcmitype/StillImage" /><dc:title></dc:title></cc:Work></rdf:RDF></metadata><defs
     id="defs12" /><g
     transform="matrix(0.19189765,0,0,0.19189765,-0.59488273,-0.58528762)"
     id="g6"><g
       id="g4"><path
         id="path2"
         d="m 3.1,11 h 93.8 v 24.7 c 0,8.6 -6.9,15.5 -15.5,15.5 V 26.4 H 18.6 V 51.3 C 10,51.3 3.1,44.4 3.1,35.8 Z m 42.6,59.5 c 0,2.4 1.9,4.3 4.3,4.3 2.4,0 4.3,-1.9 4.3,-4.3 0,-2.4 -1.9,-4.3 -4.3,-4.3 -2.3,0 -4.3,1.9 -4.3,4.3 z m 23.7,4 c -0.4,-0.1 -0.9,-0.1 -1.3,-0.1 -4,0 -7.2,3.2 -7.2,7.2 0,0.4 0,0.9 0.1,1.3 H 39 c 0.1,-0.4 0.1,-0.8 0.1,-1.3 0,-4 -3.2,-7.2 -7.2,-7.2 -0.5,0 -0.9,0 -1.3,0.1 V 32.1 h -6.1 v 49.7 c 0,3.9 3.2,7.1 7.1,7.1 h 36.8 c 3.9,0 7.1,-3.2 7.1,-7.1 V 32.1 H 69.4 Z M 50.1,63.4 c -8.6,0 -15.6,-7 -15.6,-15.6 0,-8.6 7,-15.6 15.6,-15.6 8.6,0 15.6,7 15.6,15.6 0,8.6 -7,15.6 -15.6,15.6 z m 9,-15.7 c 0,-5 -4.1,-9.1 -9.1,-9.1 -5,0 -9.1,4.1 -9.1,9.1 0,5 4.1,9.1 9.1,9.1 5.1,0 9.1,-4.1 9.1,-9.1 z" /></g></g></svg>
