<?xml version="1.0" encoding="UTF-8" standalone="no"?>
<svg
   xmlns:dc="http://purl.org/dc/elements/1.1/"
   xmlns:cc="http://creativecommons.org/ns#"
   xmlns:rdf="http://www.w3.org/1999/02/22-rdf-syntax-ns#"
   xmlns:svg="http://www.w3.org/2000/svg"
   xmlns="http://www.w3.org/2000/svg"
   height="18"
   width="18"
   fill="#000000"
   version="1.1"
   x="0px"
   y="0px"
   viewBox="0 0 18 18"
   xml:space="preserve"
   id="svg4"><path
     d="M 17.740107,14.166092 10.664986,1.9116278 C 10.295046,1.270876 9.6476563,0.9505 9.0002549,0.9505 8.3528535,0.9505 7.7054642,1.270876 7.3355241,1.9116278 L 0.26040262,14.166092 C -0.47947778,15.447609 0.44537273,17.0495 1.9251335,17.0495 H 16.075376 c 1.479761,0 2.404611,-1.601891 1.664731,-2.883408 z m -8.7398521,0.662593 c -0.5220718,0 -0.9453039,-0.42322 -0.9453039,-0.945304 0,-0.522071 0.4232321,-0.945303 0.9453039,-0.945303 0.5220718,0 0.9453039,0.423232 0.9453039,0.945303 0,0.522084 -0.4232321,0.945304 -0.9453039,0.945304 z M 9.9455588,7.4513039 c 0,0.00634 -2.955e-4,0.012673 -9.062e-4,0.018974 L 9.5151001,11.910029 c -0.00978,0.100981 -0.094644,0.178032 -0.1960925,0.178032 h -0.631397 c -0.1013529,0 -0.1861725,-0.07689 -0.1960687,-0.177767 L 8.055889,7.4704106 c -6.304e-4,-0.0064 -9.456e-4,-0.012817 -9.456e-4,-0.01924 V 5.5183579 c 0,-0.1088083 0.088198,-0.1970065 0.1970063,-0.1970065 h 1.496595 c 0.108808,0 0.1970064,0.088198 0.1970064,0.1970065 v 1.9329452 z"
     id="path2"
     style="stroke-width:0.197007" /></svg>
