<?xml version="1.0" encoding="UTF-8" standalone="no"?>
<svg
   xmlns:dc="http://purl.org/dc/elements/1.1/"
   xmlns:cc="http://creativecommons.org/ns#"
   xmlns:rdf="http://www.w3.org/1999/02/22-rdf-syntax-ns#"
   xmlns:svg="http://www.w3.org/2000/svg"
   xmlns="http://www.w3.org/2000/svg"
   version="1.1"
   width="18"
   height="18"
   viewBox="0 0 18 18"
   id="svg2">
  <metadata
     id="metadata8">
    <rdf:RDF>
      <cc:Work
         rdf:about="">
        <dc:format>image/svg+xml</dc:format>
        <dc:type
           rdf:resource="http://purl.org/dc/dcmitype/StillImage" />
        <dc:title></dc:title>
      </cc:Work>
    </rdf:RDF>
  </metadata>
  <defs
     id="defs6" />
  <path
     style="stroke-width:1.28571"
     d="M 1.2857143,0.642857 C 0.57342857,0.642857 0,1.2162856 0,1.9285713 V 16.071428 c 0,0.712286 0.57342857,1.285715 1.2857143,1.285715 H 16.714286 C 17.426571,17.357143 18,16.783714 18,16.071428 V 1.9285713 C 18,1.2162856 17.426571,0.642857 16.714286,0.642857 Z M 1.6071429,1.9285713 H 2.25 c 0.1780714,0 0.3214286,0.1433571 0.3214286,0.3214286 V 2.892857 c 0,0.1780714 -0.1433572,0.3214286 -0.3214286,0.3214286 H 1.6071429 c -0.1780715,0 -0.3214286,-0.1433572 -0.3214286,-0.3214286 V 2.2499999 c 0,-0.1780715 0.1433571,-0.3214286 0.3214286,-0.3214286 z m 3.5357142,0 H 12.857143 V 8.3571427 H 5.1428571 Z m 10.6071429,0 h 0.642857 c 0.178072,0 0.321429,0.1433571 0.321429,0.3214286 V 2.892857 c 0,0.1780714 -0.143357,0.3214286 -0.321429,0.3214286 H 15.75 c -0.178071,0 -0.321429,-0.1433572 -0.321429,-0.3214286 V 2.2499999 c 0,-0.1780715 0.143358,-0.3214286 0.321429,-0.3214286 z M 1.6071429,4.4999999 H 2.25 c 0.1780714,0 0.3214286,0.1433571 0.3214286,0.3214285 V 5.4642856 C 2.5714286,5.642357 2.4280714,5.7857141 2.25,5.7857141 H 1.6071429 c -0.1780715,0 -0.3214286,-0.1433571 -0.3214286,-0.3214285 V 4.8214284 c 0,-0.1780714 0.1433571,-0.3214285 0.3214286,-0.3214285 z m 14.1428571,0 h 0.642857 c 0.178072,0 0.321429,0.1433571 0.321429,0.3214285 v 0.6428572 c 0,0.1780714 -0.143357,0.3214285 -0.321429,0.3214285 H 15.75 c -0.178071,0 -0.321429,-0.1433571 -0.321429,-0.3214285 V 4.8214284 c 0,-0.1780714 0.143358,-0.3214285 0.321429,-0.3214285 z M 1.6071429,7.0714284 H 2.25 c 0.1780714,0 0.3214286,0.1433572 0.3214286,0.3214286 v 0.6428571 c 0,0.1780715 -0.1433572,0.3214286 -0.3214286,0.3214286 H 1.6071429 c -0.1780715,0 -0.3214286,-0.1433571 -0.3214286,-0.3214286 V 7.392857 c 0,-0.1780714 0.1433571,-0.3214286 0.3214286,-0.3214286 z m 14.1428571,0 h 0.642857 c 0.178072,0 0.321429,0.1433572 0.321429,0.3214286 v 0.6428571 c 0,0.1780715 -0.143357,0.3214286 -0.321429,0.3214286 H 15.75 c -0.178071,0 -0.321429,-0.1433571 -0.321429,-0.3214286 V 7.392857 c 0,-0.1780714 0.143358,-0.3214286 0.321429,-0.3214286 z M 1.6071429,9.642857 H 2.25 c 0.1780714,0 0.3214286,0.143357 0.3214286,0.321429 v 0.642857 c 0,0.178071 -0.1433572,0.321428 -0.3214286,0.321428 H 1.6071429 c -0.1780715,0 -0.3214286,-0.143357 -0.3214286,-0.321428 V 9.964286 c 0,-0.178072 0.1433571,-0.321429 0.3214286,-0.321429 z m 3.5357142,0 h 7.7142859 v 6.428571 H 5.1428571 Z m 10.6071429,0 h 0.642857 c 0.178072,0 0.321429,0.143357 0.321429,0.321429 v 0.642857 c 0,0.178071 -0.143357,0.321428 -0.321429,0.321428 H 15.75 c -0.178071,0 -0.321429,-0.143357 -0.321429,-0.321428 V 9.964286 c 0,-0.178072 0.143358,-0.321429 0.321429,-0.321429 z M 1.6071429,12.214286 H 2.25 c 0.1780714,0 0.3214286,0.143357 0.3214286,0.321428 v 0.642857 C 2.5714286,13.356643 2.4280714,13.5 2.25,13.5 H 1.6071429 c -0.1780715,0 -0.3214286,-0.143357 -0.3214286,-0.321429 v -0.642857 c 0,-0.178071 0.1433571,-0.321428 0.3214286,-0.321428 z m 14.1428571,0 h 0.642857 c 0.178072,0 0.321429,0.143357 0.321429,0.321428 v 0.642857 c 0,0.178072 -0.143357,0.321429 -0.321429,0.321429 H 15.75 c -0.178071,0 -0.321429,-0.143357 -0.321429,-0.321429 v -0.642857 c 0,-0.178071 0.143358,-0.321428 0.321429,-0.321428 z M 1.6071429,14.785714 H 2.25 c 0.1780714,0 0.3214286,0.143357 0.3214286,0.321429 V 15.75 c 0,0.178071 -0.1433572,0.321428 -0.3214286,0.321428 H 1.6071429 c -0.1780715,0 -0.3214286,-0.143357 -0.3214286,-0.321428 v -0.642857 c 0,-0.178072 0.1433571,-0.321429 0.3214286,-0.321429 z m 14.1428571,0 h 0.642857 c 0.178072,0 0.321429,0.143357 0.321429,0.321429 V 15.75 c 0,0.178071 -0.143357,0.321428 -0.321429,0.321428 H 15.75 c -0.178071,0 -0.321429,-0.143357 -0.321429,-0.321428 v -0.642857 c 0,-0.178072 0.143358,-0.321429 0.321429,-0.321429 z"
     id="path4" />
</svg>
