<?xml version="1.0" encoding="UTF-8" standalone="no"?>
<svg
   xmlns:dc="http://purl.org/dc/elements/1.1/"
   xmlns:cc="http://creativecommons.org/ns#"
   xmlns:rdf="http://www.w3.org/1999/02/22-rdf-syntax-ns#"
   xmlns:svg="http://www.w3.org/2000/svg"
   xmlns="http://www.w3.org/2000/svg"
   id="svg28"
   xml:space="preserve"
   enable-background="new 0 0 550 550"
   viewBox="0 0 18 18"
   y="0px"
   x="0px"
   version="1.1"
   fill="#000000"
   width="18"
   height="18"><metadata
     id="metadata34"><rdf:RDF><cc:Work
         rdf:about=""><dc:format>image/svg+xml</dc:format><dc:type
           rdf:resource="http://purl.org/dc/dcmitype/StillImage" /><dc:title></dc:title></cc:Work></rdf:RDF></metadata><defs
     id="defs32" /><path
     style="stroke-width:0.0351562"
     d="m 1.5290225,0 v 11.332741 c 0,2.497324 4.5466499,6.026396 7.4605405,6.667259 2.913997,-0.640863 7.481414,-4.169935 7.481414,-6.667259 V 0 Z M 2.8650286,0.98444366 H 15.135041 c 0.194133,0 0.351562,0.15739454 0.351562,0.35156254 v 9.8911968 h -7e-5 c 0,0.397055 -0.202624,0.911466 -0.570534,1.448548 -0.412453,0.602121 -1.00206,1.234662 -1.705009,1.829155 -1.29818,1.098035 -2.868516,1.998217 -4.0981759,2.349357 -0.0315,0.009 -0.063989,0.01353 -0.096474,0.01353 -0.03252,0 -0.065076,-0.0045 -0.096611,-0.01353 C 7.6771672,16.499115 6.1050423,15.599328 4.8170228,14.506004 3.4176634,13.318391 2.5134644,12.031403 2.5134644,11.227203 V 1.3360062 c 0,-0.194168 0.1574297,-0.35156254 0.3515625,-0.35156254 z M 3.2165911,1.6875687 v 9.5396343 c 0,0.401309 0.547411,1.46284 2.0554734,2.742668 1.1829375,1.004098 2.6069379,1.831817 3.7442777,2.179688 1.1255628,-0.344496 2.5480358,-1.172838 3.7405708,-2.181541 0.655523,-0.55445 1.201573,-1.138696 1.578941,-1.689629 0.329942,-0.481606 0.447556,-0.858776 0.447556,-1.051186 V 1.6875687 Z m 5.8014678,1.9937438 c 0.5030859,0 0.9982381,0.07925 1.4716871,0.2355195 0.07945,0.026156 0.158474,0.05464 0.234833,0.084663 0.747633,0.2914101 1.413591,0.7755964 1.925079,1.3997956 2.11e-4,3.164e-4 4.39e-4,6.118e-4 6.86e-4,8.93e-4 0.025,0.03041 0.05036,0.061966 0.07553,0.094345 l 7e-5,7.03e-5 c 0.02528,0.032484 0.0505,0.065847 0.07539,0.099632 0.0017,0.00225 0.0033,0.00451 0.0049,0.0068 0.07404,0.1010742 0.143766,0.2044129 0.209016,0.3099519 0.456854,0.7387735 0.696602,1.5825287 0.696602,2.4621733 0,0.00816 -7.1e-5,0.016322 -2.11e-4,0.024513 -4.93e-4,0.082055 -0.003,0.1638242 -0.0075,0.2447891 -0.04546,0.8053945 -0.299971,1.5891838 -0.736084,2.2668908 0,0 -7e-5,7.1e-5 -7e-5,7.1e-5 0,3.5e-5 3.5e-5,1.05e-4 0,1.4e-4 -0.01164,0.01803 -0.02359,0.03556 -0.03536,0.05335 -0.03431,0.05175 -0.06905,0.102651 -0.104027,0.151131 -0.386896,0.537293 -0.888112,0.987384 -1.457749,1.318977 -0.129797,0.07559 -0.26281,0.145746 -0.399216,0.208535 -0.169629,0.07805 -0.343921,0.14595 -0.521988,0.202904 -0.07907,0.02538 -0.160453,0.04898 -0.241699,0.07004 -1.05e-4,3.5e-5 -2.11e-4,3.4e-5 -3.51e-4,7.1e-5 -0.3857699,0.101039 -0.7862661,0.152366 -1.1896137,0.152366 -0.4030664,0 -0.8033484,-0.05126 -1.1897508,-0.152366 -7.03e-5,-3.6e-5 -2.109e-4,-7.1e-5 -2.812e-4,-7.1e-5 l -4.114e-4,-7e-5 c -1.054e-4,0 -2.461e-4,-3.4e-5 -3.515e-4,-7e-5 -0.040184,-0.01041 -0.080527,-0.02156 -0.1207807,-0.03323 -7.03e-5,0 -1.407e-4,0 -2.11e-4,0 -0.00805,-0.0023 -0.015913,-0.005 -0.023964,-0.0073 -0.032309,-0.0096 -0.064555,-0.01919 -0.096337,-0.02939 C 6.8150182,12.599764 6.1127446,12.147834 5.5626196,11.551303 5.4357056,11.413631 5.3168659,11.268267 5.2071432,11.11597 5.1586979,11.048857 5.1116694,10.979772 5.0675483,10.911006 4.6319273,10.233721 4.3774758,9.4499515 4.3318078,8.6447327 c -0.00387,-0.070277 -0.00599,-0.1399109 -0.00687,-0.2084656 -1.758e-4,-0.012445 -6.163e-4,-0.025185 -6.866e-4,-0.03756 -1.054e-4,-0.00784 -1.371e-4,-0.015643 -1.371e-4,-0.023483 1.406e-4,-0.06293 0.00139,-0.1255662 0.00378,-0.1880037 0.00267,-0.06859 0.00715,-0.1368327 0.012772,-0.2048952 0.009,-0.1092305 0.021828,-0.2177525 0.038246,-0.325401 0.014731,-0.096329 0.032819,-0.1917896 0.053421,-0.286606 0.1379883,-0.6345703 0.4065293,-1.2337552 0.7976073,-1.7673567 0.00102,-0.00148 0.00214,-0.00292 0.00316,-0.00439 6.328e-4,-8.086e-4 0.00115,-0.00166 0.00179,-0.00247 0.022254,-0.030234 0.044821,-0.05991 0.067497,-0.089195 0.027914,-0.03607 0.055955,-0.071471 0.084045,-0.1055373 C 5.8976323,4.7773399 6.5638507,4.2929529 7.3123975,4.001156 7.3881944,3.9714138 7.4671958,3.9428884 7.5465434,3.9167673 8.0199927,3.7605681 8.5151498,3.6813164 9.0180248,3.6813164 Z M 8.98613,4.384987 c -0.032555,2.813e-4 -0.06509,8.684e-4 -0.097504,0.00192 -0.018106,5.976e-4 -0.036175,0.00118 -0.054245,0.00199 -0.0405,0.00183 -0.081006,0.00415 -0.1213302,0.00721 -0.015152,0.00113 -0.030201,0.00261 -0.045319,0.00391 -0.033434,0.00292 -0.066785,0.00616 -0.100113,0.00989 -0.013184,0.00148 -0.026402,0.00285 -0.039551,0.00446 -0.043629,0.00531 -0.087113,0.011411 -0.1305313,0.018196 -0.01125,0.00176 -0.022533,0.00366 -0.033783,0.00549 -0.044578,0.00735 -0.089016,0.015173 -0.1332777,0.024033 -0.00158,3.164e-4 -0.00319,5.766e-4 -0.00481,8.93e-4 -7.031e-4,1.406e-4 -0.00136,3.516e-4 -0.00206,4.816e-4 L 9.0180586,5.0407341 9.8125075,4.4635398 c -6.328e-4,-1.055e-4 -0.00122,-3.516e-4 -0.00185,-4.816e-4 -0.00176,-3.516e-4 -0.00353,-6.082e-4 -0.00529,-9.598e-4 -0.04391,-0.00879 -0.088057,-0.016583 -0.132248,-0.023895 -0.011637,-0.0019 -0.023313,-0.00391 -0.03495,-0.0057 -0.043102,-0.00671 -0.086222,-0.012715 -0.1295698,-0.018059 -0.013605,-0.00165 -0.027113,-0.00302 -0.040718,-0.00453 -0.032836,-0.00366 -0.065694,-0.00697 -0.098671,-0.00982 -0.015398,-0.00134 -0.030881,-0.00282 -0.04628,-0.00398 -0.040254,-0.00302 -0.080559,-0.00531 -0.1209185,-0.00714 -0.018211,-8.086e-4 -0.036377,-0.00146 -0.054588,-0.00206 -0.032414,-0.00102 -0.064847,-0.00164 -0.097366,-0.00192 -0.02127,-1.406e-4 -0.042657,-1.406e-4 -0.063927,0 z M 7.393593,4.7296143 C 6.8851985,4.9565127 6.427603,5.2894557 6.0533295,5.7046507 L 6.5470277,7.2237853 7.3998417,7.6153792 8.6664964,6.6951369 V 5.6544571 Z m 3.249001,0 -1.2729726,0.9248428 V 6.6951369 L 10.636345,7.6154481 11.48909,7.2238542 11.982789,5.7047196 C 11.608164,5.2891376 11.150602,4.9562666 10.642594,4.7296143 Z m 1.850165,1.6808396 -0.303566,0.934181 0.793831,0.5767137 c -5.97e-4,-0.00506 -9.49e-4,-0.010147 -0.0015,-0.015175 -9.5e-4,-0.0083 -0.0022,-0.01656 -0.0032,-0.024857 -0.0051,-0.041766 -0.01087,-0.083383 -0.01723,-0.1248321 -0.0011,-0.00728 -0.0021,-0.014593 -0.0033,-0.021835 -0.0073,-0.045527 -0.01552,-0.090849 -0.02437,-0.1360245 -0.0019,-0.00981 -0.0039,-0.019546 -0.0059,-0.02932 -0.009,-0.044016 -0.01857,-0.087897 -0.02904,-0.1315614 -5.27e-4,-0.00218 -9.49e-4,-0.00441 -0.0015,-0.00659 -0.01093,-0.045211 -0.02285,-0.090103 -0.03536,-0.1348572 -0.0028,-0.00995 -0.0056,-0.019886 -0.0084,-0.0298 -0.01276,-0.044297 -0.02617,-0.088443 -0.04044,-0.132248 -0.0015,-0.00471 -0.0032,-0.00937 -0.0047,-0.014076 -0.01343,-0.040535 -0.0276,-0.08084 -0.04237,-0.1209185 -0.0033,-0.00893 -0.0065,-0.017884 -0.0098,-0.026779 -0.01607,-0.042785 -0.03286,-0.085356 -0.0504,-0.1275785 -0.0033,-0.0078 -0.0067,-0.015541 -0.01,-0.023346 -0.01631,-0.038496 -0.03317,-0.07677 -0.05074,-0.1147388 -0.0029,-0.0064 -0.0058,-0.012827 -0.0087,-0.019226 -0.01951,-0.04166 -0.03988,-0.082946 -0.06084,-0.124008 -0.0045,-0.00889 -0.0092,-0.017783 -0.0138,-0.026642 -0.0212,-0.040641 -0.0429,-0.081014 -0.06551,-0.1209867 -6.68e-4,-0.00116 -0.0013,-0.00238 -0.0019,-0.00357 -3.87e-4,-6.68e-4 -7.81e-4,-0.00126 -0.0012,-0.00192 z m -6.9494011,7.03e-5 c -3.867e-4,6.328e-4 -7.137e-4,0.00122 -0.0011,0.00185 -6.68e-4,0.0012 -0.00129,0.00248 -0.00199,0.00371 -0.022606,0.039902 -0.04424,0.080211 -0.065369,0.120781 -0.00464,0.00893 -0.00937,0.017883 -0.013939,0.026848 -0.020953,0.040957 -0.041223,0.082213 -0.060699,0.1238024 -0.00309,0.00657 -0.00604,0.013166 -0.00906,0.019775 -0.017437,0.037758 -0.034193,0.075733 -0.0504,0.1139829 -0.00338,0.00795 -0.00682,0.015846 -0.010163,0.023827 -0.017508,0.042152 -0.0343,0.084589 -0.050331,0.1273039 -0.00341,0.00896 -0.00658,0.018054 -0.00989,0.027054 -0.014695,0.040043 -0.028832,0.080246 -0.042297,0.1207811 -0.00151,0.00471 -0.00323,0.00943 -0.00474,0.014145 -0.014344,0.04384 -0.027682,0.087916 -0.040443,0.132248 -0.00281,0.00984 -0.00563,0.019751 -0.00838,0.029594 -0.012516,0.044824 -0.024531,0.089816 -0.0355,0.1351319 -4.922e-4,0.002 -8.824e-4,0.00404 -0.00137,0.00604 -0.010512,0.043875 -0.020114,0.087986 -0.029114,0.1322479 -0.002,0.0096 -0.00401,0.019242 -0.00591,0.028839 -0.00889,0.045316 -0.017132,0.090769 -0.024444,0.1364361 -0.00113,0.00703 -0.00207,0.014049 -0.00316,0.02108 -0.00647,0.041766 -0.012239,0.083678 -0.017372,0.1257251 -0.00102,0.00809 -0.00218,0.016152 -0.00309,0.024238 -5.976e-4,0.0051 -9.14e-4,0.010283 -0.00151,0.015381 L 5.8469261,7.3447731 Z M 9.0180589,7.3088624 7.853371,8.1550846 8.2981798,9.5242556 H 9.7378694 L 10.182747,8.1550846 Z M 6.3003848,7.88434 5.0495912,8.7929096 C 5.1076693,9.347921 5.2824855,9.8864357 5.5614855,10.369447 H 7.1525804 L 7.6472397,9.7960985 7.153267,8.2759342 Z m 5.4352792,0 -0.852813,0.3915942 -0.493973,1.5202329 0.494659,0.5733489 h 1.591164 c 0.27907,-0.4828708 0.453852,-1.0213503 0.511825,-1.5765378 z m -3.5318291,2.343041 -0.4946597,0.573417 0.4803086,1.478142 c 0.5435156,0.114363 1.1145839,0.114223 1.6571503,0 L 10.326943,10.800798 9.8323518,10.227381 Z m -2.1258545,0.84526 c 3.867e-4,3.87e-4 7.453e-4,8.12e-4 0.0011,0.0012 0.00169,0.0018 0.00346,0.0037 0.00515,0.0055 0.030621,0.03312 0.061983,0.06561 0.093658,0.09764 0.00731,0.0074 0.014557,0.0148 0.021904,0.02211 0.03259,0.03241 0.065644,0.06426 0.099289,0.09551 0.00626,0.0058 0.012625,0.0115 0.018883,0.0173 0.030691,0.02812 0.061781,0.05577 0.093246,0.08295 0.00615,0.0053 0.012215,0.01073 0.018402,0.016 0.034875,0.02974 0.070398,0.05879 0.1062928,0.08734 0.0083,0.0066 0.016662,0.0131 0.024994,0.01964 0.036316,0.02841 0.07301,0.05639 0.1102753,0.08357 9.141e-4,6.68e-4 0.00176,0.0014 0.00268,0.0021 0.037934,0.0276 0.076509,0.05428 0.1153564,0.08054 0.00875,0.0059 0.01751,0.01181 0.026299,0.01765 0.03832,0.02549 0.077015,0.05042 0.1162491,0.07457 0.00626,0.0039 0.012623,0.0076 0.018951,0.01147 0.035965,0.0219 0.072338,0.04318 0.1089707,0.06393 0.00731,0.0041 0.014556,0.0084 0.021904,0.01243 0.040254,0.0225 0.080956,0.04417 0.1219482,0.06523 0.00868,0.0045 0.017442,0.0089 0.026161,0.01325 0.040359,0.02036 0.081057,0.0402 0.1221543,0.05919 0.00225,10e-4 0.00448,0.0021 0.00666,0.0032 9.492e-4,4.57e-4 0.002,8.82e-4 0.00295,0.0013 l -0.3033606,-0.93362 z m 4.8999026,0 -0.303292,0.933564 c 8.09e-4,-3.87e-4 0.0017,-7.49e-4 0.0025,-0.0011 0.003,-0.0014 0.0058,-0.0028 0.0088,-0.0042 0.04025,-0.0186 0.08006,-0.03802 0.119683,-0.05795 0.0092,-0.0046 0.01843,-0.0093 0.0276,-0.01401 0.04064,-0.02088 0.08095,-0.04236 0.120849,-0.06461 0.0078,-0.0044 0.01554,-0.0089 0.02335,-0.01332 0.036,-0.02039 0.07168,-0.04131 0.107048,-0.06283 0.0067,-0.0041 0.01358,-0.0081 0.02032,-0.01222 0.03892,-0.02401 0.07738,-0.04874 0.115494,-0.07402 0.0091,-0.006 0.01812,-0.01212 0.02712,-0.0182 0.03867,-0.02612 0.07698,-0.05271 0.114738,-0.08013 0.0012,-8.44e-4 0.0023,-0.0017 0.0035,-0.0026 0.03702,-0.027 0.07345,-0.05479 0.10952,-0.08302 0.0084,-0.0066 0.01683,-0.01313 0.0252,-0.01978 0.03589,-0.02855 0.07142,-0.05763 0.106361,-0.08741 0.006,-0.0052 0.01201,-0.01045 0.01806,-0.01566 0.03164,-0.02732 0.0629,-0.05513 0.09373,-0.08343 0.0062,-0.0057 0.01242,-0.01126 0.01854,-0.01696 0.03375,-0.03136 0.06687,-0.06337 0.09956,-0.09592 0.0071,-0.0071 0.01419,-0.01432 0.02129,-0.02149 0.0321,-0.03245 0.06382,-0.06534 0.09483,-0.09888 0.0013,-0.0015 0.0028,-0.0029 0.0041,-0.0043 4.58e-4,-4.92e-4 8.83e-4,-0.001 0.0014,-0.0015 z"
     id="path2" /></svg>
