<?xml version="1.0" encoding="UTF-8" standalone="no"?>
<svg
   xmlns:dc="http://purl.org/dc/elements/1.1/"
   xmlns:cc="http://creativecommons.org/ns#"
   xmlns:rdf="http://www.w3.org/1999/02/22-rdf-syntax-ns#"
   xmlns:svg="http://www.w3.org/2000/svg"
   xmlns="http://www.w3.org/2000/svg"
   id="svg12"
   version="1.1"
   y="0px"
   x="0px"
   viewBox="0 0 18 18"
   data-name="Layer 1"
   fill="#000000"
   width="18"
   height="18">
  <metadata
     id="metadata18">
    <rdf:RDF>
      <cc:Work
         rdf:about="">
        <dc:format>image/svg+xml</dc:format>
        <dc:type
           rdf:resource="http://purl.org/dc/dcmitype/StillImage" />
        <dc:title>All3</dc:title>
      </cc:Work>
    </rdf:RDF>
  </metadata>
  <defs
     id="defs16" />
  <title
     id="title2">All3</title>
  <path
     style="stroke-width:0.179195"
     d="M 3.2118607,0.83465323 A 3.0964899,3.0964899 0 0 0 2.2077387,0.99529877 C 2.1539797,1.0114264 2.1020137,1.0400836 2.0285437,1.0705467 L 2.2612872,1.274941 c 0.531612,0.4706856 1.0627385,0.9420805 1.5931558,1.4139608 a 0.18994672,0.18994672 0 0 1 0.062648,0.1200467 c 0.00956,0.3858665 0.01435,0.7715512 0.01435,1.1574179 A 0.21145012,0.21145012 0 0 1 3.8831423,4.0937628 C 3.7039473,4.2944612 3.5373099,4.4952157 3.3599068,4.6887463 A 0.26700058,0.26700058 0 0 1 3.212911,4.770994 C 2.8545209,4.8193766 2.4960329,4.8587576 2.1268911,4.9071403 A 0.23653743,0.23653743 0 0 1 1.9228466,4.839242 L 0.4605872,3.5327284 C 0.35127824,3.441339 0.23825937,3.3411716 0.10744701,3.2264868 L 0,3.9271675 0.03394906,4.480852 C 0.04649271,4.507731 0.04652072,4.532721 0.06264826,4.5596 a 7.1355457,7.1355457 0 0 0 0.24359323,0.7794284 3.0015166,3.0015166 0 0 0 1.79195031,1.6684037 2.9818051,2.9818051 0 0 0 2.0698424,0.01785 0.21503402,0.21503402 0 0 1 0.1648455,0 C 4.5604574,7.1686375 4.789911,7.3102016 5.0013611,7.473269 5.3830465,7.7671489 5.7680779,8.0592367 6.1461792,8.3692441 L 7.6371378,6.681241 C 7.1879556,6.2523677 6.7596935,5.8006982 6.3523235,5.3264286 6.2143433,5.1669451 6.1248159,5.027383 6.2448766,4.8248926 a 0.20607427,0.20607427 0 0 0 0.0161,-0.057398 A 3.1753358,3.1753358 0 0 0 4.8704647,1.3288395 3.0964899,3.0964899 0 0 0 3.2118607,0.83465323 Z M 10.691853,1.0684467 a 2.6574621,2.6574621 0 0 0 -0.461637,0.043399 C 9.5654022,1.239074 8.9525413,1.4700816 8.4687147,1.9395726 c -0.08243,0.08243 -0.1487039,0.179433 -0.2400934,0.288742 h 0.2687926 a 2.7524355,2.7524355 0 0 1 2.7292241,1.6127552 0.29387983,0.29387983 0 0 1 -0.01435,0.3457903 c -0.08601,0.1146849 -0.154206,0.2437192 -0.234843,0.3727397 l 1.686253,1.404861 c 0.523249,-0.4999541 0.706056,-0.5716322 1.014272,-0.3583901 0.308215,0.2132421 0.342374,0.4765608 0.114796,0.9299242 0.419317,0.3350946 0.827559,0.6684954 1.237916,0.9964223 0.320759,0.252665 0.510776,0.2328415 0.788528,-0.069998 L 17.073575,6.1023569 C 17.1793,5.9840882 17.290443,5.8711953 17.385417,5.7439668 A 0.45515535,0.45515535 0 0 0 17.331868,5.0810854 C 16.885673,4.6868564 16.426835,4.305045 15.977056,3.9215676 15.45739,4.2512865 15.068467,4.0952888 14.919735,3.5075291 A 1.5625806,1.5625806 0 0 0 14.824888,3.1939378 1.6020035,1.6020035 0 0 0 14.559595,2.7658997 6.4671483,6.4671483 0 0 0 13.921563,2.2283146 1.0948816,1.0948816 0 0 0 13.127785,1.9630219 0.75261908,0.75261908 0 0 1 12.769395,1.8751744 3.383202,3.383202 0 0 1 12.294458,1.5937821 2.6574621,2.6574621 0 0 0 10.691853,1.0684467 Z M 10.513358,4.984138 a 0.58775967,0.58775967 0 0 0 -0.05565,0.041299 C 7.5690857,8.2222761 4.6816846,11.420492 1.7954501,14.61972 a 0.87626365,0.87626365 0 0 0 0.094847,1.320514 c 0.3350949,0.283128 0.6756353,0.559032 1.012522,0.838577 A 0.91568655,0.91568655 0 0 0 4.2915808,16.631815 L 11.532879,7.4928683 12.328407,6.4876962 Z m 0.510636,4.6216217 -1.4335604,1.7219523 c 0.2723764,0.238927 0.5389474,0.487439 0.7993774,0.745479 0.43186,0.422901 0.831451,0.879918 1.240016,1.326113 a 0.25266498,0.25266498 0 0 1 0.0553,0.179195 3.0857382,3.0857382 0 0 0 0.09695,1.254366 3.1215773,3.1215773 0 0 0 1.758001,2.048143 3.0337717,3.0337717 0 0 0 2.429632,0.05915 0.57700796,0.57700796 0 0 0 0.08435,-0.05915 0.67735718,0.67735718 0 0 0 -0.05915,-0.0609 L 14.202959,15.3365 a 0.22757768,0.22757768 0 0 1 -0.0861,-0.132647 c -0.0215,-0.388853 -0.03575,-0.779722 -0.0483,-1.170367 a 0.19532257,0.19532257 0 0 1 0.04305,-0.116197 c 0.172027,-0.216229 0.346985,-0.430082 0.524985,-0.641532 a 0.19532257,0.19532257 0 0 1 0.110947,-0.0574 c 0.372726,-0.05913 0.743744,-0.118213 1.116469,-0.166596 a 0.26520863,0.26520863 0 0 1 0.179195,0.0518 c 0.456947,0.374517 0.908491,0.752675 1.360062,1.132568 0.16486,0.13798 0.326149,0.281196 0.507136,0.438888 0.01254,-0.07347 0.01987,-0.107307 0.02345,-0.143146 0.0227,-0.189947 0.04464,-0.379837 0.06615,-0.569784 l -0.05005,-0.537585 a 0.8708878,0.8708878 0 0 1 -0.0196,-0.0826 3.560605,3.560605 0 0 0 -0.442738,-1.100369 3.1699599,3.1699599 0 0 0 -4.064087,-1.118219 0.15231577,0.15231577 0 0 1 -0.129146,0 C 12.713789,10.752384 12.124251,10.394078 11.561579,9.9998486 11.379994,9.8720229 11.200799,9.7407532 11.023994,9.6057597 Z"
     id="path4" />
</svg>
