<?xml version="1.0" encoding="UTF-8" standalone="no"?>
<svg
   xmlns:dc="http://purl.org/dc/elements/1.1/"
   xmlns:cc="http://creativecommons.org/ns#"
   xmlns:rdf="http://www.w3.org/1999/02/22-rdf-syntax-ns#"
   xmlns:svg="http://www.w3.org/2000/svg"
   xmlns="http://www.w3.org/2000/svg"
   id="svg4"
   xml:space="preserve"
   enable-background="new 0 0 100 100"
   viewBox="0 0 18 18"
   y="0px"
   x="0px"
   version="1.1"
   fill="#000000"
   width="18"
   height="18"><metadata
     id="metadata10"><rdf:RDF><cc:Work
         rdf:about=""><dc:format>image/svg+xml</dc:format><dc:type
           rdf:resource="http://purl.org/dc/dcmitype/StillImage" /><dc:title></dc:title></cc:Work></rdf:RDF></metadata><defs
     id="defs8" /><path
     style="stroke-width:0.2"
     id="path2"
     d="M 16.3356,0.3372 C 16.1276,0.129 15.84,0 15.5222,0 H 13.604 c -0.2122,0 -0.3836,0.172 -0.3836,0.3836 v 0.7672 c 0,0.212 0.1716,0.3836 0.3836,0.3836 h 1.5346 v 1.9182 1.0558 c 0,0.9248 -0.5946,1.7114 -1.0752,2.4544 C 13.3078,8.131 11.5986,8.131 10.8428,6.9632 10.3456,6.1952 9.7676,5.4664 9.7676,4.5084 V 3.4526 1.5344 h 1.5346 c 0.2122,0 0.3836,-0.1716 0.3836,-0.3836 V 0.3836 C 11.6858,0.172 11.5142,0 11.302,0 H 9.3838 C 9.066,0 8.7784,0.129 8.57,0.3372 8.3616,0.5454 8.2328,0.8332 8.2328,1.151 v 2.3018 0.263 c 0,1.3308 0.4032,2.5694 1.0828,3.7136 1.211,2.0382 2.3702,2.7252 2.3382,3.8328 -0.021,0.7104 0,1.4226 0,2.134 0,1.692 -1.3772,3.0692 -3.0692,3.0692 H 7.849 c -1.6922,0 -3.0692,-1.3772 -3.0692,-3.0692 v -2.767 C 5.8888,10.2992 6.698,9.2734 6.698,8.0566 6.698,6.5736 5.4954,5.371 4.0124,5.371 c -1.4834,0 -2.6856,1.2026 -2.6856,2.6856 0,1.2168 0.8088,2.2426 1.9182,2.5726 V 13.396 C 3.2456,15.9386 5.3064,18 7.8492,18 h 0.7356 c 2.5422,0 4.6038,-2.0614 4.6038,-4.6038 v -1.2416 c 0,-0.586 -0.0162,-1.6682 0.2398,-2.1958 C 14.2812,9.2764 15.2506,8.5662 15.762,7.5292 16.485,6.412 16.6732,5.0466 16.6732,3.716 V 3.453 1.151 c 0,-0.3178 -0.1292,-0.6054 -0.3376,-0.8138 M 2.5742,8.0566 c 0,-0.7928 0.6456,-1.4386 1.4386,-1.4386 0.7928,0 1.4386,0.6458 1.4386,1.4386 0,0.7932 -0.6458,1.4386 -1.4386,1.4386 C 3.2196,9.4954 2.5742,8.8498 2.5742,8.0566"
     fill="#000000" /></svg>
