<?xml version="1.0" encoding="UTF-8" standalone="no"?>
<svg
   xmlns:dc="http://purl.org/dc/elements/1.1/"
   xmlns:cc="http://creativecommons.org/ns#"
   xmlns:rdf="http://www.w3.org/1999/02/22-rdf-syntax-ns#"
   xmlns:svg="http://www.w3.org/2000/svg"
   xmlns="http://www.w3.org/2000/svg"
   id="svg4"
   xml:space="preserve"
   viewBox="0 0 18 18"
   y="0px"
   x="0px"
   version="1.1"
   fill="#000000"
   width="18"
   height="18"><metadata
     id="metadata10"><rdf:RDF><cc:Work
         rdf:about=""><dc:format>image/svg+xml</dc:format><dc:type
           rdf:resource="http://purl.org/dc/dcmitype/StillImage" /><dc:title></dc:title></cc:Work></rdf:RDF></metadata><defs
     id="defs8" /><path
     style="stroke-width:0.18954"
     id="path2"
     d="M 17.870823,8.7938756 9.2467671,1.0985643 c -0.1516317,-0.13267774 -0.3601254,-0.13267774 -0.5117571,0 L 5.4749274,3.9985215 V 2.3305723 c 0,-0.2084937 -0.1705858,-0.3790794 -0.3790794,-0.3790794 H 3.3710369 c -0.2084937,0 -0.3790794,0.1705857 -0.3790794,0.3790794 V 6.2350898 L 0.12990814,8.7938756 C -0.13544742,9.0213232 0.03513829,9.4572645 0.37630972,9.4572645 H 2.0253051 v 7.1646005 c 0,0.208493 0.1705857,0.379079 0.3790794,0.379079 H 15.577393 c 0.208493,0 0.379079,-0.170586 0.379079,-0.379079 V 9.4572645 h 1.648995 c 0.360126,0 0.530711,-0.4359413 0.265356,-0.6633889 z M 11.900323,9.72262 8.4317465,14.366342 C 8.128483,14.764376 7.484048,14.480066 7.5788179,13.987263 l 0.606527,-2.994727 H 6.4605337 c -0.3980333,0 -0.606527,-0.435941 -0.3790793,-0.758159 L 9.5689846,5.5906549 C 9.8722481,5.1926215 10.516683,5.4769311 10.421913,5.9697343 l -0.6065268,2.994727 h 1.7248108 c 0.37908,0 0.606527,0.4359413 0.360126,0.7581587 z" /></svg>
