<?xml version="1.0" encoding="UTF-8" standalone="no"?>
<svg
   xmlns:sketch="http://www.bohemiancoding.com/sketch/ns"
   xmlns:dc="http://purl.org/dc/elements/1.1/"
   xmlns:cc="http://creativecommons.org/ns#"
   xmlns:rdf="http://www.w3.org/1999/02/22-rdf-syntax-ns#"
   xmlns:svg="http://www.w3.org/2000/svg"
   xmlns="http://www.w3.org/2000/svg"
   id="svg4"
   y="0px"
   x="0px"
   version="1.1"
   viewBox="0 0 18 18"
   fill="#000000"
   width="18"
   height="18">
  <metadata
     id="metadata10">
    <rdf:RDF>
      <cc:Work
         rdf:about="">
        <dc:format>image/svg+xml</dc:format>
        <dc:type
           rdf:resource="http://purl.org/dc/dcmitype/StillImage" />
        <dc:title></dc:title>
      </cc:Work>
    </rdf:RDF>
  </metadata>
  <defs
     id="defs8" />
  <path
     style="stroke-width:0.201087"
     id="path2"
     sketch:type="MSShapeGroup"
     fill="#000000"
     d="m 4.6851223,4.1471817 c -1.1236948,0 -2.0345058,0.9108112 -2.0345058,2.034506 V 11.81816 c 0,1.123695 0.910811,2.034506 2.0345058,2.034506 h 8.6297557 c 1.123694,0 2.034506,-0.910811 2.034506,-2.034506 V 6.1816877 c 0,-1.1236948 -0.910812,-2.034506 -2.034506,-2.034506 z m 0,1.2065192 h 8.6297557 c 0.457352,0 0.827987,0.3706341 0.827987,0.8279868 V 11.81816 c 0,0.457353 -0.370635,0.827987 -0.827987,0.827987 H 4.6851223 c -0.4573525,0 -0.8279865,-0.370634 -0.8279865,-0.827987 V 6.1816877 c 0,-0.4573527 0.370634,-0.8279868 0.8279865,-0.8279868 z M 6.788724,3.0892469 9.0000001,1.4987706 11.403964,3.2279459 C 11.6768,3.42398 12.056854,3.3620825 12.25304,3.0892469 12.449226,2.8165635 12.387176,2.4363577 12.114493,2.2401716 L 9.0000001,0 5.8855076,2.2401716 C 5.612824,2.4363577 5.5507745,2.8165635 5.7469605,3.0892469 5.9431466,3.3620825 6.3233524,3.42398 6.5960358,3.2279459 Z M 11.211276,14.910601 9.0000001,16.501229 6.5960358,14.771902 C 6.3233524,14.575716 5.9431466,14.637765 5.7469605,14.910449 5.5507745,15.183284 5.612824,15.56349 5.8855076,15.759676 L 9.0000001,18 12.114493,15.759676 c 0.272683,-0.196186 0.334733,-0.576392 0.138547,-0.849227 -0.196186,-0.272684 -0.576392,-0.334733 -0.849076,-0.138547 z m 0.168659,-9.0679048 c 0.526205,0 0.952796,0.4267428 0.952796,0.9529475 0,0.5262046 -0.426591,0.9529473 -0.952796,0.9529473 -0.526356,0 -0.952947,-0.4267427 -0.952947,-0.9529473 0,-0.5262047 0.426591,-0.9529475 0.952947,-0.9529475 z m -4.7598702,0 c 0.5263567,0 0.9529476,0.4267428 0.9529476,0.9529475 0,0.5262046 -0.4265909,0.9529473 -0.9529476,0.9529473 -0.5262046,0 -0.9527953,-0.4267427 -0.9527953,-0.9529473 0,-0.5262047 0.4265907,-0.9529475 0.9527953,-0.9529475 z M 7.920216,12.110767 H 6.8690235 V 10.624619 H 6.3711062 v 1.486148 H 5.3199137 V 9.2581595 h 0.014448 c 0.088968,-0.6311413 0.6299247,-1.1171962 1.2857035,-1.1171962 0.6559309,0 1.1967352,0.4860549 1.2858556,1.1171962 h 0.014295 z m 4.759871,0 h -1.051193 v -1.486148 h -0.497917 v 1.486148 H 10.079784 V 9.2581595 h 0.0143 c 0.08912,-0.6311413 0.630077,-1.1171962 1.285856,-1.1171962 0.655778,0 1.196735,0.4860549 1.285856,1.1171962 h 0.0143 v 2.8526075 z" />
</svg>
