<?xml version="1.0" encoding="UTF-8" standalone="no"?>
<svg
   xmlns:dc="http://purl.org/dc/elements/1.1/"
   xmlns:cc="http://creativecommons.org/ns#"
   xmlns:rdf="http://www.w3.org/1999/02/22-rdf-syntax-ns#"
   xmlns:svg="http://www.w3.org/2000/svg"
   xmlns="http://www.w3.org/2000/svg"
   height="18"
   width="18"
   xml:space="preserve"
   enable-background="new 73 0 267 266.9"
   viewBox="73 0 18 18"
   y="0px"
   x="0px"
   id="Layer_1"
   version="1.1"><metadata
   id="metadata869"><rdf:RDF><cc:Work
       rdf:about=""><dc:format>image/svg+xml</dc:format><dc:type
         rdf:resource="http://purl.org/dc/dcmitype/StillImage" /><dc:title></dc:title></cc:Work></rdf:RDF></metadata><defs
   id="defs867" />

<path
   d="M 73.992187,0 C 73.447367,0 73,0.44736796 73,0.99218748 V 17.007812 C 73,17.559616 73.447367,18 73.992187,18 H 90.007812 C 90.559616,18 91,17.552631 91,17.007812 V 0.99218748 C 91,0.44038309 90.552631,0 90.007812,0 Z m 11.890625,2.6601563 c 0.991851,0 1.842295,0.070545 2.09375,0.1054687 v 2.4375 h -1.4375 c -1.131548,0 -1.347656,0.5310226 -1.347656,1.3203125 v 1.7324219 h 2.6875 L 87.53125,10.972656 h -2.339844 v 6.970703 H 82.388672 V 10.972656 H 80.042969 V 8.2558594 h 2.345703 V 6.25 c 0,-2.3259604 1.419635,-3.5898437 3.49414,-3.5898437 z"
   style="fill:#000000;fill-opacity:1;stroke-width:0.0698487"
   id="Blue_1_" />
</svg>
