<?xml version="1.0" encoding="UTF-8" standalone="no"?>
<svg
   xmlns:dc="http://purl.org/dc/elements/1.1/"
   xmlns:cc="http://creativecommons.org/ns#"
   xmlns:rdf="http://www.w3.org/1999/02/22-rdf-syntax-ns#"
   xmlns:svg="http://www.w3.org/2000/svg"
   xmlns="http://www.w3.org/2000/svg"
   version="1.1"
   width="18"
   height="18"
   viewBox="0 0 18 18"
   id="svg2">
  <metadata
     id="metadata8">
    <rdf:RDF>
      <cc:Work
         rdf:about="">
        <dc:format>image/svg+xml</dc:format>
        <dc:type
           rdf:resource="http://purl.org/dc/dcmitype/StillImage" />
        <dc:title></dc:title>
      </cc:Work>
    </rdf:RDF>
  </metadata>
  <defs
     id="defs6" />
  <path
     style="color:#000000;fill:#000000;fill-rule:evenodd;stroke-width:0.0861012"
     d="M 8.9999396,0 C 7.875447,0 6.9608773,0.90342783 6.9608773,2.016462 c 0,0.8197636 0.4982461,1.5256547 1.2078682,1.8406804 -0.00895,0.4286639 -0.018696,0.8570496 -0.027623,1.2857144 H 2.5713688 V 6.4285703 H 8.1160111 C 8.0635111,8.955317 8.0099828,11.480499 7.957808,14.007253 7.954398,14.169118 7.960318,15.798803 5.7730985,14.67271 3.5799127,13.544878 4.8173837,12.266771 4.9645047,12.229352 3.6760239,11.823821 2.5101153,10.696444 1.5669047,9.5398989 0.64115767,11.601491 2.2981024,13.803589 2.3780095,14.117744 2.5770107,13.900185 2.8735483,13.934106 3.0560228,13.964563 5.2884811,17.442919 8.2144989,17.025332 8.9999396,18 9.78538,17.025332 12.71191,17.442919 14.943857,13.964563 c 0.182305,-0.03046 0.478671,-0.06438 0.678013,0.153181 0.08008,-0.314155 1.737107,-2.516253 0.811104,-4.5778451 -0.943038,1.1565451 -2.109545,2.2839221 -3.397599,2.6894531 0.146525,0.03742 1.386678,1.315526 -0.806083,2.443358 -2.187648,1.126093 -2.183813,-0.503592 -2.187221,-0.665457 C 9.9913649,11.48047 9.9366102,8.955312 9.8838685,6.4285703 H 15.428511 V 5.1428568 H 9.8587566 C 9.8498911,4.7141912 9.8398759,4.2858105 9.8311335,3.8571424 10.541609,3.5421167 11.039002,2.8362256 11.039002,2.016462 11.039002,0.90342783 10.125284,0 8.9999396,0 Z m 0,1.2781808 c 0.3986848,0 0.7232145,0.33101 0.7232145,0.7382812 0,0.4064012 -0.3245297,0.7357699 -0.7232145,0.7357699 -0.3986822,0 -0.7232142,-0.3293687 -0.7232142,-0.7357699 0,-0.4072712 0.324532,-0.7382812 0.7232142,-0.7382812 z"
     id="path2299" />
</svg>
