<?xml version="1.0" encoding="UTF-8" standalone="no"?>
<svg
   xmlns:dc="http://purl.org/dc/elements/1.1/"
   xmlns:cc="http://creativecommons.org/ns#"
   xmlns:rdf="http://www.w3.org/1999/02/22-rdf-syntax-ns#"
   xmlns:svg="http://www.w3.org/2000/svg"
   xmlns="http://www.w3.org/2000/svg"
   height="18"
   width="18"
   fill="#000000"
   version="1.1"
   x="0px"
   y="0px"
   viewBox="0 0 18 18"
   xml:space="preserve"
   id="svg8"><metadata
   id="metadata8"><rdf:RDF><cc:Work
       rdf:about=""><dc:format>image/svg+xml</dc:format><dc:type
         rdf:resource="http://purl.org/dc/dcmitype/StillImage" /><dc:title></dc:title></cc:Work></rdf:RDF></metadata><defs
   id="defs6" />
	<path
   style="stroke-width:0.189474"
   d="m 15.27158,10.591579 c 0.189473,0 0.341051,-0.151579 0.341051,-0.341053 V 9.4168421 c 0,-0.1894737 -0.151578,-0.3410526 -0.341051,-0.3410526 H 14.324211 C 13.983158,6.6126316 11.974737,4.6989474 9.4736843,4.4715789 V 2.8042105 h 2.1789477 c 0.208421,0 0.378947,-0.1705263 0.378947,-0.3789473 V 1.0421053 c 0,-0.20842109 -0.170526,-0.37894741 -0.378947,-0.37894741 H 9.4736843 V 0.47368421 C 9.4736843,0.20842105 9.2652632,0 9.0000001,0 8.7347369,0 8.5263159,0.20842105 8.5263159,0.47368421 V 4.4715789 C 6.0252632,4.6989474 4.0168422,6.6126316 3.6757896,9.0757895 H 2.7284211 c -0.1894736,0 -0.3410526,0.1515789 -0.3410526,0.3410526 v 0.8336839 c 0,0.189474 0.151579,0.341053 0.3410526,0.341053 h 0.8905263 v 5.892632 H 2.7284211 c -0.1894736,0 -0.3410526,0.151578 -0.3410526,0.341052 v 0.833684 C 2.3873685,17.848421 2.5389475,18 2.7284211,18 H 15.27158 c 0.189473,0 0.341051,-0.151579 0.341051,-0.341053 v -0.833684 c 0,-0.189474 -0.151578,-0.341052 -0.341051,-0.341052 h -0.890528 v -5.892632 z m -5.4947378,0 v 5.892632 H 8.223158 v -5.892632 z m -4.6231579,0 h 1.5536842 v 5.892632 H 5.1536843 Z m 7.6926317,5.892632 h -1.553684 v -5.892632 h 1.553683 z"
   id="path2" /></svg>
