<?xml version="1.0" encoding="UTF-8" standalone="no"?>
<svg
   xmlns:dc="http://purl.org/dc/elements/1.1/"
   xmlns:cc="http://creativecommons.org/ns#"
   xmlns:rdf="http://www.w3.org/1999/02/22-rdf-syntax-ns#"
   xmlns:svg="http://www.w3.org/2000/svg"
   xmlns="http://www.w3.org/2000/svg"
   width="24"
   height="24"
   viewBox="0 0 24 24"
   version="1.1"
   id="svg6">
  <path
     id="path334-0"
     d="M 12 0 C 5.3723479 -1.1842379e-15 0 5.3726611 0 12 C -2.3684758e-15 18.627338 5.3723479 24 12 24 C 18.627025 24 24 18.627338 24 12 C 24 5.3726611 18.627025 0 12 0 z M 11.943359 3.1835938 C 16.783991 3.1835938 20.708984 7.1089009 20.708984 11.949219 C 20.708984 16.790164 16.783991 20.714844 11.943359 20.714844 C 7.1033559 20.714844 3.1777344 16.790164 3.1777344 11.949219 C 3.1777344 7.108901 7.1033559 3.1835938 11.943359 3.1835938 z M 11.640625 6.7363281 C 11.17629 6.7363281 10.858799 6.8165859 10.689453 6.9804688 C 10.52557 7.1388888 10.443359 7.4266271 10.443359 7.8417969 C 10.443359 8.2405784 10.523221 8.5169646 10.681641 8.6699219 C 10.845523 8.8228792 11.160665 8.8984375 11.625 8.8984375 C 12.083872 8.8984375 12.39706 8.8205294 12.566406 8.6621094 C 12.735752 8.5036893 12.820313 8.2159511 12.820312 7.8007812 C 12.820312 7.4019997 12.738101 7.1256136 12.574219 6.9726562 C 12.410335 6.8142362 12.099496 6.7363281 11.640625 6.7363281 z M 11.632812 9.9472656 C 11.430691 9.9472656 11.263919 9.9562676 11.132812 9.9726562 C 11.001706 9.9890449 10.894441 10.014099 10.8125 10.046875 C 10.736019 10.074191 10.681211 10.108644 10.648438 10.152344 C 10.615664 10.190584 10.599609 10.236389 10.599609 10.291016 L 10.599609 17.583984 C 10.599609 17.638614 10.615664 17.688722 10.648438 17.732422 C 10.681213 17.770662 10.736021 17.802765 10.8125 17.830078 C 10.894441 17.857391 11.001706 17.877745 11.132812 17.888672 C 11.263918 17.905059 11.43069 17.912109 11.632812 17.912109 C 11.834935 17.912109 12.001706 17.905059 12.132812 17.888672 C 12.263919 17.877745 12.366881 17.857391 12.443359 17.830078 C 12.525304 17.802765 12.582461 17.770662 12.615234 17.732422 C 12.648008 17.688719 12.664062 17.638611 12.664062 17.583984 L 12.664062 10.291016 C 12.664063 10.236388 12.648008 10.190584 12.615234 10.152344 C 12.582458 10.108641 12.525301 10.074188 12.443359 10.046875 C 12.366881 10.014098 12.263919 9.9890442 12.132812 9.9726562 C 12.001706 9.9562676 11.834935 9.9472656 11.632812 9.9472656 z " />
</svg>
