<?xml version="1.0" encoding="UTF-8" standalone="no"?>
<svg
   xmlns:dc="http://purl.org/dc/elements/1.1/"
   xmlns:cc="http://creativecommons.org/ns#"
   xmlns:rdf="http://www.w3.org/1999/02/22-rdf-syntax-ns#"
   xmlns:svg="http://www.w3.org/2000/svg"
   xmlns="http://www.w3.org/2000/svg"
   width="24"
   height="24"
   viewBox="0 0 24 24"
   version="1.1"
   id="svg8">
  <path
     id="path22"
     d="M 11.999999,0 C 6.9163808,0 2.7942705,4.1457619 2.7942705,9.2604167 2.7942705,16.915833 10.044266,24 11.999999,24 13.955531,24 21.205729,16.915833 21.205729,9.2604167 21.205729,4.1457619 17.083833,0 11.999999,0 Z m 0,1.8046875 c 4.05197,0 7.338542,3.2837606 7.338542,7.3359376 0,4.0525969 -3.286572,7.3385419 -7.338542,7.3385419 -4.0521764,0 -7.3385408,-3.285945 -7.3385408,-7.3385419 0,-4.0521771 3.2863644,-7.3359376 7.3385408,-7.3359376 z m 0,3.4609376 c -0.161327,0 -0.296094,0.00731 -0.403646,0.023437 -0.10755,0.016132 -0.193281,0.040651 -0.257812,0.072917 -0.06453,0.026887 -0.113568,0.066185 -0.145833,0.1145827 -0.02689,0.04302 -0.03906,0.089453 -0.03906,0.1432292 V 8.3463541 H 8.6276039 c -0.048399,0 -0.089961,0.014779 -0.1276041,0.041667 -0.037643,0.026888 -0.074505,0.070887 -0.1067706,0.1354167 -0.026888,0.059153 -0.046368,0.1424488 -0.0625,0.25 -0.016132,0.1021733 -0.026041,0.2272017 -0.026041,0.3723958 0,0.1505718 0.00991,0.2780347 0.026041,0.3802083 0.021511,0.1021733 0.048464,0.1854693 0.080729,0.25 0.032265,0.059153 0.066524,0.100716 0.1041668,0.127604 0.04302,0.026888 0.089623,0.041667 0.1380207,0.041667 h 2.5000003 v 2.7343751 c 0,0.05378 0.01217,0.10021 0.03906,0.143229 0.03227,0.03764 0.0813,0.07451 0.145834,0.106771 0.06453,0.02689 0.150261,0.04637 0.257812,0.0625 0.107551,0.01613 0.242318,0.02604 0.403645,0.02604 0.161327,0 0.296095,-0.0099 0.403646,-0.02604 0.107551,-0.01613 0.193282,-0.03561 0.257813,-0.0625 0.06453,-0.03227 0.111133,-0.06913 0.13802,-0.10677 0.02689,-0.04302 0.03906,-0.08945 0.03906,-0.143229 V 9.9453125 h 2.507813 c 0.0484,0 0.095,-0.014779 0.13802,-0.041667 0.04303,-0.026888 0.07971,-0.068451 0.111987,-0.127604 0.03227,-0.064531 0.05679,-0.1478263 0.07292,-0.25 0.01613,-0.1021734 0.02604,-0.2296366 0.02604,-0.3802083 0,-0.1451941 -0.0099,-0.2702221 -0.02604,-0.3723959 -0.01613,-0.107552 -0.04065,-0.190847 -0.07292,-0.25 -0.02689,-0.064531 -0.06115,-0.108528 -0.104174,-0.1354166 -0.03764,-0.026888 -0.07677,-0.041667 -0.119786,-0.041667 h -2.53386 v -2.726562 c 0,-0.053776 -0.01217,-0.1002093 -0.03906,-0.1432292 -0.02689,-0.048397 -0.07349,-0.087695 -0.13802,-0.1145833 -0.06453,-0.032266 -0.150262,-0.056784 -0.257813,-0.072917 -0.107551,-0.016133 -0.242319,-0.023438 -0.403646,-0.023437 z"/>
</svg>
