<?xml version="1.0" encoding="UTF-8" standalone="no"?>
<svg
   xmlns:dc="http://purl.org/dc/elements/1.1/"
   xmlns:cc="http://creativecommons.org/ns#"
   xmlns:rdf="http://www.w3.org/1999/02/22-rdf-syntax-ns#"
   xmlns:svg="http://www.w3.org/2000/svg"
   xmlns="http://www.w3.org/2000/svg"
   id="svg16"
   xml:space="preserve"
   enable-background="new 0 0 64 64"
   viewBox="0 0 18 18"
   y="0px"
   x="0px"
   version="1.1"
   fill="#000000"
   width="18"
   height="18"><metadata
     id="metadata22"><rdf:RDF><cc:Work
         rdf:about=""><dc:format>image/svg+xml</dc:format><dc:type
           rdf:resource="http://purl.org/dc/dcmitype/StillImage" /><dc:title></dc:title></cc:Work></rdf:RDF></metadata><defs
     id="defs20" /><path
     d="M 9.0003072,0 0.91299591,5.6198658 4.709686,8.2583585 12.494707,2.4284665 Z M 12.929624,2.7303379 5.1446031,8.5602298 9.0003072,11.239339 17.086696,5.6196035 Z M 17.248215,6.1166955 9.2769328,11.655722 V 18 L 17.248215,12.460975 Z M 1.2924344,6.4922006 4.1000334,11.308255 H 8.2232961 Z M 0.7517845,6.6242693 v 5.4128527 l 2.17013,-1.68951 z M 3.1782545,10.787579 0.89824252,12.561992 8.3437822,17.736911 5.5387954,11.77993 H 3.9277569 3.92745 c -0.032826,0 -0.064207,-0.0066 -0.094822,-0.01665 -0.00848,-0.0025 -0.016597,-0.0057 -0.023974,-0.0084 C 3.78468,11.74518 3.762949,11.73292 3.743032,11.71688 3.738612,11.71438 3.734122,11.71178 3.73043,11.70838 3.711251,11.69103 3.693546,11.67156 3.680637,11.64924 Z M 6.1352318,11.77993 8.723681,17.275849 V 11.77993 Z"
     style="stroke-width:0.340558"
     id="polygon2" /></svg>
