<?xml version="1.0" encoding="UTF-8" standalone="no"?>
<svg
   xmlns:dc="http://purl.org/dc/elements/1.1/"
   xmlns:cc="http://creativecommons.org/ns#"
   xmlns:rdf="http://www.w3.org/1999/02/22-rdf-syntax-ns#"
   xmlns:svg="http://www.w3.org/2000/svg"
   xmlns="http://www.w3.org/2000/svg"
   id="svg6"
   y="0px"
   x="0px"
   version="1.1"
   viewBox="0 0 18 18"
   fill="#000000"
   width="18"
   height="18">
  <metadata
     id="metadata12">
    <rdf:RDF>
      <cc:Work
         rdf:about="">
        <dc:format>image/svg+xml</dc:format>
        <dc:type
           rdf:resource="http://purl.org/dc/dcmitype/StillImage" />
        <dc:title></dc:title>
      </cc:Work>
    </rdf:RDF>
  </metadata>
  <defs
     id="defs10" />
  <g
     transform="matrix(2.1227184,0,0,2.1259627,0.01382552,9.1178405e-5)"
     id="g4"
     display="inline">
    <path
       id="path2"
       d="M 1.8025419,-4.2888055e-5 C 1.1336399,9.8111945e-5 0.5857009,0.54803511 0.5855619,1.2169371 c 1.47e-4,0.158323 0.05552,0.306956 0.115239,0.452685 -0.204389,0.259465 -0.380619,0.550879 -0.380856,0.885218 3.44e-4,0.266738 0.117038,0.510401 0.252181,0.737939 -0.31527,0.332277 -0.570258,0.731416 -0.570507,1.195276 3.7e-5,0.901993 0.670112,1.650649 1.537373,1.77922 v 1.670182 h -1.273824 a 0.26460987,0.26460987 0 0 0 -0.02532,0 0.26495277,0.26495277 0 0 0 0.02532,0.529167 h 2.632915 4.77542 0.529166 a 0.26464844,0.26464844 0 1 0 0,-0.529167 h -0.395324 l -0.42685,-0.570508 h 0.19327 a 0.26464844,0.26464844 0 1 0 0,-0.529167 h -0.589626 l -0.368454,-0.491959 h 0.296106 a 0.264842,0.264842 0 1 0 0,-0.529684 h -3.245797 a 0.26460987,0.26460987 0 0 0 -0.02739,0 0.26519585,0.26519585 0 0 0 0.02739,0.529684 h 0.29559 l -0.367937,0.491959 h -0.590145 a 0.26460987,0.26460987 0 0 0 -0.02739,0 0.26500135,0.26500135 0 0 0 0.02739,0.529167 h 0.193787 l -0.426847,0.570508 h -0.702283 v -1.670182 c 0.866514,-0.129437 1.53682,-0.877928 1.536857,-1.77922 -3.7e-4,-0.463989 -0.256541,-0.863056 -0.572058,-1.195276 0.135325,-0.227497 0.251677,-0.471142 0.252181,-0.737939 -5.29e-4,-0.334091 -0.176514,-0.623944 -0.380855,-0.88315 0.06001,-0.146271 0.115264,-0.295815 0.115238,-0.454753 -1.4e-4,-0.66890099 -0.54808,-1.21683698805 -1.21698,-1.216979988055 z M 4.6209749,6.3458231 h 1.333768 l 0.368453,0.491959 h -2.070157 z m -0.763261,1.021126 h 2.861323 l 0.427365,0.570508 h -3.715019 z"
       style="color:#000000;font-style:normal;font-variant:normal;font-weight:normal;font-stretch:normal;font-size:medium;line-height:normal;font-family:sans-serif;font-variant-ligatures:normal;font-variant-position:normal;font-variant-caps:normal;font-variant-numeric:normal;font-variant-alternates:normal;font-feature-settings:normal;text-indent:0;text-align:start;text-decoration:none;text-decoration-line:none;text-decoration-style:solid;text-decoration-color:#000000;letter-spacing:normal;word-spacing:normal;text-transform:none;writing-mode:lr-tb;direction:ltr;text-orientation:mixed;dominant-baseline:auto;baseline-shift:baseline;text-anchor:start;white-space:normal;shape-padding:0;clip-rule:nonzero;display:inline;overflow:visible;visibility:visible;opacity:1;isolation:auto;mix-blend-mode:normal;color-interpolation:sRGB;color-interpolation-filters:linearRGB;solid-color:#000000;solid-opacity:1;vector-effect:none;fill:#000000;fill-opacity:1;fill-rule:nonzero;stroke:none;stroke-width:0.529167;stroke-linecap:round;stroke-linejoin:miter;stroke-miterlimit:4;stroke-dasharray:none;stroke-dashoffset:0;stroke-opacity:1;color-rendering:auto;image-rendering:auto;shape-rendering:auto;text-rendering:auto;enable-background:accumulate" />
  </g>
</svg>
