<?xml version="1.0" encoding="UTF-8" standalone="no"?>
<svg
   xmlns:dc="http://purl.org/dc/elements/1.1/"
   xmlns:cc="http://creativecommons.org/ns#"
   xmlns:rdf="http://www.w3.org/1999/02/22-rdf-syntax-ns#"
   xmlns:svg="http://www.w3.org/2000/svg"
   xmlns="http://www.w3.org/2000/svg"
   id="svg14"
   xml:space="preserve"
   enable-background="new 0 0 100 100"
   viewBox="0 0 18 18"
   y="0px"
   x="0px"
   version="1.1"
   fill="#000000"
   width="18"
   height="18"><metadata
     id="metadata20"><rdf:RDF><cc:Work
         rdf:about=""><dc:format>image/svg+xml</dc:format><dc:type
           rdf:resource="http://purl.org/dc/dcmitype/StillImage" /><dc:title></dc:title></cc:Work></rdf:RDF></metadata><defs
     id="defs18" /><path
     id="path2"
     d="m 127.803,71.529 c 0,-0.238 -0.031,-0.465 -0.091,-0.674 -0.061,-0.211 -0.241,-0.316 -0.541,-0.316 -0.18,0 -0.347,0.121 -0.496,0.361 -0.149,0.24 -0.286,0.48 -0.406,0.719 l -1.794,6.281 h 1.743 l 1.585,-5.828 z"
     fill="none" /><path
     d="m 13.632048,1.0148328 c -0.463784,-0.0178325 -0.915013,0.237717 -1.124895,0.6845822 -0.27904,0.5958202 -0.02298,1.3049784 0.572838,1.5844197 0.595218,0.2790398 1.304376,0.022772 1.584419,-0.5724456 0.27904,-0.5960211 0.02258,-1.3049786 -0.572837,-1.5844199 -0.148855,-0.06981 -0.30493,-0.1061925 -0.459525,-0.1121364 z m 1.820063,1.9808186 c -0.03827,-10e-4 -0.07664,-8.47e-5 -0.114881,0.00353 -0.102381,-2.008e-4 -0.205039,0.02695 -0.297985,0.081554 -0.07066,0.031517 -0.138488,0.069791 -0.201925,0.1199784 -0.03112,0.025094 -0.05621,0.054042 -0.08351,0.081946 l -3.489958,2.5626741 c -0.262378,0.1927181 -0.318778,0.561787 -0.125859,0.8241647 0.11543,0.1571857 0.294124,0.2403488 0.4756,0.2403488 0.121051,0 0.24298,-0.03701 0.348172,-0.114097 L 14.818112,4.69809 c 1.192042,1.6108024 1.250545,3.4447112 1.251147,3.4597674 0.0026,0.1684276 0.05264,0.3240105 0.132133,0.4599168 l -1.2931,3.3938978 c -0.02971,0.07809 -0.04247,0.161552 -0.03725,0.244661 l 0.226626,3.819311 c 0.01827,0.312966 0.278183,0.554409 0.587737,0.554409 0.01184,0 0.02383,2.9e-5 0.03568,-0.0012 0.325212,-0.01887 0.572707,-0.298214 0.553234,-0.623025 l -0.218784,-3.693058 0.64655,-1.696949 0.04509,5.785622 c 0.0028,0.323807 0.266292,0.5846 0.589697,0.5846 h 0.0047 c 0.325613,-0.0024 0.58721,-0.268597 0.5846,-0.59401 l 0.05254,-7.8507396 C 18.036731,8.4162425 17.957981,8.2781435 17.955973,8.1307944 17.954167,8.0252009 17.898832,5.5170107 16.162964,3.3481287 15.982742,3.1220615 15.71998,3.0026338 15.452112,2.9956434 Z M 3.2829366,4.3103159 A 1.1910383,1.1910383 0 0 0 2.0917791,5.5014734 1.1910383,1.1910383 0 0 0 3.2829366,6.6926309 1.1910383,1.1910383 0 0 0 4.4740941,5.5014734 1.1910383,1.1910383 0 0 0 3.2829366,4.3103159 Z M 10.066418,6.6491093 C 9.9028725,6.6549511 9.7442167,6.7286244 9.6335545,6.86162 L 7.6311709,9.2737334 4.7497304,7.1486269 C 4.3303679,6.8388726 3.7401058,6.9286448 3.430753,7.3478067 3.121601,7.7669687 3.2107615,8.3578328 3.6303249,8.6667841 l 3.079836,2.2709629 c 0.081504,0.06043 0.1695976,0.104565 0.2607372,0.134878 0.087928,0.05219 0.1893524,0.0843 0.2991616,0.0843 h 6.4047253 c 0.325614,0 0.589306,-0.263683 0.589306,-0.589698 0,-0.325412 -0.263492,-0.5893051 -0.589306,-0.5893051 H 8.5796272 L 10.238935,7.9786731 12.14761,8.9600646 c 0.290081,0.1477505 0.64523,0.034231 0.793582,-0.2552482 0.148755,-0.2894787 0.03482,-0.6450192 -0.254856,-0.7939742 L 10.356561,6.7138036 c -0.09207,-0.047126 -0.192017,-0.0682 -0.290143,-0.064694 z M 0.89199578,7.0211991 0,8.224119 6.8211212,13.28203 H 14.472288 V 11.785045 H 7.3155416 Z"
     style="fill:#000000;stroke-width:0.200748"
     id="circle4" /></svg>
