<?xml version="1.0" encoding="UTF-8" standalone="no"?>
<svg
   xmlns:dc="http://purl.org/dc/elements/1.1/"
   xmlns:cc="http://creativecommons.org/ns#"
   xmlns:rdf="http://www.w3.org/1999/02/22-rdf-syntax-ns#"
   xmlns:svg="http://www.w3.org/2000/svg"
   xmlns="http://www.w3.org/2000/svg"
   id="svg8"
   version="1.1"
   y="0px"
   x="0px"
   viewBox="0 0 18 18"
   fill="#000000"
   width="18"
   height="18">
  <metadata
     id="metadata14">
    <rdf:RDF>
      <cc:Work
         rdf:about="">
        <dc:format>image/svg+xml</dc:format>
        <dc:type
           rdf:resource="http://purl.org/dc/dcmitype/StillImage" />
        <dc:title></dc:title>
      </cc:Work>
    </rdf:RDF>
  </metadata>
  <defs
     id="defs12" />
  <path
     style="stroke-width:0.250003"
     d="M 9.001953,3.8951365e-6 A 0.5025,0.50251351 0 0 1 9.2539062,0.0688535 L 17.753906,5.068988 A 0.500475,0.50048845 0 0 1 18,5.4996637 V 17.499986 A 0.499725,0.49973843 0 0 1 17.5,18 H 0.50000007 A 0.499725,0.49973843 0 0 1 7.5377486e-8,17.499986 V 5.4996637 A 0.500475,0.50048845 0 0 1 0.24609382,5.068988 L 8.7460937,0.0688535 A 0.5025,0.50251351 0 0 1 9.001953,3.8951365e-6 Z M 13.512695,6.9997039 a 0.4997,0.49971343 0 0 0 -0.0127,0 H 4.5000002 a 0.4997,0.49971343 0 0 0 -0.5,0.5000136 v 6.0001615 a 0.499725,0.49973843 0 0 0 0.5,0.500013 H 13.5 A 0.499725,0.49973843 0 0 0 14,13.499879 V 7.4997175 A 0.4997,0.49971343 0 0 0 13.512695,6.9997039 Z M 13,7.9992427 v 0.675311 L 9,10.452922 5,8.6745537 v -0.675311 z m 0,1.7700671 V 12.999865 H 5 V 9.7693098 l 3.796875,1.6875452 a 0.501525,0.50153848 0 0 0 0.40625,0 z"
     id="path2" />
</svg>
