<?xml version="1.0" encoding="UTF-8" standalone="no"?>
<svg
   xmlns:dc="http://purl.org/dc/elements/1.1/"
   xmlns:cc="http://creativecommons.org/ns#"
   xmlns:rdf="http://www.w3.org/1999/02/22-rdf-syntax-ns#"
   xmlns:svg="http://www.w3.org/2000/svg"
   xmlns="http://www.w3.org/2000/svg"
   height="18"
   width="18"
   fill="#000000"
   data-name="Layer 1"
   viewBox="0 0 18 18"
   x="0px"
   y="0px"
   version="1.1"
   id="svg10">
  <path
     id="path4"
     style="stroke-width:0.1875"
     d="M 6.0234375 0 A 2.985 2.985 0 0 0 3.1074219 2.25 L 0.75 2.25 A 0.75 0.75 0 0 0 0.75 3.75 L 3.1074219 3.75 A 2.985 2.985 0 0 0 8.8925781 3.75 L 17.25 3.75 A 0.75 0.75 0 0 0 17.25 2.25 L 8.8925781 2.25 A 2.985 2.985 0 0 0 6.0234375 0 z M 6 1.5 A 1.5 1.5 0 1 1 4.5 3 A 1.5 1.5 0 0 1 6 1.5 z M 12.023438 6 A 2.985 2.985 0 0 0 9.1074219 8.25 L 0.75 8.25 A 0.75 0.75 0 0 0 0.75 9.75 L 9.1074219 9.75 A 2.985 2.985 0 0 0 14.892578 9.75 L 17.25 9.75 A 0.75 0.75 0 0 0 17.25 8.25 L 14.892578 8.25 A 2.985 2.985 0 0 0 12.023438 6 z M 12 7.5 A 1.5 1.5 0 1 1 10.5 9 A 1.5 1.5 0 0 1 12 7.5 z M 6.0234375 12 A 2.985 2.985 0 0 0 3.1074219 14.25 L 0.75 14.25 A 0.75 0.75 0 0 0 0.75 15.75 L 3.1074219 15.75 A 2.985 2.985 0 0 0 8.8925781 15.75 L 17.25 15.75 A 0.75 0.75 0 0 0 17.25 14.25 L 8.8925781 14.25 A 2.985 2.985 0 0 0 6.0234375 12 z M 6 13.5 A 1.5 1.5 0 1 1 4.5 15 A 1.5 1.5 0 0 1 6 13.5 z " />
</svg>
