<?xml version="1.0" encoding="UTF-8" standalone="no"?>
<svg
   xmlns:dc="http://purl.org/dc/elements/1.1/"
   xmlns:cc="http://creativecommons.org/ns#"
   xmlns:rdf="http://www.w3.org/1999/02/22-rdf-syntax-ns#"
   xmlns:svg="http://www.w3.org/2000/svg"
   xmlns="http://www.w3.org/2000/svg"
   version="1.1"
   viewBox="0 0 18 18"
   id="svg34"
   width="18"
   height="18">
  <path
     id="path6"
     d="M 9.1525554,1.4851112e-6 C 9.0927024,-2.2074003e-4 9.0410386,0.02455483 8.9842955,0.03513575 c 0,0 -0.00251,-0.0025095 -0.00251,-0.0025095 C 8.4802066,-0.06154732 8.0011689,0.26670829 7.9069297,0.76793582 L 7.5176716,2.8358374 C 5.9154041,2.8899996 4.5085584,4.0391306 4.2001886,5.6792021 L 11.078755,6.9716406 C 11.365716,5.4454876 10.603795,3.9797861 9.31077,3.272506 l 0.2687137,-1.4279564 4.1160903,0.015058 4.294395,0.030115 0.005,-0.91098096 c 3.55e-4,-0.008835 0.0049,-0.0161977 0.005,-0.0250958 1.07e-4,-0.008934 -0.0049,-0.0162238 -0.005,-0.025096 l 0.005,-0.8808652 -0.851344,-0.0050192 c -0.02034,-0.0014091 -0.03703,-0.01247194 -0.05774,-0.0125489 L 13.695574,0.01756862 13.032579,0.01254944 v 0.0025096 z M 3.8184646,7.7471037 A 1.0999952,1.0992275 0 0 0 2.7611896,8.6430271 1.0999952,1.0992275 0 0 0 3.637648,9.9254273 1.0999952,1.0992275 0 0 0 4.9234552,9.0495805 1.0999952,1.0992275 0 0 0 4.0444855,7.7646708 1.0999952,1.0992275 0 0 0 3.8184646,7.7471037 Z M 10.217365,8.9015149 A 1.0999952,1.0992275 0 0 0 9.1600895,9.7974382 1.0999952,1.0992275 0 0 0 10.039059,11.079838 1.0999952,1.0992275 0 0 0 11.322355,10.201482 1.0999952,1.0992275 0 0 0 10.445897,8.9190819 1.0999952,1.0992275 0 0 0 10.217365,8.9015149 Z M 6.852166,8.9592356 A 1.0999952,1.0992275 0 0 0 5.7948909,9.8551589 1.0999952,1.0992275 0 0 0 6.6713493,11.140069 1.0999952,1.0992275 0 0 0 7.9571565,10.261712 1.0999952,1.0992275 0 0 0 7.0781868,8.979312 1.0999952,1.0992275 0 0 0 6.852166,8.9592356 Z M 2.4322037,10.88911 a 1.0999952,1.0992275 0 0 0 -1.057275,0.895923 1.0999952,1.0992275 0 0 0 0.8764584,1.2824 1.0999952,1.0992275 0 0 0 1.2858072,-0.878356 1.0999952,1.0992275 0 0 0 -0.8789697,-1.2824 1.0999952,1.0992275 0 0 0 -0.2260209,-0.01757 z m 3.8222629,1.422937 a 1.0999952,1.0992275 0 0 0 -1.057275,0.895923 1.0999952,1.0992275 0 0 0 0.8789697,1.2824 1.0999952,1.0992275 0 0 0 1.2832959,-0.875846 1.0999952,1.0992275 0 0 0 -0.8764584,-1.28491 1.0999952,1.0992275 0 0 0 -0.2285322,-0.01757 z m 3.9126714,0.01506 a 1.0999952,1.0992275 0 0 0 -1.0572754,0.895923 1.0999952,1.0992275 0 0 0 0.8764584,1.28491 1.0999952,1.0992275 0 0 0 1.283296,-0.878357 1.0999952,1.0992275 0 0 0 -0.876458,-1.2824 1.0999952,1.0992275 0 0 0 -0.226021,-0.02008 z M 1.076079,14.048683 A 1.0999952,1.0992275 0 0 0 0.01880393,14.944606 1.0999952,1.0992275 0 0 0 0.89526235,16.227007 1.0999952,1.0992275 0 0 0 2.1810695,15.35116 1.0999952,1.0992275 0 0 0 1.3020998,14.06625 1.0999952,1.0992275 0 0 0 1.076079,14.048685 Z m 4.470189,1.618685 A 1.0999952,1.0992275 0 0 0 4.488993,16.563291 1.0999952,1.0992275 0 0 0 5.3654514,17.8482 1.0999952,1.0992275 0 0 0 6.6512586,16.969845 1.0999952,1.0992275 0 0 0 5.7722889,15.687445 1.0999952,1.0992275 0 0 0 5.546268,15.667362 Z m 4.701233,0.135517 a 1.0999952,1.0992275 0 0 0 -1.0597867,0.895924 1.0999952,1.0992275 0 0 0 0.8789697,1.2824 1.0999952,1.0992275 0 0 0 1.283296,-0.875847 1.0999952,1.0992275 0 0 0 -0.876459,-1.28491 1.0999952,1.0992275 0 0 0 -0.22602,-0.01756 z" />
</svg>
