<?xml version="1.0" encoding="UTF-8" standalone="no"?>
<svg
   xmlns:dc="http://purl.org/dc/elements/1.1/"
   xmlns:cc="http://creativecommons.org/ns#"
   xmlns:rdf="http://www.w3.org/1999/02/22-rdf-syntax-ns#"
   xmlns:svg="http://www.w3.org/2000/svg"
   xmlns="http://www.w3.org/2000/svg"
   xmlns:sodipodi="http://sodipodi.sourceforge.net/DTD/sodipodi-0.dtd"
   xmlns:inkscape="http://www.inkscape.org/namespaces/inkscape"
   width="18"
   height="18"
   viewBox="0 0 18 18"
   version="1.1"
   id="svg1775"
   sodipodi:docname="status_no.svg"
   inkscape:version="1.0.1 (3bc2e813f5, 2020-09-07)">
  <sodipodi:namedview
     pagecolor="#ffffff"
     bordercolor="#666666"
     borderopacity="1"
     objecttolerance="10"
     gridtolerance="10"
     guidetolerance="10"
     inkscape:pageopacity="0"
     inkscape:pageshadow="2"
     inkscape:window-width="640"
     inkscape:window-height="480"
     id="namedview7"
     showgrid="false"
     inkscape:zoom="45.944444"
     inkscape:cx="9"
     inkscape:cy="9"
     inkscape:current-layer="svg1775" />
  <defs
     id="defs1769" />
  <metadata
     id="metadata1772">
    <rdf:RDF>
      <cc:Work
         rdf:about="">
        <dc:format>image/svg+xml</dc:format>
        <dc:type
           rdf:resource="http://purl.org/dc/dcmitype/StillImage" />
        <dc:title></dc:title>
      </cc:Work>
    </rdf:RDF>
  </metadata>
  <g
     id="layer1"
     transform="scale(3.7795275)">
    <path
       id="path1030-3-1"
       style="fill:#333333;fill-opacity:1;fill-rule:nonzero;stroke:none;stroke-width:0.0502143"
       d="M 2.5430798,1.256702e-5 C 2.320877,-0.00166704 2.1291809,0.16519926 2.1045376,0.39081666 2.0783058,0.63152111 2.2521129,0.84791845 2.4927672,0.87415441 2.7334761,0.90043677 2.9498689,0.72665261 2.9761054,0.48599827 3.0023418,0.24534406 2.8284801,0.02890104 2.5878758,0.00266052 2.5728314,0.00101791 2.5578933,1.2544262e-4 2.5430798,1.299404e-5 Z M 2.2111206,0.88040698 c -0.097291,-0.003439 -0.191653,0.0290041 -0.2691424,0.0877526 -0.013101,0.006827 -0.025614,0.0140276 -0.036778,0.0219196 l -0.00198,0.001395 L 1.0382725,1.7556494 C 0.9822247,1.7961254 0.9444049,1.8582841 0.93419054,1.926668 c -0.006419,0.04294 -0.00171,0.086728 0.0130195,0.1270316 L 0.8420197,1.9493988 a 0.14568426,0.14568426 0 0 0 -0.11003992,-0.042294 0.14568426,0.14568426 0 0 0 -0.0962116,0.043104 0.14568426,0.14568426 0 0 0 0.001103,0.2060309 L 1.0340016,2.5500591 C 0.86645214,2.779101 0.77752373,3.0671352 0.8040648,3.3713881 0.82701188,3.6344388 0.93296221,3.870558 1.0934352,4.056785 L 0.64636026,4.5076109 a 0.14568426,0.14568426 0 0 0 8.0978e-4,0.2060314 0.14568426,0.14568426 0 0 0 0.20603087,-8.541e-4 L 1.3087345,4.2534291 C 1.5360173,4.4159506 1.8198003,4.5016978 2.119324,4.475569 2.3519178,4.455279 2.5635027,4.3702327 2.7381525,4.2398946 L 3.2226671,4.7202909 A 0.14568426,0.14568426 0 0 0 3.4286246,4.7194369 0.14568426,0.14568426 0 0 0 3.4278132,4.5134055 L 2.9492564,4.0388945 C 3.0808808,3.879641 3.1721916,3.6870745 3.2093512,3.4778075 l 0.2848831,0.3160712 c 0.049055,0.054442 0.1190616,0.07982 0.187495,0.07385 0.04062,-0.00354 0.080807,-0.018208 0.1156304,-0.044281 L 4.078418,3.6129303 C 4.1782484,3.5381405 4.1985227,3.3966662 4.1237288,3.2967857 4.0489977,3.1970509 3.9074689,3.176731 3.8075838,3.2514749 L 3.6916592,3.3383446 3.0353174,2.6102852 C 3.0225863,2.590522 3.0094824,2.5710371 2.9956704,2.5521023 L 3.4172211,2.1270209 A 0.14568426,0.14568426 0 0 0 3.4164098,1.92099 0.14568426,0.14568426 0 0 0 3.31858,1.8787686 h -7.55e-5 A 0.14568426,0.14568426 0 0 0 3.2103766,1.9218728 L 2.7969907,2.3387894 C 2.6775997,2.2379323 2.5389786,2.1598578 2.3882387,2.110765 L 2.5966972,1.4387555 C 2.6588992,1.1955179 2.5245685,0.95108861 2.2965878,0.89274743 c -0.028497,-0.007286 -0.0571,-0.0113545 -0.085472,-0.012358 z m -0.6425871,1.12320352 -0.00279,0.010812 -0.00456,-0.00412 z M 2.028554,2.2971733 c 0.2229921,0.00323 0.4305477,0.083467 0.5948495,0.2166967 L 2.0224488,3.1198995 1.7052745,2.8053731 c 0.028289,0.010374 0.058517,0.016001 0.089739,0.015962 0.057406,-7.53e-5 0.1117644,-0.01874 0.157337,-0.053917 0.054544,-0.042109 0.08947,-0.1030482 0.098271,-0.1714597 0.00875,-0.068407 -0.00962,-0.1360674 -0.051784,-0.1906578 l -0.0025,-0.00331 -0.1073182,-0.096653 c 0.013454,-0.00174 0.026964,-0.00337 0.040603,-0.00456 0.03326,-0.0029 0.066242,-0.00408 0.098933,-0.0036 z M 1.2106088,2.7251968 1.8173007,3.3267397 1.2668059,3.8819422 C 1.1458842,3.7357607 1.0663352,3.5529273 1.0486381,3.350057 1.0286225,3.1206086 1.0908705,2.9027063 1.2106088,2.7251968 Z m 1.4599441,0.1548359 0.311069,0.3451257 C 2.991815,3.4643933 2.9131489,3.6888236 2.7740466,3.8651713 L 2.2292889,3.3249746 Z M 2.0242142,3.5318881 2.5613218,4.0645084 C 2.4280667,4.156205 2.2703155,4.2159339 2.097991,4.2309665 1.8733264,4.2505648 1.6597743,4.1912493 1.4843116,4.0763513 Z" />
  </g>
</svg>
