<?xml version="1.0" encoding="UTF-8" standalone="no"?>
<svg
   xmlns:dc="http://purl.org/dc/elements/1.1/"
   xmlns:cc="http://creativecommons.org/ns#"
   xmlns:rdf="http://www.w3.org/1999/02/22-rdf-syntax-ns#"
   xmlns:svg="http://www.w3.org/2000/svg"
   xmlns="http://www.w3.org/2000/svg"
   xmlns:sodipodi="http://sodipodi.sourceforge.net/DTD/sodipodi-0.dtd"
   xmlns:inkscape="http://www.inkscape.org/namespaces/inkscape"
   width="18"
   height="18"
   viewBox="0 0 18 18"
   version="1.1"
   id="svg1775"
   inkscape:version="1.0.1 (3bc2e813f5, 2020-09-07)"
   sodipodi:docname="status_yes.svg">
  <defs
     id="defs1769" />
  <sodipodi:namedview
     id="base"
     pagecolor="#ffffff"
     bordercolor="#666666"
     borderopacity="1.0"
     inkscape:pageopacity="0.0"
     inkscape:pageshadow="2"
     inkscape:zoom="22.4"
     inkscape:cx="6.6787217"
     inkscape:cy="9.6383544"
     inkscape:document-units="px"
     inkscape:current-layer="layer1"
     inkscape:document-rotation="0"
     showgrid="false"
     units="px" />
  <metadata
     id="metadata1772">
    <rdf:RDF>
      <cc:Work
         rdf:about="">
        <dc:format>image/svg+xml</dc:format>
        <dc:type
           rdf:resource="http://purl.org/dc/dcmitype/StillImage" />
        <dc:title></dc:title>
      </cc:Work>
    </rdf:RDF>
  </metadata>
  <g
     inkscape:label="Calque 1"
     inkscape:groupmode="layer"
     id="layer1">
    <path
       id="path1030-3-1-1"
       style="fill:#55bf35;fill-opacity:1;fill-rule:nonzero;stroke:none;stroke-width:0.202656"
       d="M 9.5414766,0.00241413 C 8.7199054,0.04980225 8.0160677,0.66995037 7.8931638,1.5159715 7.7529154,2.4830448 8.4242264,3.3794672 9.3910974,3.5197262 10.358181,3.6601773 11.254593,2.9906165 11.394852,2.0237456 11.535111,1.0568747 10.86554,0.16026042 9.8988715,0.01999092 9.777986,0.00243454 9.6588439,-0.00435561 9.5414766,0.00241413 Z M 8.2544646,3.5060554 C 7.8453929,3.4770429 7.4467903,3.6118939 7.1178318,3.8575913 7.0829825,3.875976 7.0357572,3.8840271 7.0045591,3.9044628 l -0.00781,0.00586 L 3.3974125,6.86713 C 3.1655604,7.022356 3.0050694,7.2685118 2.9540842,7.5428595 c -0.051628,0.2776276 0.013076,0.5672772 0.177721,0.7968147 l 0.00586,0.011718 0.9003226,0.9550059 c -1.1712693,0.9539679 -1.899888,2.4238409 -1.8162701,4.0446149 0.1392256,2.698627 2.4494225,4.781454 5.1480482,4.642228 2.2639477,-0.1168 4.0744651,-1.768531 4.5230951,-3.888378 l 1.119056,1.335836 c 0.190062,0.226603 0.469173,0.338479 0.746037,0.324195 0.16434,-0.0085 0.328435,-0.06193 0.472621,-0.162097 l 1.163974,-0.808533 c 0.413348,-0.28736 0.513915,-0.855885 0.226546,-1.269435 -0.287137,-0.412954 -0.853922,-0.515668 -1.267482,-0.228498 L 13.87318,13.630289 11.234708,10.485996 C 10.656872,9.5786519 9.8096219,8.865726 8.7915333,8.4939594 L 9.7289624,5.8125216 C 10.01465,4.84038 9.5073949,3.8345301 8.5962356,3.5665976 8.482342,3.5331315 8.3687557,3.5141612 8.2544646,3.5060554 Z m -2.753698,4.4371644 -0.011718,0.041013 -0.017577,-0.015624 z m 1.4139556,1.2499055 c 1.1077267,-0.05715 2.1270439,0.3615283 2.8767355,1.0682787 -0.00348,0.0049 -0.00734,0.0094 -0.011718,0.01367 0.5360983,0.498008 0.9347293,1.14417 1.1268683,1.878764 0.05964,0.239678 0.102033,0.486429 0.115225,0.742131 0.111076,2.152991 -1.5518068,3.996037 -3.7047977,4.107111 -2.152991,0.111078 -3.9940824,-1.549852 -4.105158,-3.702843 -0.068048,-1.31899 0.5341121,-2.5161 1.5018395,-3.275142 l 0.779238,0.826108 c 0.1902954,0.258654 0.4830306,0.412791 0.8046267,0.423797 0.2315416,0.0079 0.4536883,-0.05994 0.6425295,-0.195298 0.2260197,-0.16203 0.3746033,-0.40302 0.41989,-0.677684 C 7.4050874,10.127366 7.3425699,9.8509435 7.1803271,9.6247332 L 7.1705622,9.6110624 6.76239,9.216561 C 6.814257,9.211821 6.862253,9.195833 6.9147222,9.1931253 Z" />
  </g>
</svg>
