<?xml version="1.0" encoding="UTF-8" standalone="no"?>
<svg
   xmlns:dc="http://purl.org/dc/elements/1.1/"
   xmlns:cc="http://creativecommons.org/ns#"
   xmlns:rdf="http://www.w3.org/1999/02/22-rdf-syntax-ns#"
   xmlns:svg="http://www.w3.org/2000/svg"
   xmlns="http://www.w3.org/2000/svg"
   xmlns:sodipodi="http://sodipodi.sourceforge.net/DTD/sodipodi-0.dtd"
   xmlns:inkscape="http://www.inkscape.org/namespaces/inkscape"
   width="18"
   height="18"
   viewBox="0 0 18 18"
   version="1.1"
   id="svg1775"
   inkscape:version="1.0.1 (3bc2e813f5, 2020-09-07)"
   sodipodi:docname="status_limited.svg">
  <defs
     id="defs1769" />
  <sodipodi:namedview
     id="base"
     pagecolor="#ffffff"
     bordercolor="#666666"
     borderopacity="1.0"
     inkscape:pageopacity="0.0"
     inkscape:pageshadow="2"
     inkscape:zoom="31.678384"
     inkscape:cx="9.078841"
     inkscape:cy="11.483414"
     inkscape:document-units="px"
     inkscape:current-layer="layer1"
     inkscape:document-rotation="0"
     showgrid="false"
     units="px" />
  <metadata
     id="metadata1772">
    <rdf:RDF>
      <cc:Work
         rdf:about="">
        <dc:format>image/svg+xml</dc:format>
        <dc:type
           rdf:resource="http://purl.org/dc/dcmitype/StillImage" />
        <dc:title></dc:title>
      </cc:Work>
    </rdf:RDF>
  </metadata>
  <g
     inkscape:label="Calque 1"
     inkscape:groupmode="layer"
     id="layer1">
    <path
       id="path1014-6"
       style="fill:#f78f15;fill-opacity:1;fill-rule:nonzero;stroke:none;stroke-width:0.168726"
       d="m 4.2788079,1.3518667 c -0.8269275,0 -1.4980478,0.6860295 -1.4980478,1.5332042 0,0.5524099 0.2304621,1.0132677 0.7148443,1.3027355 0,0 -0.5026658,0.017424 -0.4492191,3.1250019 L 2.9858383,8.7034343 2.2866191,11.67414 0.15966451,14.721017 c -0.27401149,0.393469 -0.18641777,0.940112 0.19726577,1.220704 0.3838523,0.281435 0.91705812,0.189502 1.19140702,-0.203127 l 2.2226579,-3.185547 c 0.064116,-0.09027 0.1109035,-0.193229 0.1367188,-0.302733 l 0.4101565,-1.740237 1.095704,1.666018 0.480469,3.187502 c 0.065295,0.432277 0.4275744,0.742187 0.8417973,0.742187 0.043192,0 0.088777,-0.005 0.1328127,-0.01172 0.457014,-0.07246 0.7667091,-0.504232 0.710938,-0.970707 0.9424795,1.162183 2.4810165,1.772869 4.0390655,1.429688 1.843241,-0.405998 3.103568,-2.008202 3.181642,-3.810549 l 1.101564,0.941406 c 0.187121,0.160064 0.43279,0.215668 0.658204,0.166016 0.133795,-0.02948 0.260545,-0.09721 0.365235,-0.199219 l 0.845702,-0.822266 c 0.300091,-0.2926 0.306309,-0.773958 0.01368,-1.074219 -0.292365,-0.2998 -0.773921,-0.306146 -1.074219,-0.01368 L 16.362801,12.08039 13.771002,9.8655443 C 13.171827,9.1966199 12.375122,8.7253439 11.485844,8.5589028 L 11.888188,6.2288232 C 11.989657,5.3913409 11.434876,4.6346092 10.649906,4.5393688 10.201713,4.4850815 9.7804751,4.6625494 9.4780302,4.9768691 c -0.027288,0.020598 -0.066108,0.034734 -0.089843,0.05664 l -0.00586,0.00586 L 7.8178731,6.8342922 6.519044,6.3030418 4.9545898,4.2464 c 0.485088,-0.2535951 0.820313,-0.7638693 0.820313,-1.3613291 0,-0.8471747 -0.6695048,-1.5332042 -1.4960949,-1.5332042 z m 6.9550831,0.095703 C 10.420454,1.4646811 9.775409,2.1382053 9.7924838,2.9514772 9.8097596,3.7648776 10.483155,4.410124 11.296391,4.3928844 12.109827,4.3757734 12.755038,3.7022127 12.737798,2.8889772 12.720559,2.0757416 12.046961,1.4303666 11.233891,1.4475701 Z M 5.3139649,7.5647613 c 0.092799,0.1219881 0.2170433,0.2183623 0.3574227,0.2753917 l 0.9687506,0.3964848 c -0.04828,0.106613 -0.077889,0.2213217 -0.080077,0.339844 -0.00438,0.2350679 0.089193,0.4649223 0.2558591,0.6308599 l 0.00782,0.00782 0.8691412,0.6601566 C 7.3315477,10.285317 7.0586641,10.763625 6.8842785,11.283514 L 5.2612307,8.8147623 Z m 3.3925804,0.9941415 -0.00389,0.03515 -0.015609,-0.011717 z m 1.9882827,0.75586 c 0.672877,-0.00971 1.31438,0.1954735 1.853517,0.5566409 -0.0022,0.00472 -0.0046,0.00934 -0.0078,0.013682 0.509028,0.3356903 0.926906,0.8129383 1.185547,1.3906253 0.08139,0.188062 0.14767,0.386313 0.193361,0.593751 0.386108,1.752882 -0.725615,3.492802 -2.478507,3.878899 C 9.6880304,16.134459 7.9481108,15.022736 7.5620133,13.269844 7.3254177,12.195693 7.65604,11.129282 8.3471702,10.373357 l 0.7519538,0.572266 c 0.1917016,0.186354 0.4531362,0.273279 0.7187503,0.238281 0.1912367,-0.02517 0.3654127,-0.111028 0.5019527,-0.248047 0.163423,-0.16402 0.252382,-0.38347 0.251955,-0.615234 -5.94e-4,-0.231727 -0.09164,-0.4477771 -0.255859,-0.6113287 l -0.0098,-0.00975 -0.3886237,-0.2675806 c 0.042414,-0.01115 0.079842,-0.031484 0.1230467,-0.041015 0.21911,-0.048261 0.438201,-0.073047 0.654296,-0.076173 z" />
  </g>
</svg>
