<?xml version="1.0" encoding="UTF-8" standalone="no"?>
<svg
   xmlns:dc="http://purl.org/dc/elements/1.1/"
   xmlns:cc="http://creativecommons.org/ns#"
   xmlns:rdf="http://www.w3.org/1999/02/22-rdf-syntax-ns#"
   xmlns:svg="http://www.w3.org/2000/svg"
   xmlns="http://www.w3.org/2000/svg"
   id="svg6"
   xml:space="preserve"
   enable-background="new 0 0 140 140"
   viewBox="0 0 18 18"
   y="0px"
   x="0px"
   version="1.1"
   fill="#000000"
   width="18"
   height="18"><metadata
     id="metadata12"><rdf:RDF><cc:Work
         rdf:about=""><dc:format>image/svg+xml</dc:format><dc:type
           rdf:resource="http://purl.org/dc/dcmitype/StillImage" /><dc:title></dc:title></cc:Work></rdf:RDF></metadata><defs
     id="defs10" /><path
     style="stroke-width:0.137392"
     d="m 12.948955,0.72344905 c -0.05683,-6.8284e-4 -0.113929,0 -0.171204,0.002147 C 11.012247,0.79291671 9.5753301,2.3221938 9.5753301,4.1330319 v 0.740362 H 4.5261635 V 4.1150527 c 0,-1.1362372 0.8600436,-2.0801714 1.9591819,-2.1502428 0.5138457,-0.032973 1.0180311,0.1238408 1.4206146,0.4384745 0.18821,0.1470024 0.4369318,0.1744573 0.6512718,0.070038 0.2143065,-0.1044195 0.3475059,-0.317485 0.3475059,-0.5565462 0,-0.1923525 -0.08795,-0.3709858 -0.2404365,-0.4905333 C 8.0364089,0.93575976 7.2492209,0.68844691 6.4523389,0.72827926 4.678583,0.81621226 3.2896329,2.3071163 3.2896329,4.120688 V 14.444162 C 3.1755866,14.389218 3.0793515,14.312254 2.9721815,14.227071 2.7399965,14.04022 2.4762142,13.83019 1.9650854,13.83019 c -0.5124707,0 -0.7762531,0.21003 -1.00843796,0.396881 -0.21433997,0.17174 -0.38346399,0.30645 -0.75029065,0.30645 -0.11404633,0 -0.20608843538,0.09204 -0.20608843538,0.206088 0,0.11403 0.0920421054,0.206088 0.20608843538,0.206088 0.51109527,0 0.77487783,-0.21028 1.00709621,-0.397148 0.2143065,-0.171741 0.3834304,-0.306182 0.7516324,-0.306182 0.3668602,0 0.5356822,0.134441 0.7500223,0.306182 0.1854593,0.148394 0.3917155,0.310659 0.725603,0.371119 0.013719,0.0041 0.028914,0.0067 0.044008,0.0067 0.074197,0.011 0.1509101,0.01932 0.2388264,0.01932 0.5110952,0 0.7749112,-0.21028 1.0070962,-0.397149 0.2143399,-0.17174 0.3834306,-0.306181 0.7516324,-0.306181 0.3668267,0 0.5359508,0.134441 0.7502908,0.306181 0.232185,0.186869 0.4959675,0.397149 1.0084379,0.397149 0.5110954,0 0.7748778,-0.21028 1.0070962,-0.397149 0.2143066,-0.17174 0.3831621,-0.306181 0.7500223,-0.306181 0.368202,0 0.537326,0.134441 0.7502908,0.306181 0.2335602,0.186869 0.4973093,0.397149 1.0084383,0.397149 0.51247,0 0.776253,-0.21028 1.008437,-0.397149 0.21434,-0.17174 0.383196,-0.306181 0.750022,-0.306181 0.368236,0 0.537293,0.134441 0.751633,0.306181 0.232184,0.186869 0.495967,0.397149 1.008438,0.397149 0.511094,0 0.774912,-0.21028 1.007097,-0.397149 0.21434,-0.17174 0.38343,-0.306181 0.751632,-0.306181 0.366826,0 0.537024,0.134441 0.751364,0.306181 0.232185,0.186869 0.495967,0.397149 1.008438,0.397149 0.112671,0 0.206089,-0.09206 0.206089,-0.206088 0,-0.114047 -0.09342,-0.206089 -0.206089,-0.206089 -0.368202,0 -0.537057,-0.134709 -0.751365,-0.306449 -0.232216,-0.186852 -0.495966,-0.396881 -1.008437,-0.396881 -0.512472,0 -0.776253,0.210029 -1.008438,0.396881 -0.21434,0.17174 -0.383464,0.306449 -0.750291,0.306449 -0.368203,0 -0.537293,-0.134709 -0.751633,-0.306449 -0.232186,-0.186852 -0.495967,-0.396881 -1.008438,-0.396881 -0.51247,0 -0.774877,0.210029 -1.008438,0.396881 -0.201962,0.162129 -0.366624,0.290013 -0.695011,0.303766 V 4.0560171 c 0,-1.1362371 0.924647,-2.0760122 2.060884,-2.0952324 0.541317,-0.011002 1.070123,0.2032374 1.472674,0.6002862 0.417678,0.4094265 0.656907,0.9769073 0.656907,1.5553236 v 0.03569 c 0,0.164864 0.06437,0.3201179 0.17979,0.4355228 0.114046,0.1167969 0.27361,0.1827425 0.438475,0.1827425 0.34073,0 0.618265,-0.2775351 0.618265,-0.6182653 v -0.096067 c 0,-0.9136791 -0.362935,-1.7655882 -1.022391,-2.4003399 C 14.599482,1.0605975 13.801396,0.73369665 12.948955,0.72344905 Z M 4.5261635,5.9725322 H 9.5753301 V 8.1751023 H 4.5261635 Z m 0,3.3017084 H 9.5753301 V 11.4752 H 4.5261635 Z m 0,3.3000974 h 5.0491666 v 1.371239 C 9.4228435,13.876877 9.2385579,13.83019 8.9981214,13.83019 c -0.5110952,0 -0.7749112,0.210029 -1.0070962,0.396881 -0.2143399,0.17174 -0.3831956,0.30645 -0.7500223,0.30645 -0.3682018,0 -0.5372924,-0.13471 -0.7516325,-0.30645 -0.232185,-0.186852 -0.4960009,-0.396881 -1.0070962,-0.396881 -0.4753718,0 -0.734928,0.181333 -0.9561107,0.355824 z m -2.5616148,3.58669 c -0.5118666,0 -0.7756492,0.210921 -1.00816958,0.396883 C 0.74237458,16.729249 0.57345181,16.864628 0.20608843,16.864628 0.09231044,16.864628 0,16.956938 0,17.070716 c 0,0.113778 0.09231044,0.206089 0.20608843,0.206089 0.51186677,0 0.77538099,-0.210919 1.00790127,-0.396881 0.2140046,-0.171338 0.3831957,-0.306719 0.750559,-0.306719 0.3674976,0 0.5366885,0.135381 0.7508273,0.306719 0.2325204,0.186096 0.4959004,0.396881 1.0079013,0.396881 0.5118668,0 0.7756494,-0.210919 1.0081696,-0.396881 0.2140047,-0.171338 0.3829272,-0.306719 0.7502907,-0.306719 0.3673633,0 0.5365545,0.135381 0.7505591,0.306719 0.2326546,0.185962 0.4961684,0.396881 1.0081695,0.396881 0.5118667,0 0.7753809,-0.210919 1.0079013,-0.396881 0.2140045,-0.171338 0.3830613,-0.306719 0.7502906,-0.306719 0.3672291,0 0.5362862,0.135381 0.7502908,0.306719 0.2325203,0.185962 0.4960341,0.396881 1.0079011,0.396881 0.512001,0 0.775515,-0.210919 1.00817,-0.396881 0.214004,-0.171338 0.383195,-0.306719 0.750559,-0.306719 0.367497,0 0.536823,0.135381 0.751096,0.306719 0.232521,0.186096 0.496034,0.396881 1.008169,0.396881 0.512001,0 0.775515,-0.210919 1.00817,-0.396881 0.214005,-0.171338 0.383195,-0.306719 0.750559,-0.306719 0.367766,0 0.537091,0.135514 0.751364,0.306719 0.232655,0.186096 0.496571,0.396881 1.008707,0.396881 0.113778,0 0.206088,-0.09231 0.206088,-0.206089 0,-0.113778 -0.09231,-0.206088 -0.206088,-0.206088 -0.367632,0 -0.537092,-0.135379 -0.751364,-0.306717 -0.232655,-0.186097 -0.496437,-0.396883 -1.008707,-0.396883 -0.512001,0 -0.775515,0.210921 -1.00817,0.396883 -0.214005,0.171338 -0.383195,0.306717 -0.750559,0.306717 -0.367496,0 -0.536555,-0.135379 -0.750828,-0.306717 -0.23252,-0.186097 -0.496302,-0.396883 -1.008437,-0.396883 -0.512001,0 -0.775515,0.210921 -1.00817,0.396883 -0.214004,0.171338 -0.383196,0.306717 -0.750559,0.306717 -0.367229,0 -0.536286,-0.135379 -0.750291,-0.306717 -0.23252,-0.185962 -0.4960341,-0.396883 -1.0079009,-0.396883 -0.5118668,0 -0.7753808,0.210921 -1.0079012,0.396883 -0.2140045,0.171338 -0.3830616,0.306717 -0.7502907,0.306717 -0.3673634,0 -0.5365544,-0.135379 -0.750559,-0.306717 -0.2326545,-0.185962 -0.4961686,-0.396883 -1.0081696,-0.396883 -0.5118667,0 -0.7753808,0.210921 -1.0079012,0.396883 -0.2140046,0.171338 -0.3831958,0.306717 -0.7505591,0.306717 -0.3673634,0 -0.5365545,-0.135379 -0.7505591,-0.306717 C 2.7400636,16.371949 2.4765497,16.161028 1.9645487,16.161028 Z"
     id="path2" /></svg>
