<?xml version="1.0" encoding="UTF-8" standalone="no"?>
<svg
   xmlns:dc="http://purl.org/dc/elements/1.1/"
   xmlns:cc="http://creativecommons.org/ns#"
   xmlns:rdf="http://www.w3.org/1999/02/22-rdf-syntax-ns#"
   xmlns:svg="http://www.w3.org/2000/svg"
   xmlns="http://www.w3.org/2000/svg"
   id="svg2"
   viewBox="0 0 18 18"
   height="18"
   width="18"
   version="1.1">
  <metadata
     id="metadata8">
    <rdf:RDF>
      <cc:Work
         rdf:about="">
        <dc:format>image/svg+xml</dc:format>
        <dc:type
           rdf:resource="http://purl.org/dc/dcmitype/StillImage" />
        <dc:title></dc:title>
      </cc:Work>
    </rdf:RDF>
  </metadata>
  <defs
     id="defs6" />
  <path
     style="stroke-width:1.28571"
     id="taxi"
     d="M 7.6741071,0 C 6.980697,0 6.4285714,0.62697497 6.4285714,1.2857143 l -0.040178,1.2857143 h -2.53125 L 2.25,7.7142857 C 1.2724676,7.7142857 0,8.3528176 0,10.285714 v 5.142857 h 2.5714286 v 1.285715 c 0,0 0,1.285714 1.2857143,1.285714 1.2857142,0 1.2857142,-1.285714 1.2857142,-1.285714 v -1.285715 l 7.7142859,-0.04018 v 1.325893 c 0,0 0,1.285714 1.285714,1.285714 1.285714,0 1.285714,-1.285714 1.285714,-1.285714 V 15.428571 H 18 V 10.285714 C 18,8.3219993 16.714286,7.7142857 15.428571,7.7142857 L 14.142857,2.5714286 H 11.571429 V 1.2857143 C 11.571429,0.55763396 11.013795,0 10.285714,0 Z m 0.040179,1.2857143 H 10.285714 V 2.5714286 H 7.7142857 Z M 5.1428571,4.5 h 7.7142859 l 0.763393,3.2142857 H 4.2589286 Z m -1.2857142,5.785714 c 0.7100807,0 1.2857142,0.575634 1.2857142,1.285715 0,0.71008 -0.5756335,1.285714 -1.2857142,1.285714 -0.7100808,0 -1.2857143,-0.575634 -1.2857143,-1.285714 0,-0.710081 0.5756335,-1.285715 1.2857143,-1.285715 z m 10.2857141,0 c 0.710081,0 1.285714,0.575634 1.285714,1.285715 0,0.71008 -0.575633,1.285714 -1.285714,1.285714 -0.710081,0 -1.285714,-0.575634 -1.285714,-1.285714 0,-0.710081 0.575633,-1.285715 1.285714,-1.285715 z" />
</svg>
