<?xml version="1.0" encoding="UTF-8" standalone="no"?>
<svg
   xmlns:dc="http://purl.org/dc/elements/1.1/"
   xmlns:cc="http://creativecommons.org/ns#"
   xmlns:rdf="http://www.w3.org/1999/02/22-rdf-syntax-ns#"
   xmlns:svg="http://www.w3.org/2000/svg"
   xmlns="http://www.w3.org/2000/svg"
   id="svg2"
   viewBox="0 0 18 18"
   height="18"
   width="18"
   version="1.1">
  <metadata
     id="metadata8">
    <rdf:RDF>
      <cc:Work
         rdf:about="">
        <dc:format>image/svg+xml</dc:format>
        <dc:type
           rdf:resource="http://purl.org/dc/dcmitype/StillImage" />
        <dc:title></dc:title>
      </cc:Work>
    </rdf:RDF>
  </metadata>
  <defs
     id="defs6" />
  <path
     style="stroke-width:1.28571"
     id="theatre"
     d="m 0,0 v 9 c 0,0 0,5.142857 5.1428571,5.142857 0.6270352,0 1.1638659,-0.106817 1.6473215,-0.241071 C 6.7151083,13.280412 6.75,12.857143 6.75,12.857143 v -0.28125 C 6.3089859,12.748087 5.7728739,12.857143 5.1428571,12.857143 1.2857143,12.857143 1.2857143,9 1.2857143,9 V 1.9285714 c 2.5714286,1.2240778 5.1428571,1.2240778 7.7142857,0 v 1.4866072 c 0.4300534,0.1711662 0.8699554,0.3310692 1.285714,0.4419643 V 0 C 6.4285714,1.7651332 3.8571429,1.677966 0,0 Z m 3.2142857,3.8571429 c -0.7100807,0 -1.2857143,0.5756339 -1.2857143,1.2857142 0,0.7100804 0.5756336,1.2857143 1.2857143,1.2857143 C 3.9243664,6.4285714 4.5,5.8529375 4.5,5.1428571 4.5,4.4327768 3.9243664,3.8571429 3.2142857,3.8571429 Z m 4.5,0 v 9.0000001 c 0,0 0,5.142857 5.1428573,5.142857 C 18,18 18,12.857143 18,12.857143 V 3.8571429 c -3.857143,1.7651332 -6.428571,1.677966 -10.2857143,0 z m 3.2142853,3.8571428 c 0.710081,0 1.285715,0.575634 1.285715,1.2857143 0,0.7100807 -0.575634,1.285714 -1.285715,1.285714 -0.71008,0 -1.2857139,-0.5756333 -1.2857139,-1.285714 0,-0.7100803 0.5756339,-1.2857143 1.2857139,-1.2857143 z m 3.857143,0 c 0.710081,0 1.285715,0.575634 1.285715,1.2857143 0,0.7100807 -0.575634,1.285714 -1.285715,1.285714 C 14.075634,10.285714 13.5,9.7100807 13.5,9 13.5,8.2899197 14.075634,7.7142857 14.785714,7.7142857 Z M 5.1428571,8.3571429 c -1.8800228,0 -2.5714285,1.3075058 -2.5714285,2.5714281 H 6.75 V 8.7991071 C 6.3587584,8.5142532 5.8447003,8.3571429 5.1428571,8.3571429 Z m 5.1428569,4.5000001 h 5.142857 c 0,1.285714 -1.285714,2.571428 -2.571428,2.571428 -1.285714,0 -2.571429,-1.285714 -2.571429,-2.571428 z" />
</svg>
