<?xml version="1.0" encoding="UTF-8" standalone="no"?>
<svg
   xmlns:dc="http://purl.org/dc/elements/1.1/"
   xmlns:cc="http://creativecommons.org/ns#"
   xmlns:rdf="http://www.w3.org/1999/02/22-rdf-syntax-ns#"
   xmlns:svg="http://www.w3.org/2000/svg"
   xmlns="http://www.w3.org/2000/svg"
   id="svg4"
   xml:space="preserve"
   enable-background="new 0 0 100 100"
   viewBox="0 0 18 18"
   y="0px"
   x="0px"
   version="1.1"
   fill="#000000"
   width="18"
   height="18"><metadata
     id="metadata10"><rdf:RDF><cc:Work
         rdf:about=""><dc:format>image/svg+xml</dc:format><dc:type
           rdf:resource="http://purl.org/dc/dcmitype/StillImage" /><dc:title></dc:title></cc:Work></rdf:RDF></metadata><defs
     id="defs8" /><path
     style="stroke-width:0.20683"
     id="path2"
     d="M 16.114454,6.76272 C 15.937615,5.9734568 15.633781,5.2315577 15.223224,4.5612217 15.586004,3.9353541 15.508856,3.1214781 14.981026,2.575447 14.452575,2.0290022 13.640975,1.9247598 13.002904,2.2674771 12.282722,1.7925955 11.473603,1.4426392 10.606572,1.2467712 10.422287,0.53031208 9.7742885,0 8.999917,0 8.226166,0 7.577754,0.53010525 7.3934685,1.2465643 6.499963,1.4484304 5.6670586,1.812658 4.930537,2.3098773 4.2568918,1.8800846 3.3530447,1.986602 2.8024633,2.6015076 2.2690488,3.1971779 2.2450565,4.0714483 2.700703,4.6913177 2.3290295,5.3271131 2.0512568,6.0237165 1.885586,6.7625132 1.1904304,6.9606563 0.68059445,7.5993473 0.68059445,8.3584134 c 0,0.7586524 0.50983595,1.3969297 1.20499155,1.5952797 0.1768396,0.7892629 0.4806729,1.5309559 0.8912304,2.2017049 -0.362573,0.625661 -0.2854254,1.439744 0.2426116,1.985982 0.5282438,0.546238 1.3400515,0.65048 1.9779151,0.307763 0.1367147,0.09018 0.2769454,0.175805 0.4198649,0.256469 l -1.268902,2.626534 c -0.069702,0.14416 -0.060188,0.314382 0.02482,0.450062 C 4.2583396,17.917475 4.4072572,18 4.5673436,18 H 13.43249 c 0.0017,0 0.0031,0 0.0041,0 0.257089,0 0.465367,-0.208485 0.465367,-0.465367 0,-0.09369 -0.02771,-0.180977 -0.07529,-0.254195 l -1.243876,-2.574826 c 0.288528,-0.163603 0.56506,-0.345406 0.827527,-0.545411 0.614699,0.215724 1.325367,0.05688 1.787011,-0.458542 0.479018,-0.535276 0.545825,-1.294342 0.224824,-1.89208 0.311073,-0.576436 0.545411,-1.199821 0.692467,-1.8558859 0.695156,-0.19835 1.204785,-0.8366273 1.204785,-1.5952797 C 17.319653,7.5995542 16.809817,6.96107 16.114454,6.76272 Z M 12.691211,17.069472 H 5.3094496 L 6.2548694,15.11224 c 0.3727077,0.151813 0.7605139,0.273429 1.1605231,0.36278 0.2111734,0.674265 0.8407639,1.163832 1.5847313,1.163832 0.7443812,0 1.3739712,-0.489567 1.5849382,-1.163832 0.400216,-0.08935 0.788229,-0.210967 1.160523,-0.36278 z M 8.3537801,8.3584134 c 0,-0.3565749 0.2899757,-0.6465506 0.6463437,-0.6465506 0.3565749,0 0.6465506,0.2899757 0.6465506,0.6465506 0,0.069081 -0.013651,0.1346463 -0.03392,0.1973158 -0.083973,0.2597785 -0.3253436,0.4494415 -0.6126305,0.4494415 -0.2868731,0 -0.5280369,-0.1892494 -0.6122167,-0.4486142 -0.020269,-0.062876 -0.034127,-0.1286482 -0.034127,-0.1981431 z m 0.6463437,1.5772855 c 0.080457,0 0.1588455,-0.00765 0.2359931,-0.019442 L 11.339991,14.27189 c -0.241784,0.09617 -0.48998,0.178907 -0.745415,0.2453 -0.200004,-0.692467 -0.8372476,-1.199821 -1.5944522,-1.199821 -0.7567909,0 -1.3942409,0.507354 -1.5942455,1.199821 C 7.1506501,14.45142 6.9024541,14.368065 6.6606699,14.27189 L 8.7647513,9.9164637 c 0.076941,0.011582 0.1551225,0.019235 0.2353725,0.019235 z m 5.7285692,1.1878241 c -0.657512,-0.343751 -1.487728,-0.21531 -2.005423,0.36278 -0.534862,0.597532 -0.557614,1.475319 -0.09804,2.095395 -0.144781,0.100933 -0.294526,0.195454 -0.447787,0.284391 L 10.073778,9.5108701 c 0.309004,-0.2885279 0.503631,-0.6976376 0.503631,-1.1522499 0,-0.8697201 -0.7075651,-1.5772855 -1.5772852,-1.5772855 -0.8695132,0 -1.5770786,0.7075654 -1.5770786,1.5772855 0,0.455026 0.194627,0.8643425 0.5040447,1.1522499 L 5.8232153,13.865882 C 5.7731624,13.836719 5.7229027,13.808177 5.6734704,13.777773 6.0095691,13.157696 5.923321,12.366779 5.4070733,11.83233 4.8908257,11.298708 4.1034239,11.185572 3.4721788,11.500575 3.1962676,11.016592 2.9803371,10.49476 2.8384517,9.9429379 3.5129243,9.7317645 4.0022841,9.1023808 4.0022841,8.3584134 4.0022841,7.6142391 3.5129243,6.9846486 2.8386586,6.7734752 2.9764073,6.2379924 3.1834442,5.7304316 3.447566,5.259066 4.0717789,5.4973342 4.8047844,5.3446937 5.2771841,4.8172772 5.7313828,4.3097164 5.8157694,3.6004964 5.5495792,3.01827 6.1202231,2.6482511 6.7525024,2.366135 7.4288364,2.1936388 c 0.2221354,0.6552374 0.8409708,1.1276371 1.5714943,1.1276371 0.7305235,0 1.3493583,-0.4721928 1.5717013,-1.1276371 0.627315,0.1600864 1.217607,0.41366 1.755158,0.7450016 -0.336305,0.6202832 -0.250057,1.411201 0.266604,1.9454429 0.516248,0.5338282 1.30365,0.6465505 1.934688,0.3317553 0.275911,0.4835685 0.491842,1.0058142 0.633727,1.5576366 -0.674266,0.2111734 -1.163832,0.8407639 -1.163832,1.585145 0,0.7439675 0.489566,1.3731443 1.164039,1.5845245 -0.106104,0.4107643 -0.252126,0.8058093 -0.433723,1.1803783 z" /></svg>
