<?xml version="1.0" encoding="UTF-8" standalone="no"?>
<svg
   xmlns:dc="http://purl.org/dc/elements/1.1/"
   xmlns:cc="http://creativecommons.org/ns#"
   xmlns:rdf="http://www.w3.org/1999/02/22-rdf-syntax-ns#"
   xmlns:svg="http://www.w3.org/2000/svg"
   xmlns="http://www.w3.org/2000/svg"
   id="svg3"
   viewBox="0 0 18 18"
   height="18"
   width="18"
   version="1.1">
  <metadata
     id="metadata9">
    <rdf:RDF>
      <cc:Work
         rdf:about="">
        <dc:format>image/svg+xml</dc:format>
        <dc:type
           rdf:resource="http://purl.org/dc/dcmitype/StillImage" />
        <dc:title></dc:title>
      </cc:Work>
    </rdf:RDF>
  </metadata>
  <defs
     id="defs7" />
  <path
     style="stroke-width:1.28571"
     id="toilets"
     d="M 8.0357143,0 V 18 H 9.9642857 V 0 Z M 3.2142857,1.2857143 c -1.0651204,0 -1.9285714,0.8634509 -1.9285714,1.9285714 0,1.0651206 0.863451,1.9285714 1.9285714,1.9285714 1.0651204,0 1.9285714,-0.8634508 1.9285714,-1.9285714 0,-1.0651205 -0.863451,-1.9285714 -1.9285714,-1.9285714 z m 11.5714283,0 c -1.06512,0 -1.928571,0.8634509 -1.928571,1.9285714 0,1.0651206 0.863451,1.9285714 1.928571,1.9285714 1.065121,0 1.928572,-0.8634508 1.928572,-1.9285714 0,-1.0651205 -0.863451,-1.9285714 -1.928572,-1.9285714 z M 1.9285714,6.4285714 c -0.7710711,0 -1.28571426,0.7309865 -1.28571426,1.2857143 C 0.64285714,8.3922864 2.25,9.638532 2.25,10.285714 2.25,11.000538 0,11.571429 0,14.142857 H 2.25 V 18 h 1.9285714 v -3.857143 h 2.25 c 0,-2.571428 -2.25,-3.176345 -2.25,-3.857143 0,-0.6807957 1.6071429,-1.8626094 1.6071429,-2.5714283 C 5.7857143,7.190376 5.2396367,6.4285714 4.5,6.4285714 Z m 10.9285716,0 c -0.678001,0 -1.285714,0.617747 -1.285714,1.2857143 0,1.2857143 2.25,5.1635223 2.25,6.4285713 V 18 H 15.75 V 14.142857 C 15.75,12.902841 18,9 18,7.7142857 18,7.002792 17.423105,6.4285714 16.714286,6.4285714 Z" />
</svg>
