<?xml version="1.0" encoding="UTF-8" standalone="no"?>
<svg
   xmlns:dc="http://purl.org/dc/elements/1.1/"
   xmlns:cc="http://creativecommons.org/ns#"
   xmlns:rdf="http://www.w3.org/1999/02/22-rdf-syntax-ns#"
   xmlns:svg="http://www.w3.org/2000/svg"
   xmlns="http://www.w3.org/2000/svg"
   id="svg4"
   xml:space="preserve"
   viewBox="0 0 18 18"
   y="0px"
   x="0px"
   version="1.1"
   fill="#000000"
   width="18px"
   height="18px"><metadata
     id="metadata10"><rdf:RDF><cc:Work
         rdf:about=""><dc:format>image/svg+xml</dc:format><dc:type
           rdf:resource="http://purl.org/dc/dcmitype/StillImage" /><dc:title></dc:title></cc:Work></rdf:RDF></metadata><defs
     id="defs8" /><path
     style="stroke-width:0.279799"
     id="path2"
     d="m 17.914382,15.881584 c 0.0084,-0.01119 0.01651,-0.02266 0.0235,-0.03469 0.007,-0.01147 0.01343,-0.02322 0.01903,-0.03497 0.0059,-0.01231 0.01119,-0.0249 0.01595,-0.03805 0.005,-0.01259 0.0087,-0.02546 0.01231,-0.03861 0.0034,-0.01315 0.0059,-0.02602 0.0081,-0.03945 0.0022,-0.01455 0.0036,-0.0291 0.0045,-0.04365 2.79e-4,-0.0073 0.0022,-0.01455 0.0022,-0.0221 0,-0.0056 -0.0014,-0.01063 -0.0017,-0.01623 -5.59e-4,-0.01483 -0.0022,-0.02938 -0.0045,-0.04421 -0.002,-0.01287 -0.0039,-0.02602 -0.0067,-0.03861 -0.0034,-0.01315 -0.0076,-0.02602 -0.01231,-0.03889 -0.0048,-0.01343 -0.0092,-0.02658 -0.01539,-0.03945 -0.0053,-0.01119 -0.01147,-0.02182 -0.01763,-0.03274 -0.0078,-0.01343 -0.01623,-0.02658 -0.02546,-0.03917 -0.0031,-0.0042 -0.005,-0.0087 -0.0081,-0.01287 L 9.5369334,4.8813047 11.33324,2.6311648 c 0.144936,-0.1810296 0.114997,-0.4451595 -0.06603,-0.5898153 -0.18103,-0.1446559 -0.44516,-0.1147174 -0.589536,0.066032 L 9.0002798,4.208669 7.3228875,2.1073819 C 7.1782317,1.9263523 6.9143816,1.8969734 6.7330722,2.0413495 6.5520425,2.1860053 6.5223839,2.4501352 6.6670397,2.6311648 L 8.4633464,4.8813047 0.09177392,15.368434 c -0.0033576,0.0042 -0.0053162,0.009 -0.0083939,0.01315 -0.0092334,0.01231 -0.01706771,0.02518 -0.02462228,0.03861 -0.0064354,0.01091 -0.01287073,0.02182 -0.0181869,0.03302 -0.0058758,0.01287 -0.01063235,0.02602 -0.01538892,0.03945 -0.0044768,0.01287 -0.0089535,0.02574 -0.01203134,0.03889 -0.0030778,0.01287 -0.00503637,0.02574 -0.00699496,0.03889 -0.00195859,0.01483 -0.00391718,0.0291 -0.00447678,0.04393 C 0.00139899,15.619972 0,15.625009 0,15.630605 c 0,0.0076 0.00195859,0.01483 0.00223839,0.02238 8.3939e-4,0.01455 0.00223839,0.0291 0.00447678,0.04309 0.00223838,0.01371 0.00503637,0.02658 0.00839395,0.03973 0.0033576,0.01315 0.0072748,0.02602 0.01203134,0.03861 0.0047566,0.01315 0.01007275,0.02546 0.01594852,0.03805 0.0058758,0.01203 0.01203133,0.0235 0.0190263,0.03497 0.0072748,0.01203 0.01482932,0.02322 0.02322328,0.03441 0.0078344,0.01035 0.01622831,0.02043 0.02490207,0.03022 0.0100727,0.01091 0.0209849,0.02126 0.0321768,0.03134 0.005596,0.0048 0.009793,0.01035 0.0153889,0.01511 0.002518,0.0022 0.005876,0.0028 0.008674,0.0048 0.0330162,0.02518 0.06939,0.04561 0.10912144,0.06016 0.006995,0.0025 0.0139899,0.0045 0.0209849,0.0064 0.038892,0.01203 0.0797426,0.02043 0.12255176,0.02043 0,0 2.798e-4,0 2.798e-4,0 v 0 0 H 17.580022 v 0 c 2.8e-4,0 2.8e-4,0 2.8e-4,0 2.8e-4,0 2.8e-4,0 2.8e-4,0 0.04309,0 0.08366,-0.0084 0.122552,-0.02043 0.007,-0.0022 0.01399,-0.0042 0.02099,-0.0064 0.03973,-0.01483 0.0761,-0.03497 0.109121,-0.06016 0.0028,-0.002 0.0059,-0.0025 0.0084,-0.0048 0.0056,-0.0045 0.0098,-0.01007 0.01511,-0.01483 0.01147,-0.01007 0.02238,-0.0207 0.03274,-0.0319 0.0092,-0.01007 0.01735,-0.02015 0.0249,-0.03022 z M 4.9661444,15.210347 C 6.837437,14.010571 8.3136542,11.616056 9,8.6403982 c 0.686066,2.9756578 2.162563,5.3701728 4.033856,6.5699488 z" /></svg>
