<?xml version="1.0" encoding="UTF-8" standalone="no"?>
<svg
   xmlns:dc="http://purl.org/dc/elements/1.1/"
   xmlns:cc="http://creativecommons.org/ns#"
   xmlns:rdf="http://www.w3.org/1999/02/22-rdf-syntax-ns#"
   xmlns:svg="http://www.w3.org/2000/svg"
   xmlns="http://www.w3.org/2000/svg"
   id="svg34"
   xml:space="preserve"
   enable-background="new 0 0 100 100"
   viewBox="0 0 18 18"
   y="0px"
   x="0px"
   version="1.1"
   fill="#000000"
   width="18"
   height="18"><metadata
     id="metadata40"><rdf:RDF><cc:Work
         rdf:about=""><dc:format>image/svg+xml</dc:format><dc:type
           rdf:resource="http://purl.org/dc/dcmitype/StillImage" /><dc:title></dc:title></cc:Work></rdf:RDF></metadata><defs
     id="defs38" /><path
     style="stroke-width:0.214286"
     d="m 14.228237,0.128488 c -0.107143,0 -0.214286,0.0857143 -0.214286,0.21428571 V 1.3288227 c 0,0.1071429 0.107143,0.2142857 0.214286,0.2142857 0.107143,0 0.214285,-0.085714 0.214285,-0.2142857 V 0.34277371 c 0,-0.10714285 -0.08571,-0.21428571 -0.214285,-0.21428571 z m 1.781668,0.48549107 c -0.08337,-0.0100446 -0.163728,0.0343191 -0.19587,0.11467629 L 15.321429,1.5857982 c -0.04286,0.085714 -0.02176,0.2144531 0.08538,0.2787388 0.04286,0.021429 0.06429,0.021345 0.107143,0.021345 0.06429,0 0.150167,-0.042857 0.171596,-0.1071429 l 0.493024,-0.85714281 c 0.06429,-0.10714286 0.02135,-0.23588186 -0.0858,-0.278739 -0.02679,-0.0160714 -0.05508,-0.02553 -0.08287,-0.0288782 z m -3.575056,0.009208 c -0.02511,0.002344 -0.0493,0.008957 -0.07073,0.0196714 -0.107143,0.0642857 -0.128655,0.19302471 -0.0858,0.278739 l 0.493025,0.85714283 c 0.04286,0.064286 0.106892,0.1071429 0.171177,0.1071429 0.04286,0 0.06429,8.35e-5 0.107143,-0.021345 0.107143,-0.064286 0.128655,-0.1930245 0.0858,-0.2787388 L 12.642857,0.72865536 C 12.594643,0.64829821 12.510184,0.61615557 12.434849,0.62318707 Z m 1.793388,1.28403983 c -1.092857,0 -1.992606,0.9001673 -1.992606,1.9930245 0,1.0928571 0.899749,1.992606 1.992606,1.992606 1.092857,0 1.993024,-0.8997489 1.993024,-1.992606 0,-1.0928572 -0.900167,-1.9930245 -1.993024,-1.9930245 z m -3.061105,0.014231 c -0.08337,-0.010044 -0.163728,0.033901 -0.195871,0.1142578 -0.06428,0.1071428 -0.02135,0.2358818 0.0858,0.278739 l 0.857143,0.492606 c 0.04286,0.021429 0.06429,0.021763 0.107143,0.021763 0.06429,0 0.149749,-0.042857 0.171177,-0.1071429 0.04286,-0.1071437 3.43e-4,-0.2358825 -0.08538,-0.2787396 L 11.25,1.9499166 c -0.02679,-0.016072 -0.05508,-0.025112 -0.08287,-0.02846 z m 6.131836,0.00879 c -0.02511,0.00234 -0.0493,0.00896 -0.07073,0.019671 l -0.857143,0.4930245 c -0.107143,0.064283 -0.128237,0.1930222 -0.08538,0.2787365 0.02143,0.064286 0.106892,0.1071428 0.171178,0.1071428 0.04286,0 0.06429,-3.428e-4 0.107143,-0.021763 l 0.857142,-0.492606 c 0.107143,-0.064286 0.128656,-0.1930247 0.0858,-0.278739 -0.04821,-0.080357 -0.132673,-0.1125 -0.208007,-0.1054686 z M 5.3784879,3.0000001 c -1.8214286,0 -3.3214287,1.7356308 -3.3214287,3.8784879 V 6.900251 C 0.89991639,7.0288227 0,8.0143696 0,9.1929411 c 0,0.9642859 0.5998326,1.7999999 1.4355469,2.1428569 -0.15,0.3 -0.2142857,0.642774 -0.2142857,0.985631 0,1.285714 1.0927734,2.314453 2.3784877,2.314453 0.2785714,0 0.4285714,-0.06454 0.8571428,-0.150251 v 3.385881 h 1.9072267 v -3.364118 c 0.4285714,-0.192857 0.9427733,-0.514286 1.307059,-0.964286 0.3,0.15 0.6,0.214286 0.9642857,0.214286 1.2857143,0 2.3144529,-1.028739 2.3144529,-2.314453 0,-0.707143 -0.321512,-1.350167 -0.835798,-1.7787387 0.514286,-0.4285714 0.835798,-1.0711774 0.835798,-1.7783203 0,-1.2857143 -1.0501671,-2.3144533 -2.3144529,-2.3144533 H 8.4856307 c -0.4714286,-1.5 -1.6714286,-2.5714286 -3.1071428,-2.5714286 z m 5.2926891,0.6859655 c -0.107142,0 -0.214285,0.085714 -0.214285,0.2142857 0,0.1071428 0.08571,0.2142857 0.214285,0.2142857 h 0.985631 c 0.107143,0 0.214286,-0.1071429 0.214286,-0.2142857 0,-0.1071429 -0.08571,-0.2142857 -0.214286,-0.2142857 z m 6.128488,0 c -0.107143,0 -0.214285,0.085714 -0.214285,0.2142857 0,0.1071428 0.08571,0.2142857 0.214285,0.2142857 h 0.986049 C 17.892857,4.114537 18,4.0288227 18,3.9002513 18,3.7931084 17.892857,3.6859656 17.785714,3.6859656 Z m -4.824358,1.2995256 c -0.02779,0.00335 -0.05566,0.012807 -0.08245,0.028878 l -0.857143,0.4930245 c -0.107143,0.064286 -0.128655,0.192606 -0.0858,0.2783203 0.04286,0.064286 0.106892,0.1071429 0.171178,0.1071429 0.04286,0 0.06429,8.38e-5 0.107143,-0.021345 L 12.08538,5.3784878 c 0.107142,-0.064286 0.128655,-0.192606 0.0858,-0.2783203 -0.03214,-0.080357 -0.1125,-0.1247211 -0.19587,-0.1146763 z m 4.506278,0 c -0.08337,-0.010045 -0.163728,0.034319 -0.195871,0.1146765 -0.06428,0.1071429 -0.02176,0.2354632 0.08538,0.2783203 l 0.857143,0.4930245 c 0.04286,0.021429 0.06429,0.021345 0.107143,0.021345 0.06428,0 0.150167,-0.042857 0.171595,-0.1071429 0.04286,-0.1071428 -8.3e-5,-0.2354631 -0.0858,-0.2783202 l -0.85714,-0.4930245 c -0.02679,-0.016071 -0.05466,-0.02553 -0.08245,-0.028879 z m -1.004046,0.9303851 c -0.02511,0.00234 -0.0493,0.00938 -0.07073,0.020089 -0.107143,0.064286 -0.128237,0.192606 -0.08538,0.2783203 l 0.492606,0.8571428 c 0.04286,0.064286 0.10731,0.1071429 0.171596,0.1071429 0.04286,0 0.06428,8.38e-5 0.107143,-0.021345 0.107142,-0.064286 0.128655,-0.1930245 0.0858,-0.2787388 L 15.685547,6.0213449 c -0.04821,-0.080357 -0.132673,-0.1125 -0.208008,-0.1054686 z m -2.510324,0.012555 c -0.08337,-0.010044 -0.163727,0.03432 -0.19587,0.1146771 L 12.27832,6.9002513 c -0.06428,0.1071428 -0.02135,0.2354631 0.0858,0.2783203 0.04286,0.021428 0.06429,0.021345 0.107143,0.021345 0.06429,0 0.150168,-0.042857 0.171596,-0.1071429 l 0.492604,-0.8571428 c 0.04286,-0.1071429 -8.3e-5,-0.2354632 -0.0858,-0.2783203 -0.02678,-0.016071 -0.05466,-0.02553 -0.08245,-0.028878 z m 1.261022,0.350307 c -0.107143,0 -0.214286,0.085714 -0.214286,0.2142857 v 0.9856314 c 0,0.1071428 0.08571,0.2142857 0.214286,0.2142857 0.107143,0 0.214285,-0.085714 0.214285,-0.2142857 V 6.4930249 c 0,-0.1285715 -0.107142,-0.2142858 -0.214285,-0.2142866 z m -1.456892,3.7068926 c -0.685714,0 -1.285798,0.4503351 -1.585798,1.0931921 0.02143,0.107143 0.02135,0.23563 0.02135,0.342773 0,0.985715 -0.535547,1.84269 -1.3284039,2.29269 C 9.9856359,14.1 10.264207,14.421429 10.628493,14.571429 10.542774,14.742857 10.5,14.914286 10.5,15.107143 c 0,0.707143 0.535547,1.285714 1.221261,1.285714 0.15,0 0.407227,-0.02151 0.407227,-0.0858 v 1.564453 h 1.071429 v -1.542689 c 0,-0.107143 0.578404,-0.278572 0.792689,-0.535715 0.171429,0.08572 0.364202,0.128488 0.557059,0.128488 0.707143,0 1.285715,-0.578571 1.285715,-1.285714 0.02143,-0.385714 -0.15,-0.728571 -0.428572,-0.964286 0.278572,-0.235714 0.450335,-0.578488 0.450335,-0.98563 0,-0.707143 -0.578571,-1.285715 -1.285714,-1.285715 h -0.0858 C 14.228488,10.585966 13.564202,9.9856309 12.771345,9.9856309 Z"
     id="path2" /><g
     id="g32" /></svg>
