<?xml version="1.0" encoding="UTF-8" standalone="no"?>
<svg
   xmlns:dc="http://purl.org/dc/elements/1.1/"
   xmlns:cc="http://creativecommons.org/ns#"
   xmlns:rdf="http://www.w3.org/1999/02/22-rdf-syntax-ns#"
   xmlns:svg="http://www.w3.org/2000/svg"
   xmlns="http://www.w3.org/2000/svg"
   id="svg2"
   viewBox="0 0 18 18"
   height="18"
   width="18"
   version="1.1">
  <metadata
     id="metadata8">
    <rdf:RDF>
      <cc:Work
         rdf:about="">
        <dc:format>image/svg+xml</dc:format>
        <dc:type
           rdf:resource="http://purl.org/dc/dcmitype/StillImage" />
        <dc:title></dc:title>
      </cc:Work>
    </rdf:RDF>
  </metadata>
  <defs
     id="defs6" />
  <path
     style="stroke-width:1.28514"
     id="viewpoint"
     d="M 12.413661,0.84527502 C 12.02494,0.90473099 11.676055,1.1647253 11.449804,1.4878463 10.916833,2.2081729 10.77944,3.0996446 10.526108,3.9376492 10.241784,5.0198169 9.9666933,6.1232233 9.8032157,7.2308268 9.7767417,7.5497455 10.018669,7.6189148 10.325305,7.3111482 11.385774,6.3235783 12.430038,5.2802896 13.45784,4.2589348 13.707569,3.9935692 13.958014,3.7317437 14.140572,3.41556 14.424768,2.940513 14.558266,2.3126609 14.261054,1.8091319 13.954211,1.300162 13.392393,0.95421874 12.815268,0.84527502 c -0.133317,-0.0253902 -0.272033,-0.0198187 -0.401607,0 z M 5.425699,0.92559643 C 4.8314826,0.93611532 4.2428886,1.2437851 3.8594316,1.6886498 3.5043415,2.0992606 3.517261,2.6976583 3.7389495,3.1745958 4.095279,3.9967617 4.7872505,4.5836647 5.3855383,5.2227917 6.1795942,6.0110832 6.9988786,6.7753408 7.8755019,7.471791 8.1382321,7.6545005 8.3094949,7.4897432 8.1967875,7.070184 7.8734953,5.6576111 7.5215113,4.2545422 7.1526093,2.8533102 7.0480886,2.5042278 6.9331565,2.1255486 6.7510022,1.8091319 6.48229,1.3251574 6.0103814,0.92068449 5.425699,0.92559643 Z M 1.2891466,7.3513089 C 0.86872367,7.4247394 0.46127174,7.6525701 0.24496832,8.0340409 -0.04335289,8.5537288 -0.0687046,9.2063168 0.12448621,9.7609511 0.30222011,10.273888 0.8456132,10.597682 1.369468,10.644487 2.259588,10.747532 3.0869826,10.400754 3.939753,10.202719 5.0196435,9.9098647 6.1108978,9.609003 7.1526093,9.1987013 7.4422907,9.0627034 7.3714548,8.7890567 6.9518058,8.6766121 5.5671013,8.2494392 4.1728077,7.8538019 2.7750926,7.471791 2.4205717,7.3875409 2.0558549,7.3519926 1.6907536,7.3513089 c -0.138371,-0.0024 -0.261466,-0.024477 -0.401607,0 z m 15.0201034,0 c -0.365103,6.84e-4 -0.729818,0.036232 -1.084339,0.1204821 -1.397715,0.3820109 -2.792011,0.7776482 -4.176714,1.2048211 -0.419648,0.1124448 -0.490487,0.3860955 -0.200803,0.5220892 1.041712,0.4103017 2.132965,0.7111634 3.212857,1.0040177 0.852767,0.198035 1.680158,0.544817 2.570285,0.441768 0.523855,-0.0468 1.067247,-0.370599 1.244981,-0.8835359 C 18.068697,9.2063168 18.04336,8.5537288 17.755035,8.0340409 17.466633,7.5254132 16.862734,7.3417218 16.30925,7.3513089 Z M 8.0763054,10.443683 c -0.051637,0.0029 -0.1351209,0.03464 -0.2008035,0.08032 -0.8766233,0.696453 -1.6959077,1.500872 -2.4899636,2.289161 -0.5982878,0.639128 -1.2902593,1.185867 -1.6465888,2.008036 -0.2216885,0.476935 -0.234608,1.075335 0.1204821,1.485946 0.383457,0.444864 0.972051,0.792638 1.5662674,0.803214 0.5846824,0.0049 1.056591,-0.439725 1.3253032,-0.923697 0.1821543,-0.316418 0.2970864,-0.654934 0.4016071,-1.004017 0.368902,-1.401232 0.720886,-2.844462 1.0441782,-4.257035 0.08453,-0.314671 0.034429,-0.490494 -0.1204821,-0.481929 z m 1.8875531,0.08032 c -0.094575,0.0176 -0.1738798,0.121665 -0.1606428,0.281125 0.1634776,1.107605 0.4385683,2.170848 0.7228923,3.253018 0.253332,0.838006 0.39073,1.769635 0.923696,2.489964 0.301668,0.430825 0.832194,0.703975 1.365464,0.60241 0.577125,-0.108941 1.138943,-0.454887 1.445786,-0.963857 0.297218,-0.50353 0.163714,-1.131384 -0.120482,-1.606428 -0.182558,-0.316185 -0.433003,-0.578012 -0.682732,-0.843374 -1.027802,-1.02136 -2.072066,-2.024489 -3.132535,-3.012054 -0.153318,-0.153883 -0.266871,-0.218409 -0.3614465,-0.200804 z" />
</svg>
