<?xml version="1.0" encoding="UTF-8" standalone="no"?>
<svg
   xmlns:dc="http://purl.org/dc/elements/1.1/"
   xmlns:cc="http://creativecommons.org/ns#"
   xmlns:rdf="http://www.w3.org/1999/02/22-rdf-syntax-ns#"
   xmlns:svg="http://www.w3.org/2000/svg"
   xmlns="http://www.w3.org/2000/svg"
   id="svg10"
   xml:space="preserve"
   enable-background="new 0 0 100 100"
   viewBox="0 0 18 18"
   y="0px"
   x="0px"
   version="1.1"
   fill="#000000"
   width="18"
   height="18"><metadata
     id="metadata16"><rdf:RDF><cc:Work
         rdf:about=""><dc:format>image/svg+xml</dc:format><dc:type
           rdf:resource="http://purl.org/dc/dcmitype/StillImage" /><dc:title></dc:title></cc:Work></rdf:RDF></metadata><defs
     id="defs14" /><path
     d="m 2.4004033,0.5460905 c -0.2777713,0 -0.502967,0.22495376 -0.5029671,0.5027251 0,0.2777712 0.2251958,0.5029669 0.5029671,0.5029669 h 1.0724639 v 9.3480725 c -0.3539494,0.09067 -0.5794005,0.288673 -0.7555391,0.443816 -0.1885872,0.166105 -0.2921892,0.257531 -0.5398609,0.257531 -0.2486007,0 -0.3527166,-0.09142 -0.5416754,-0.257894 -0.2361521,-0.207725 -0.5598112,-0.492564 -1.16403347,-0.492564 -0.26030608,0 -0.47139544361,0.21121 -0.47139544361,0.471516 0,0.260306 0.21114549361,0.471033 0.47163741361,0.471033 0.24841482,0 0.35217649,0.09167 0.5409495,0.257773 0.2363379,0.208097 0.5601093,0.492685 1.1645174,0.492685 0.6038507,0 0.9270347,-0.284588 1.1631868,-0.492685 0.1885872,-0.166105 0.2923102,-0.257773 0.5399818,-0.257773 0.2486007,0 0.3526604,0.0916 0.5414334,0.257894 0.236152,0.207911 0.5594007,0.492564 1.1630656,0.492564 0.6044081,0 0.9283006,-0.284654 1.1646385,-0.492564 0.188773,-0.166291 0.2927678,-0.257894 0.5415543,-0.257894 0.2484148,0 0.3525306,0.0916 0.5416752,0.257894 0.2363379,0.207911 0.5599324,0.492564 1.1641546,0.492564 0.6038507,0 0.9278164,-0.284654 1.1641546,-0.492564 0.188959,-0.166291 0.292898,-0.257894 0.541312,-0.257894 0.211069,0 0.320428,0.06913 0.462565,0.190276 0.0589,0.103305 0.15175,0.182664 0.265274,0.22354 0.219987,0.170751 0.51636,0.336642 0.977144,0.336642 0.604222,0 0.927817,-0.284654 1.164155,-0.492564 0.189144,-0.166291 0.292824,-0.257894 0.541796,-0.257894 0.249158,0 0.35308,0.0916 0.542038,0.257894 0.236338,0.207911 0.560109,0.492564 1.164517,0.492564 0.604966,0 0.929083,-0.284468 1.165607,-0.492564 0.18933,-0.166291 0.293355,-0.257894 0.542884,-0.257894 0.260121,0 0.471396,-0.210848 0.471396,-0.471154 0,-0.260306 -0.211275,-0.471516 -0.471396,-0.471516 -0.604779,0 -0.928784,0.284412 -1.165122,0.492322 -0.189516,0.166291 -0.294025,0.258015 -0.543369,0.258015 -0.248786,0 -0.352772,-0.09142 -0.541917,-0.257894 -0.154957,-0.136192 -0.349463,-0.303864 -0.633366,-0.404382 V 1.5517825 h 0.955372 c 0.277771,0 0.502725,-0.2250099 0.502725,-0.5029669 0,-0.2777714 -0.224954,-0.5027251 -0.502725,-0.5027251 z m 2.0782768,1.005692 h 1.5357548 v 5.6312221 c 0,0.2775856 0.2248889,0.502846 0.502846,0.502846 0.2779571,0 0.5029673,-0.2250746 0.5029673,-0.502846 V 1.5517825 h 1.5358753 v 1.362535 c 0,0.2777711 0.2251397,0.5029669 0.5027252,0.5029669 0.2777713,0 0.5026044,-0.22501 0.5026044,-0.5029669 V 1.5517825 H 11.097691 V 4.07448 c 0,0.2777713 0.225019,0.5029669 0.502605,0.5029669 0.277957,0 0.502725,-0.2250098 0.502725,-0.5029669 V 1.5517825 h 1.535997 v 9.3692415 c -0.315303,0.09699 -0.524801,0.277303 -0.689977,0.422042 -0.188773,0.166477 -0.292833,0.257894 -0.541434,0.257894 -0.13006,0 -0.220604,-0.02675 -0.304586,-0.07488 V 6.4954472 c 0,-0.2777713 -0.224768,-0.5028461 -0.502725,-0.5028461 -0.277586,0 -0.502605,0.2250748 -0.502605,0.5028461 v 4.4013838 c -0.117054,-0.02861 -0.247355,-0.04621 -0.395067,-0.04621 -0.604222,0 -0.928058,0.28483 -1.1643959,0.492926 -0.188773,0.166106 -0.2926558,0.257411 -0.5410707,0.257411 -0.2486006,0 -0.3525397,-0.09142 -0.5413127,-0.257894 -0.2363379,-0.207725 -0.5600526,-0.492443 -1.1642748,-0.492443 -0.098474,0 -0.1869126,0.01 -0.2710801,0.02335 V 9.4143004 c 0,-0.2777713 -0.2250097,-0.5029668 -0.5029668,-0.5029668 -0.2779571,0 -0.5029667,0.2250097 -0.5029667,0.5029668 v 1.9078386 c 0,0.03679 0.00442,0.07249 0.011854,0.107053 -0.1326613,0.109995 -0.240797,0.171768 -0.4412755,0.171768 -0.2476717,0 -0.3514595,-0.09131 -0.5398609,-0.25741 C 4.9027652,11.21795 4.727095,11.065487 4.4786801,10.963483 Z m 4.5798057,2.571204 c -0.2775855,0 -0.5027252,0.2248888 -0.5027252,0.5028459 v 4.5464199 c 6e-7,0.2777713 0.2251397,0.5027252 0.5027252,0.5027252 0.2777713,0 0.5026045,-0.2249539 0.5026045,-0.5027252 V 4.6258324 c 0,-0.2777713 -0.2248332,-0.5028459 -0.5026045,-0.5028459 z M 0.47139546,13.305581 C 0.21108937,13.305581 0,13.516856 0,13.776976 c 0,0.260306 0.21108937,0.471516 0.47139546,0.471516 0.24822908,0 0.35229751,0.09118 0.54107054,0.257653 0.2363379,0.208097 0.5599882,0.492927 1.1643964,0.492927 0.6038507,0 0.9273413,-0.285193 1.1633076,-0.49329 0.1885872,-0.166105 0.2921892,-0.25729 0.5398609,-0.25729 0.2486007,0 0.3526605,0.09118 0.5414335,0.257653 0.2361521,0.208097 0.5595217,0.492927 1.1631866,0.492927 0.6044083,0 0.9282357,-0.28483 1.1647594,-0.492927 0.188773,-0.166477 0.2928328,-0.257653 0.5414335,-0.257653 0.2484149,0 0.3524742,0.09118 0.541433,0.257653 0.2361521,0.208097 0.5601746,0.492927 1.1643969,0.492927 0.6044081,0 0.9276954,-0.28483 1.1640332,-0.492927 0.188959,-0.166477 0.293018,-0.257653 0.541434,-0.257653 0.248786,0 0.352837,0.09154 0.541796,0.258016 0.236152,0.207725 0.559401,0.492564 1.163065,0.492564 0.604223,0 0.928059,-0.28483 1.164397,-0.492927 0.188959,-0.166477 0.292703,-0.257653 0.541675,-0.257653 0.248786,0 0.353023,0.09118 0.541796,0.257653 0.236524,0.208097 0.560166,0.492927 1.16476,0.492927 0.604965,0 0.928961,-0.284839 1.165485,-0.492564 0.18933,-0.166477 0.293727,-0.258016 0.542885,-0.258016 0.26012,0 0.471395,-0.21121 0.471395,-0.471516 1.86e-4,-0.26012 -0.211089,-0.471395 -0.471395,-0.471395 -0.60478,0 -0.928784,0.284839 -1.165122,0.492564 -0.189516,0.166477 -0.293904,0.258257 -0.543248,0.258257 -0.248601,0 -0.352838,-0.0916 -0.541797,-0.257894 -0.236338,-0.208096 -0.560165,-0.492927 -1.164759,-0.492927 -0.604408,0 -0.9283,0.284831 -1.164638,0.492927 -0.188773,0.166291 -0.292833,0.257894 -0.541434,0.257894 -0.247671,0 -0.351515,-0.09167 -0.540102,-0.257773 -0.236152,-0.208096 -0.559609,-0.493048 -1.164759,-0.493048 -0.604223,0 -0.9280592,0.284831 -1.1643971,0.492927 -0.188773,0.166291 -0.2926552,0.257894 -0.5410701,0.257894 -0.2486007,0 -0.3526605,-0.0916 -0.5414335,-0.257894 -0.2363379,-0.208096 -0.5601741,-0.492927 -1.1643964,-0.492927 -0.6042223,0 -0.9279377,0.284831 -1.1642756,0.492927 -0.1891446,0.166291 -0.2931308,0.257894 -0.5419173,0.257894 -0.2476717,0 -0.3515804,-0.09167 -0.5399819,-0.257773 -0.2363378,-0.208096 -0.5600443,-0.493048 -1.1646382,-0.493048 -0.6038507,0 -0.9272204,0.284952 -1.1631866,0.493048 -0.1885873,0.166105 -0.292496,0.257773 -0.5399819,0.257773 -0.2486007,0 -0.3526605,-0.0916 -0.5414335,-0.257894 -0.2363378,-0.208096 -0.559997,-0.492927 -1.16403344,-0.492927 z m 0,2.45532 C 0.21108937,15.760901 0,15.971934 0,16.232055 c 0,0.260306 0.21108937,0.471637 0.47139546,0.471637 0.24841488,0 0.35229751,0.09124 0.54107054,0.257532 0.2363379,0.20791 0.5599882,0.492686 1.1643964,0.492686 0.6038507,0 0.9271555,-0.284775 1.1633076,-0.492686 0.1885872,-0.166291 0.2921892,-0.257532 0.5398609,-0.257532 0.2486007,0 0.3526605,0.09118 0.5414335,0.257653 0.2361521,0.207724 0.5595217,0.492565 1.1631866,0.492565 0.6044083,0 0.9281793,-0.28484 1.1645171,-0.492565 0.188773,-0.166477 0.2928893,-0.257653 0.5416758,-0.257653 0.2484149,0 0.3524097,0.09118 0.5415543,0.257653 0.2363379,0.207724 0.5600533,0.492565 1.1642756,0.492565 0.6038507,0 0.9276954,-0.28484 1.1640332,-0.492565 0.188959,-0.166477 0.293018,-0.257653 0.541434,-0.257653 0.248786,0 0.352837,0.09118 0.541796,0.257653 0.236152,0.207724 0.559401,0.492565 1.163065,0.492565 0.604223,0 0.927938,-0.28484 1.164276,-0.492565 0.189145,-0.166477 0.292824,-0.257653 0.541796,-0.257653 0.249158,0 0.352958,0.09118 0.541917,0.257653 0.236338,0.207724 0.560231,0.492565 1.164639,0.492565 0.604965,0 0.928961,-0.284468 1.165485,-0.492565 0.18933,-0.166477 0.293355,-0.257653 0.542885,-0.257653 0.26012,0 0.471395,-0.211331 0.471395,-0.471636 1.86e-4,-0.260306 -0.211089,-0.471155 -0.471395,-0.471155 -0.60478,0 -0.928784,0.284235 -1.165122,0.491961 -0.189516,0.166477 -0.293904,0.258257 -0.543248,0.258257 -0.248787,0 -0.352894,-0.09142 -0.542038,-0.257896 -0.236152,-0.207538 -0.56011,-0.492321 -1.164518,-0.492321 -0.604408,0 -0.928114,0.284783 -1.164638,0.492321 -0.188773,0.166477 -0.292833,0.257896 -0.541434,0.257896 -0.247671,0 -0.351701,-0.09143 -0.540102,-0.257533 -0.236152,-0.20791 -0.560166,-0.492684 -1.164759,-0.492684 -0.604223,0 -0.9280592,0.284774 -1.1643971,0.492684 -0.188773,0.166106 -0.2926552,0.257533 -0.5410701,0.257533 -0.2486007,0 -0.3526605,-0.09142 -0.5414335,-0.257896 -0.2363379,-0.207538 -0.5600533,-0.492321 -1.1642756,-0.492321 -0.6042223,0 -0.9278169,0.284783 -1.1641541,0.492321 -0.1889595,0.166477 -0.2932522,0.257896 -0.5420386,0.257896 -0.2476717,0 -0.3514595,-0.09143 -0.539861,-0.257533 -0.2363378,-0.20791 -0.5600443,-0.492684 -1.164638,-0.492684 -0.6038507,0 -0.9271557,0.284774 -1.1633078,0.492684 -0.1885872,0.166106 -0.2921892,0.257533 -0.5398609,0.257533 -0.2486007,0 -0.3527166,-0.09142 -0.5416754,-0.257896 -0.236152,-0.207538 -0.5598112,-0.492321 -1.16403344,-0.492322 z"
     style="stroke-width:0.1858"
     id="path2" /></svg>
