<?xml version="1.0" encoding="UTF-8" standalone="no"?>
<svg
   xmlns:dc="http://purl.org/dc/elements/1.1/"
   xmlns:cc="http://creativecommons.org/ns#"
   xmlns:rdf="http://www.w3.org/1999/02/22-rdf-syntax-ns#"
   xmlns:svg="http://www.w3.org/2000/svg"
   xmlns="http://www.w3.org/2000/svg"
   xmlns:sodipodi="http://sodipodi.sourceforge.net/DTD/sodipodi-0.dtd"
   xmlns:inkscape="http://www.inkscape.org/namespaces/inkscape"
   version="1.1"
   id="Calque_1"
   x="0px"
   y="0px"
   viewBox="0 0 715.09 205.71"
   style="enable-background:new 0 0 715.09 205.71;"
   xml:space="preserve"
   sodipodi:docname="logo-FR-laptop.svg"
   inkscape:version="1.0 (4035a4fb49, 2020-05-01)"><metadata
   id="metadata99"><rdf:RDF><cc:Work
       rdf:about=""><dc:format>image/svg+xml</dc:format><dc:type
         rdf:resource="http://purl.org/dc/dcmitype/StillImage" /></cc:Work></rdf:RDF></metadata><defs
   id="defs97"><rect
     x="20.766075"
     y="21.728094"
     width="658.72998"
     height="163.56886"
     id="rect926" /></defs><sodipodi:namedview
   inkscape:document-rotation="0"
   pagecolor="#ffffff"
   bordercolor="#666666"
   borderopacity="1"
   objecttolerance="10"
   gridtolerance="10"
   guidetolerance="10"
   inkscape:pageopacity="0"
   inkscape:pageshadow="2"
   inkscape:window-width="640"
   inkscape:window-height="480"
   id="namedview95"
   showgrid="false"
   inkscape:zoom="1.2627436"
   inkscape:cx="305.73865"
   inkscape:cy="41.244945"
   inkscape:current-layer="Calque_1" />
<style
   type="text/css"
   id="style2">
	.st0{fill:#1261AC;}
	.st1{fill:#009A00;}
	.st2{fill:#F12A2A;}
	.st3{fill:#FFFFFF;}
	.st4{fill:#10702F;}
</style>


<path
   id="path930"
   style="font-style:normal;font-variant:normal;font-weight:normal;font-stretch:normal;font-size:74.6667px;line-height:1.25;font-family:Roboto;-inkscape-font-specification:Roboto;letter-spacing:0px;word-spacing:0px;white-space:pre;fill:#ff8b00;fill-opacity:1;stroke:none;stroke-width:1.43954"
   d="m 67.624086,118.39002 q -1.417046,12.12361 -8.974621,18.73649 -7.505093,6.5604 -19.996087,6.5604 -13.540656,0 -21.728031,-9.70939 -8.13489,-9.70938 -8.13489,-25.97917 v -7.34764 q 0,-10.654083 3.778787,-18.73649 3.831272,-8.082408 10.811532,-12.386028 6.980262,-4.356103 16.164816,-4.356103 12.176095,0 19.523739,6.822813 7.347643,6.770328 8.554755,18.788973 H 57.494835 q -1.31208,-9.132071 -5.720665,-13.225758 -4.356103,-4.093688 -12.228578,-4.093688 -9.656902,0 -15.167635,7.137711 -5.45825,7.137711 -5.45825,20.31099 v 7.40012 q 0,12.43851 5.195834,19.78616 5.195834,7.34764 14.537837,7.34764 8.397306,0 12.858376,-3.77879 4.513552,-3.83127 5.983081,-13.27824 z" /><path
   id="path932"
   style="font-style:normal;font-variant:normal;font-weight:normal;font-stretch:normal;font-size:74.6667px;line-height:1.25;font-family:Roboto;-inkscape-font-specification:Roboto;letter-spacing:0px;word-spacing:0px;white-space:pre;fill:#ff8b00;fill-opacity:1;stroke:none;stroke-width:1.43954"
   d="m 114.91142,142.63724 q -0.83973,-1.67946 -1.36457,-5.98308 -6.77032,7.03275 -16.16481,7.03275 -8.39731,0 -13.80307,-4.72349 -5.353287,-4.77597 -5.353287,-12.07113 0,-8.86965 6.717847,-13.75059 6.77033,-4.93341 18.99891,-4.93341 h 9.44697 v -4.46107 q 0,-5.09087 -3.04403,-8.08241 -3.04402,-3.044025 -8.97462,-3.044025 -5.19583,0 -8.7122,2.624159 -3.51638,2.624158 -3.51638,6.350466 h -9.761866 q 0,-4.251139 2.991536,-8.187376 3.04403,-3.988722 8.18738,-6.29798 5.19583,-2.30926 11.38885,-2.30926 9.81435,0 15.37757,4.933417 5.56321,4.880935 5.77315,13.488169 V 129.359 q 0,7.81999 1.99435,12.43851 v 0.83973 z m -16.11233,-7.40012 q 4.56603,0 8.65972,-2.36175 4.09368,-2.36174 5.9306,-6.14053 v -11.65126 h -7.61006 q -17.84428,0 -17.84428,10.44415 0,4.56604 3.04402,7.13771 3.04403,2.57168 7.82,2.57168 z" /><path
   id="path934"
   style="font-style:normal;font-variant:normal;font-weight:normal;font-stretch:normal;font-size:74.6667px;line-height:1.25;font-family:Roboto;-inkscape-font-specification:Roboto;letter-spacing:0px;word-spacing:0px;white-space:pre;fill:#ff8b00;fill-opacity:1;stroke:none;stroke-width:1.43954"
   d="m 165.7676,94.562662 q -2.20429,-0.367381 -4.77597,-0.367381 -9.55194,0 -12.96334,8.134889 v 40.30707 H 138.3189 V 85.850457 h 9.44697 l 0.15745,6.560396 q 4.77597,-7.610059 13.54065,-7.610059 2.83409,0 4.30363,0.734764 z" /><path
   id="path936"
   style="font-style:normal;font-variant:normal;font-weight:normal;font-stretch:normal;font-size:74.6667px;line-height:1.25;font-family:Roboto;-inkscape-font-specification:Roboto;letter-spacing:0px;word-spacing:0px;white-space:pre;fill:#ff8b00;fill-opacity:1;stroke:none;stroke-width:1.43954"
   d="m 190.48718,72.099867 v 13.75059 h 10.60161 v 7.505092 h -10.60161 v 35.216211 q 0,3.4114 1.41704,5.14335 1.41705,1.67946 4.82845,1.67946 1.67947,0 4.61853,-0.6298 v 7.87247 q -3.83127,1.04967 -7.45262,1.04967 -6.5079,0 -9.81435,-3.93624 -3.30644,-3.93624 -3.30644,-11.17891 V 93.355549 h -10.33918 v -7.505092 h 10.33918 v -13.75059 z" /><path
   id="path938"
   style="font-style:normal;font-variant:normal;font-weight:normal;font-stretch:normal;font-size:74.6667px;line-height:1.25;font-family:Roboto;-inkscape-font-specification:Roboto;letter-spacing:0px;word-spacing:0px;white-space:pre;fill:#ff8b00;fill-opacity:1;stroke:none;stroke-width:1.43954"
   d="m 208.8038,113.71902 q 0,-8.34482 3.25396,-15.010187 3.30644,-6.665362 9.13207,-10.286701 5.87812,-3.621338 13.3832,-3.621338 11.59879,0 18.73649,8.029925 7.19021,8.029921 7.19021,21.360651 v 0.68228 q 0,8.29234 -3.20148,14.90522 -3.14899,6.56039 -9.07959,10.23421 -5.87811,3.67383 -13.54065,3.67383 -11.54631,0 -18.73649,-8.02993 -7.13772,-8.02992 -7.13772,-21.25568 z m 9.76188,1.15463 q 0,9.44697 4.3561,15.16763 4.40858,5.72067 11.75623,5.72067 7.40013,0 11.75622,-5.77315 4.3561,-5.82563 4.3561,-16.26978 0,-9.342 -4.46107,-15.115154 -4.40858,-5.825632 -11.75623,-5.825632 -7.19018,0 -11.59877,5.720667 -4.40858,5.720669 -4.40858,16.374749 z" /><path
   id="path940"
   style="font-style:normal;font-variant:normal;font-weight:normal;font-stretch:normal;font-size:74.6667px;line-height:1.25;font-family:Roboto;-inkscape-font-specification:Roboto;letter-spacing:0px;word-spacing:0px;white-space:pre;fill:#ff8b00;fill-opacity:1;stroke:none;stroke-width:1.43954"
   d="m 281.80789,85.850457 0.26243,6.29798 q 6.24549,-7.347643 16.84709,-7.347643 11.91367,0 16.2173,9.132071 2.83409,-4.093687 7.34765,-6.612879 4.56602,-2.519192 10.75904,-2.519192 18.68401,0 18.99891,19.786156 v 38.05029 h -9.70938 v -37.47298 q 0,-6.088044 -2.78162,-9.079585 -2.78161,-3.044024 -9.342,-3.044024 -5.40576,0 -8.97462,3.253956 -3.56886,3.201473 -4.14617,8.659723 v 37.68291 h -9.76187 v -37.21056 q 0,-12.386029 -12.12361,-12.386029 -9.55194,0 -13.06831,8.134889 v 41.4617 h -9.70939 V 85.850457 Z" /><path
   id="path942"
   style="font-style:normal;font-variant:normal;font-weight:normal;font-stretch:normal;font-size:74.6667px;line-height:1.25;font-family:Roboto;-inkscape-font-specification:Roboto;letter-spacing:0px;word-spacing:0px;white-space:pre;fill:#ff8b00;fill-opacity:1;stroke:none;stroke-width:1.43954"
   d="m 364.31143,113.71902 q 0,-8.34482 3.25395,-15.010187 3.30644,-6.665362 9.13208,-10.286701 5.87811,-3.621338 13.38321,-3.621338 11.59877,0 18.73649,8.029925 7.19018,8.029921 7.19018,21.360651 v 0.68228 q 0,8.29234 -3.20147,14.90522 -3.14899,6.56039 -9.07958,10.23421 -5.87812,3.67383 -13.54067,3.67383 -11.5463,0 -18.73648,-8.02993 -7.13771,-8.02992 -7.13771,-21.25568 z m 9.76187,1.15463 q 0,9.44697 4.3561,15.16763 4.40858,5.72067 11.75622,5.72067 7.40013,0 11.75623,-5.77315 4.35612,-5.82563 4.35612,-16.26978 0,-9.342 -4.46107,-15.115154 -4.4086,-5.825632 -11.75623,-5.825632 -7.19021,0 -11.59879,5.720667 -4.40858,5.720669 -4.40858,16.374749 z" /><path
   id="path944"
   style="font-style:normal;font-variant:normal;font-weight:normal;font-stretch:normal;font-size:74.6667px;line-height:1.25;font-family:Roboto;-inkscape-font-specification:Roboto;letter-spacing:0px;word-spacing:0px;white-space:pre;fill:#ff8b00;fill-opacity:1;stroke:none;stroke-width:1.43954"
   d="m 476.25802,114.87365 q 0,13.01582 -5.98307,20.94078 -5.98308,7.87248 -16.05985,7.87248 -10.75906,0 -16.63716,-7.61006 l -0.47236,6.56039 h -8.92214 V 62.0231 h 9.7094 v 30.072854 q 5.8781,-7.29516 16.21729,-7.29516 10.33918,0 16.2173,7.819991 5.93059,7.819995 5.93059,21.413135 z m -9.70937,-1.10215 q 0,-9.91932 -3.83128,-15.325083 -3.83127,-5.405766 -11.02147,-5.405766 -9.60441,0 -13.80306,8.922139 v 24.56212 q 4.46107,8.92214 13.90803,8.92214 6.98026,0 10.86402,-5.40577 3.88376,-5.40576 3.88376,-16.26978 z" /><path
   id="path946"
   style="font-style:normal;font-variant:normal;font-weight:normal;font-stretch:normal;font-size:74.6667px;line-height:1.25;font-family:Roboto;-inkscape-font-specification:Roboto;letter-spacing:0px;word-spacing:0px;white-space:pre;fill:#ff8b00;fill-opacity:1;stroke:none;stroke-width:1.43954"
   d="m 499.03574,142.63724 h -9.70939 V 85.850457 h 9.70939 z M 488.53911,70.787788 q 0,-2.361742 1.41704,-3.98872 1.46953,-1.626979 4.30362,-1.626979 2.83409,0 4.30362,1.626979 1.46953,1.626978 1.46953,3.98872 0,2.361742 -1.46953,3.936238 -1.46953,1.574494 -4.30362,1.574494 -2.83409,0 -4.30362,-1.574494 -1.41704,-1.574496 -1.41704,-3.936238 z" /><path
   id="path948"
   style="font-style:normal;font-variant:normal;font-weight:normal;font-stretch:normal;font-size:74.6667px;line-height:1.25;font-family:Roboto;-inkscape-font-specification:Roboto;letter-spacing:0px;word-spacing:0px;white-space:pre;fill:#ff8b00;fill-opacity:1;stroke:none;stroke-width:1.43954"
   d="m 525.11985,142.63724 h -9.7094 V 62.0231 h 9.7094 z" /><path
   id="path950"
   style="font-style:normal;font-variant:normal;font-weight:normal;font-stretch:normal;font-size:74.6667px;line-height:1.25;font-family:Roboto;-inkscape-font-specification:Roboto;letter-spacing:0px;word-spacing:0px;white-space:pre;fill:#ff8b00;fill-opacity:1;stroke:none;stroke-width:1.43954"
   d="m 546.58548,67.848731 -1.10215,19.313805 H 538.713 L 538.7655,62.0231 h 7.82 z" /><path
   id="path952"
   style="font-style:normal;font-variant:normal;font-weight:normal;font-stretch:normal;font-size:74.6667px;line-height:1.25;font-family:Roboto;-inkscape-font-specification:Roboto;letter-spacing:0px;word-spacing:0px;white-space:pre;fill:#ff8b00;fill-opacity:1;stroke:none;stroke-width:1.43954"
   d="m 609.94048,142.63724 h -9.70939 V 85.850457 h 9.70939 z M 599.44385,70.787788 q 0,-2.361742 1.41704,-3.98872 1.46952,-1.626979 4.30362,-1.626979 2.83409,0 4.30362,1.626979 1.46952,1.626978 1.46952,3.98872 0,2.361742 -1.46952,3.936238 -1.46953,1.574494 -4.30362,1.574494 -2.8341,0 -4.30362,-1.574494 -1.41704,-1.574496 -1.41704,-3.936238 z" /><path
   id="path954"
   style="font-style:normal;font-variant:normal;font-weight:normal;font-stretch:normal;font-size:74.6667px;line-height:1.25;font-family:Roboto;-inkscape-font-specification:Roboto;letter-spacing:0px;word-spacing:0px;white-space:pre;fill:#ff8b00;fill-opacity:1;stroke:none;stroke-width:1.43954"
   d="m 638.64879,72.099867 v 13.75059 h 10.60159 v 7.505092 h -10.60159 v 35.216211 q 0,3.4114 1.41704,5.14335 1.41705,1.67946 4.82845,1.67946 1.67947,0 4.61852,-0.6298 v 7.87247 q -3.83128,1.04967 -7.45261,1.04967 -6.50792,0 -9.81435,-3.93624 -3.30644,-3.93624 -3.30644,-11.17891 V 93.355549 h -10.33918 v -7.505092 h 10.33918 v -13.75059 z" /><path
   sodipodi:nodetypes="scssccssscccssccsscccccs"
   id="path956"
   style="font-style:normal;font-variant:normal;font-weight:normal;font-stretch:normal;font-size:74.6667px;line-height:1.25;font-family:Roboto;-inkscape-font-specification:Roboto;letter-spacing:0px;word-spacing:0px;white-space:pre;fill:#ff8b00;fill-opacity:1;stroke:none;stroke-width:1.43954"
   d="m 684.15167,143.68691 c -7.69753,0 -13.96052,-2.51919 -18.78898,-7.55758 -4.82845,-5.07337 -7.24267,-11.8437 -7.24267,-20.31099 v -1.78442 c 0,-5.63319 1.06716,-10.65408 3.20147,-15.062671 2.16931,-4.443575 5.17834,-7.907465 9.02711,-10.391668 3.88375,-2.519191 8.08241,-3.778787 12.59596,-3.778787 7.38263,0 13.12079,2.43172 17.21448,7.29516 4.09369,4.863441 6.14053,11.826206 6.14053,20.888296 v 4.04121 h -38.47016 c 0.13995,5.59821 1.76693,10.12925 4.88093,13.59314 3.14899,3.4289 7.13771,5.14335 11.96617,5.14335 3.4289,0 6.33297,-0.69978 8.7122,-2.09933 2.37923,-1.39955 4.46107,-3.25395 6.2455,-5.56321 l 5.93059,4.61851 c -4.75847,7.31266 -11.89618,10.96899 -21.41313,10.96899 z m -1.20711,-50.908676 c -3.91874,0 -7.20769,1.43454 -9.86684,4.30362 -2.65914,2.834091 -4.30361,6.822816 -4.93341,11.966166 h 28.44587 v -0.73477 c -0.27991,-4.93341 -1.60948,-8.747189 -3.98871,-11.441328 -2.37924,-2.729125 -5.59821,-4.093688 -9.65691,-4.093688 z" /></svg>
