<?xml version="1.0" encoding="UTF-8" standalone="no"?>
<svg
   xmlns:dc="http://purl.org/dc/elements/1.1/"
   xmlns:cc="http://creativecommons.org/ns#"
   xmlns:rdf="http://www.w3.org/1999/02/22-rdf-syntax-ns#"
   xmlns:svg="http://www.w3.org/2000/svg"
   xmlns="http://www.w3.org/2000/svg"
   xmlns:sodipodi="http://sodipodi.sourceforge.net/DTD/sodipodi-0.dtd"
   xmlns:inkscape="http://www.inkscape.org/namespaces/inkscape"
   inkscape:version="1.0 (4035a4fb49, 2020-05-01)"
   sodipodi:docname="logo-FR-mobile.svg"
   xml:space="preserve"
   style="enable-background:new 0 0 1784.25 306.59;"
   viewBox="0 0 1784.25 306.59"
   y="0px"
   x="0px"
   id="Calque_1"
   version="1.1"><metadata
   id="metadata131"><rdf:RDF><cc:Work
       rdf:about=""><dc:format>image/svg+xml</dc:format><dc:type
         rdf:resource="http://purl.org/dc/dcmitype/StillImage" /></cc:Work></rdf:RDF></metadata><defs
   id="defs129" /><sodipodi:namedview
   inkscape:current-layer="Calque_1"
   inkscape:cy="153.295"
   inkscape:cx="892.125"
   inkscape:zoom="0.71570688"
   showgrid="false"
   id="namedview127"
   inkscape:window-height="480"
   inkscape:window-width="640"
   inkscape:pageshadow="2"
   inkscape:pageopacity="0"
   guidetolerance="10"
   gridtolerance="10"
   objecttolerance="10"
   borderopacity="1"
   bordercolor="#666666"
   pagecolor="#ffffff" />
<style
   id="style2"
   type="text/css">
	.st0{fill:#F12A2A;}
	.st1{fill:#FFFFFF;}
	.st2{fill:#009A00;}
	.st3{fill:#10702F;}
	.st4{fill:#1261AC;}
</style>




<g
   style="font-style:normal;font-weight:normal;font-size:74.6667px;line-height:1.25;font-family:sans-serif;letter-spacing:0px;word-spacing:0px;white-space:pre;shape-inside:url(#rect926);fill:#ff8b00;fill-opacity:1;stroke:none"
   id="text924"
   transform="matrix(3.736147,0,0,3.736147,-54.91085,-81.150666)"
   aria-label="Cartomobil'ité"><path
     id="path930"
     style="font-style:normal;font-variant:normal;font-weight:normal;font-stretch:normal;font-size:74.6667px;font-family:Roboto;-inkscape-font-specification:Roboto;fill:#ff8b00;fill-opacity:1"
     d="m 65.97398,73.542325 q -0.984376,8.421879 -6.234378,13.015631 -5.213544,4.557294 -13.890632,4.557294 -9.406254,0 -15.093757,-6.744795 -5.651044,-6.744795 -5.651044,-18.046884 v -5.104169 q 0,-7.401045 2.625001,-13.015631 2.66146,-5.614586 7.51042,-8.604171 4.848961,-3.026043 11.229172,-3.026043 8.458338,0 13.562507,4.739586 5.104169,4.703127 5.942711,13.052089 h -7.036462 q -0.911459,-6.343753 -3.97396,-9.187504 -3.026043,-2.843752 -8.494796,-2.843752 -6.708336,0 -10.536463,4.958336 -3.791669,4.958336 -3.791669,14.109382 v 5.140627 q 0,8.640629 3.609377,13.744798 3.609377,5.10417 10.098963,5.10417 5.833336,0 8.932296,-2.625002 3.135418,-2.661459 4.156252,-9.223962 z" /><path
     id="path932"
     style="font-style:normal;font-variant:normal;font-weight:normal;font-stretch:normal;font-size:74.6667px;font-family:Roboto;-inkscape-font-specification:Roboto;fill:#ff8b00;fill-opacity:1"
     d="m 98.822952,90.386083 q -0.583333,-1.166668 -0.947917,-4.156252 -4.703127,4.885419 -11.229172,4.885419 -5.833336,0 -9.588546,-3.281252 -3.718752,-3.31771 -3.718752,-8.385421 0,-6.161461 4.666669,-9.552087 4.703127,-3.427085 13.197923,-3.427085 h 6.562503 v -3.09896 q 0,-3.53646 -2.114584,-5.614586 -2.114585,-2.114585 -6.234378,-2.114585 -3.609377,0 -6.052086,1.822918 -2.44271,1.822917 -2.44271,4.41146 h -6.781253 q 0,-2.953126 2.078126,-5.687502 2.114584,-2.770835 5.687503,-4.375002 3.609376,-1.604168 7.911462,-1.604168 6.817711,0 10.6823,3.427085 3.86458,3.390627 4.01042,9.369796 V 81.16212 q 0,5.432294 1.38541,8.640629 v 0.583334 z M 87.630239,85.245455 q 3.171876,0 6.015628,-1.640626 2.843751,-1.640625 4.119793,-4.265627 v -8.093754 h -5.286461 q -12.395839,0 -12.395839,7.255212 0,3.171877 2.114584,4.958336 2.114585,1.786459 5.432295,1.786459 z" /><path
     id="path934"
     style="font-style:normal;font-variant:normal;font-weight:normal;font-stretch:normal;font-size:74.6667px;font-family:Roboto;-inkscape-font-specification:Roboto;fill:#ff8b00;fill-opacity:1"
     d="m 134.15109,56.990233 q -1.53125,-0.255208 -3.31771,-0.255208 -6.63542,0 -9.00521,5.651044 v 28.000014 h -6.7448 V 50.938147 h 6.5625 l 0.10938,4.557294 q 3.31771,-5.286461 9.40625,-5.286461 1.96875,0 2.98959,0.510417 z" /><path
     id="path936"
     style="font-style:normal;font-variant:normal;font-weight:normal;font-stretch:normal;font-size:74.6667px;font-family:Roboto;-inkscape-font-specification:Roboto;fill:#ff8b00;fill-opacity:1"
     d="m 151.32298,41.386059 v 9.552088 h 7.36459 v 5.213544 h -7.36459 v 24.463554 q 0,2.369792 0.98437,3.572918 0.98438,1.166667 3.35417,1.166667 1.16667,0 3.20834,-0.4375 v 5.468753 q -2.66146,0.729167 -5.17709,0.729167 -4.52083,0 -6.81771,-2.734377 -2.29688,-2.734376 -2.29688,-7.765628 V 56.151691 h -7.18229 v -5.213544 h 7.18229 v -9.552088 z" /><path
     id="path938"
     style="font-style:normal;font-variant:normal;font-weight:normal;font-stretch:normal;font-size:74.6667px;font-family:Roboto;-inkscape-font-specification:Roboto;fill:#ff8b00;fill-opacity:1"
     d="m 164.04694,70.297531 q 0,-5.796877 2.26042,-10.427088 2.29688,-4.63021 6.34375,-7.145837 4.08334,-2.515626 9.29688,-2.515626 8.0573,0 13.01563,5.578128 4.9948,5.578127 4.9948,14.838549 v 0.473958 q 0,5.760419 -2.22396,10.354172 -2.1875,4.557294 -6.3073,7.109378 -4.08333,2.552085 -9.40625,2.552085 -8.02084,0 -13.01563,-5.578128 -4.95834,-5.578128 -4.95834,-14.765632 z m 6.78126,0.802084 q 0,6.562503 3.02604,10.536463 3.0625,3.973961 8.16667,3.973961 5.14063,0 8.16667,-4.010419 3.02604,-4.046877 3.02604,-11.302089 0,-6.489586 -3.09896,-10.500005 -3.0625,-4.046877 -8.16667,-4.046877 -4.99479,0 -8.05729,3.973961 -3.0625,3.97396 -3.0625,11.375005 z" /><path
     id="path940"
     style="font-style:normal;font-variant:normal;font-weight:normal;font-stretch:normal;font-size:74.6667px;font-family:Roboto;-inkscape-font-specification:Roboto;fill:#ff8b00;fill-opacity:1"
     d="m 214.76051,50.938147 0.1823,4.375002 q 4.33854,-5.104169 11.70313,-5.104169 8.27604,0 11.26563,6.343753 1.96875,-2.843751 5.10417,-4.593752 3.17187,-1.750001 7.47396,-1.750001 12.97917,0 13.19792,13.744798 v 26.432305 h -6.74479 V 64.35482 q 0,-4.229168 -1.9323,-6.307294 -1.93229,-2.114585 -6.48958,-2.114585 -3.75521,0 -6.23438,2.260418 -2.47917,2.223959 -2.88021,6.015628 v 26.177096 h -6.78125 V 64.537112 q 0,-8.604171 -8.42188,-8.604171 -6.63542,0 -9.07813,5.651045 v 28.802097 h -6.7448 V 50.938147 Z" /><path
     id="path942"
     style="font-style:normal;font-variant:normal;font-weight:normal;font-stretch:normal;font-size:74.6667px;font-family:Roboto;-inkscape-font-specification:Roboto;fill:#ff8b00;fill-opacity:1"
     d="m 272.07304,70.297531 q 0,-5.796877 2.26041,-10.427088 2.29688,-4.63021 6.34376,-7.145837 4.08333,-2.515626 9.29688,-2.515626 8.05729,0 13.01563,5.578128 4.99479,5.578127 4.99479,14.838549 v 0.473958 q 0,5.760419 -2.22396,10.354172 -2.1875,4.557294 -6.30729,7.109378 -4.08334,2.552085 -9.40626,2.552085 -8.02084,0 -13.01563,-5.578128 -4.95833,-5.578128 -4.95833,-14.765632 z m 6.78125,0.802084 q 0,6.562503 3.02604,10.536463 3.0625,3.973961 8.16667,3.973961 5.14063,0 8.16667,-4.010419 3.02605,-4.046877 3.02605,-11.302089 0,-6.489586 -3.09896,-10.500005 -3.06251,-4.046877 -8.16667,-4.046877 -4.9948,0 -8.0573,3.973961 -3.0625,3.97396 -3.0625,11.375005 z" /><path
     id="path944"
     style="font-style:normal;font-variant:normal;font-weight:normal;font-stretch:normal;font-size:74.6667px;font-family:Roboto;-inkscape-font-specification:Roboto;fill:#ff8b00;fill-opacity:1"
     d="m 349.8387,71.099615 q 0,9.041671 -4.15625,14.546882 -4.15625,5.468753 -11.15625,5.468753 -7.47397,0 -11.5573,-5.286461 l -0.32813,4.557294 h -6.19792 V 34.386056 h 6.7448 v 20.890635 q 4.08333,-5.067711 11.26563,-5.067711 7.18229,0 11.26563,5.432294 4.11979,5.432295 4.11979,14.875007 z m -6.74479,-0.765625 q 0,-6.890629 -2.66146,-10.645839 -2.66146,-3.75521 -7.65626,-3.75521 -6.67187,0 -9.58854,6.19792 v 17.062508 q 3.09896,6.19792 9.66146,6.19792 4.84896,0 7.54688,-3.755211 2.69792,-3.75521 2.69792,-11.302088 z" /><path
     id="path946"
     style="font-style:normal;font-variant:normal;font-weight:normal;font-stretch:normal;font-size:74.6667px;font-family:Roboto;-inkscape-font-specification:Roboto;fill:#ff8b00;fill-opacity:1"
     d="m 365.66164,90.386083 h -6.7448 V 50.938147 h 6.7448 z M 358.36997,40.4746 q 0,-1.640625 0.98437,-2.770834 1.02084,-1.130209 2.98959,-1.130209 1.96875,0 2.98958,1.130209 1.02084,1.130209 1.02084,2.770834 0,1.640626 -1.02084,2.734377 -1.02083,1.09375 -2.98958,1.09375 -1.96875,0 -2.98959,-1.09375 -0.98437,-1.093751 -0.98437,-2.734377 z" /><path
     id="path948"
     style="font-style:normal;font-variant:normal;font-weight:normal;font-stretch:normal;font-size:74.6667px;font-family:Roboto;-inkscape-font-specification:Roboto;fill:#ff8b00;fill-opacity:1"
     d="m 383.78142,90.386083 h -6.7448 V 34.386056 h 6.7448 z" /><path
     id="path950"
     style="font-style:normal;font-variant:normal;font-weight:normal;font-stretch:normal;font-size:74.6667px;font-family:Roboto;-inkscape-font-specification:Roboto;fill:#ff8b00;fill-opacity:1"
     d="m 398.6929,38.432933 -0.76563,13.416673 h -4.70313 l 0.0365,-17.46355 h 5.4323 z" /><path
     id="path952"
     style="font-style:normal;font-variant:normal;font-weight:normal;font-stretch:normal;font-size:74.6667px;font-family:Roboto;-inkscape-font-specification:Roboto;fill:#ff8b00;fill-opacity:1"
     d="m 414.91686,90.386083 h -6.7448 V 50.938147 h 6.7448 z M 407.62519,40.4746 q 0,-1.640625 0.98437,-2.770834 1.02083,-1.130209 2.98959,-1.130209 1.96875,0 2.98958,1.130209 1.02083,1.130209 1.02083,2.770834 0,1.640626 -1.02083,2.734377 -1.02083,1.09375 -2.98958,1.09375 -1.96876,0 -2.98959,-1.09375 -0.98437,-1.093751 -0.98437,-2.734377 z" /><path
     id="path954"
     style="font-style:normal;font-variant:normal;font-weight:normal;font-stretch:normal;font-size:74.6667px;font-family:Roboto;-inkscape-font-specification:Roboto;fill:#ff8b00;fill-opacity:1"
     d="m 434.85959,41.386059 v 9.552088 h 7.36458 v 5.213544 h -7.36458 v 24.463554 q 0,2.369792 0.98437,3.572918 0.98438,1.166667 3.35417,1.166667 1.16667,0 3.20833,-0.4375 v 5.468753 q -2.66146,0.729167 -5.17708,0.729167 -4.52084,0 -6.81771,-2.734377 -2.29688,-2.734376 -2.29688,-7.765628 V 56.151691 h -7.18229 v -5.213544 h 7.18229 v -9.552088 z" /><path
     id="path956"
     style="font-style:normal;font-variant:normal;font-weight:normal;font-stretch:normal;font-size:74.6667px;font-family:Roboto;-inkscape-font-specification:Roboto;fill:#ff8b00;fill-opacity:1"
     d="m 466.46896,91.11525 q -8.02083,0 -13.05209,-5.250003 -5.03125,-5.286461 -5.03125,-14.109382 v -1.239584 q 0,-5.869794 2.22396,-10.463546 2.26042,-4.630211 6.27084,-7.218754 4.04687,-2.625001 8.75,-2.625001 7.69271,0 11.95834,5.067711 4.26563,5.067711 4.26563,14.510423 v 2.807293 h -26.72397 q 0.14583,5.833337 3.39062,9.442713 3.28125,3.572919 8.31251,3.572919 3.57292,0 6.05208,-1.458334 2.47917,-1.458334 4.33855,-3.864586 l 4.11979,3.208335 q -4.95833,7.619796 -14.87501,7.619796 z m -0.83854,-35.364601 q -4.08333,0 -6.85417,2.989585 -2.77083,2.953127 -3.42708,8.312504 h 19.76042 v -0.510417 q -0.29166,-5.140627 -2.77083,-7.94792 -2.47917,-2.843752 -6.70834,-2.843752 z m 3.28125,-21.364593 h 8.16667 l -9.77083,10.718755 h -5.4323 z" /></g></svg>
