<?xml version="1.0" encoding="UTF-8" standalone="no"?>
<svg
   xmlns:dc="http://purl.org/dc/elements/1.1/"
   xmlns:cc="http://creativecommons.org/ns#"
   xmlns:rdf="http://www.w3.org/1999/02/22-rdf-syntax-ns#"
   xmlns:svg="http://www.w3.org/2000/svg"
   xmlns="http://www.w3.org/2000/svg"
   xmlns:sodipodi="http://sodipodi.sourceforge.net/DTD/sodipodi-0.dtd"
   xmlns:inkscape="http://www.inkscape.org/namespaces/inkscape"
   version="1.1"
   id="Calque_1"
   x="0px"
   y="0px"
   viewBox="0 0 1784.25 306.59"
   style="enable-background:new 0 0 1784.25 306.59;"
   xml:space="preserve"
   sodipodi:docname="logo-FR-mobile.svg"
   inkscape:version="1.0 (4035a4fb49, 2020-05-01)"><metadata
   id="metadata131"><rdf:RDF><cc:Work
       rdf:about=""><dc:format>image/svg+xml</dc:format><dc:type
         rdf:resource="http://purl.org/dc/dcmitype/StillImage" /></cc:Work></rdf:RDF></metadata><defs
   id="defs129" /><sodipodi:namedview
   inkscape:document-rotation="0"
   pagecolor="#ffffff"
   bordercolor="#666666"
   borderopacity="1"
   objecttolerance="10"
   gridtolerance="10"
   guidetolerance="10"
   inkscape:pageopacity="0"
   inkscape:pageshadow="2"
   inkscape:window-width="640"
   inkscape:window-height="480"
   id="namedview127"
   showgrid="false"
   inkscape:zoom="0.50608119"
   inkscape:cx="946.81664"
   inkscape:cy="129.401"
   inkscape:current-layer="Calque_1" />
<style
   type="text/css"
   id="style2">
	.st0{fill:#F12A2A;}
	.st1{fill:#FFFFFF;}
	.st2{fill:#009A00;}
	.st3{fill:#10702F;}
	.st4{fill:#1261AC;}
</style>




<path
   d="m 183.48075,190.56512 q -3.45598,29.56766 -21.88774,45.69548 -18.30381,15.99983 -48.76746,15.99983 -33.023628,0 -52.99139,-23.67973 -19.839773,-23.67972 -19.839773,-63.3593 v -17.91978 q 0,-25.9837 9.215877,-45.69549 9.343914,-19.711769 26.367717,-30.207658 17.023802,-10.623865 39.423539,-10.623865 29.69567,0 47.61546,16.639805 17.91978,16.511814 20.86377,45.823498 h -24.70371 q -3.19997,-22.27174 -13.95186,-32.255642 -10.62387,-9.983887 -29.82366,-9.983887 -23.551726,0 -36.991566,17.407794 -13.311851,17.407795 -13.311851,49.535435 v 18.04779 q 0,30.33566 12.671848,48.25547 12.67187,17.91978 35.455599,17.91978 20.47975,0 31.35963,-9.2159 11.00789,-9.34389 14.59186,-32.38363 z"
   style="font-style:normal;font-variant:normal;font-weight:normal;font-stretch:normal;font-size:74.6667px;line-height:1.25;font-family:Roboto;-inkscape-font-specification:Roboto;letter-spacing:0px;word-spacing:0px;white-space:pre;fill:#ff8b00;fill-opacity:1;stroke:none;stroke-width:3.51082"
   id="path930" /><path
   d="m 298.80743,249.70045 q -2.04798,-4.09596 -3.32799,-14.59184 -16.51178,17.15182 -39.42353,17.15182 -20.47977,0 -33.6636,-11.51988 -13.05587,-11.64787 -13.05587,-29.43967 0,-21.63174 16.38382,-33.53561 16.51181,-12.03185 46.33548,-12.03185 h 23.03974 v -10.87989 q 0,-12.41585 -7.42394,-19.71177 -7.4239,-7.4239 -21.88774,-7.4239 -12.67184,0 -21.24775,6.39993 -8.57592,6.3999 -8.57592,15.48781 H 212.1524 q 0,-10.36788 7.29592,-19.96776 7.42392,-9.72792 19.96779,-15.35983 12.67184,-5.63193 27.77569,-5.63193 23.93572,0 37.50357,12.03185 13.56783,11.90387 14.07985,32.8956 v 63.74329 q 0,19.07178 4.86392,30.33565 v 2.04798 z m -39.29556,-18.04779 q 11.13587,0 21.11976,-5.75995 9.98387,-5.75993 14.46385,-14.97583 v -28.41566 h -18.55979 q -43.51952,0 -43.51952,25.47171 0,11.13588 7.42391,17.40779 7.42392,6.27194 19.07179,6.27194 z"
   style="font-style:normal;font-variant:normal;font-weight:normal;font-stretch:normal;font-size:74.6667px;line-height:1.25;font-family:Roboto;-inkscape-font-specification:Roboto;letter-spacing:0px;word-spacing:0px;white-space:pre;fill:#ff8b00;fill-opacity:1;stroke:none;stroke-width:3.51082"
   id="path932" /><path
   d="m 422.838,132.45377 q -5.37593,-0.89598 -11.64787,-0.89598 -23.29576,0 -31.61565,19.83978 v 98.30288 H 355.89475 V 111.20604 h 23.03974 l 0.38399,15.9998 q 11.64787,-18.55976 33.02361,-18.55976 6.91192,0 10.49591,1.79196 z"
   style="font-style:normal;font-variant:normal;font-weight:normal;font-stretch:normal;font-size:74.6667px;line-height:1.25;font-family:Roboto;-inkscape-font-specification:Roboto;letter-spacing:0px;word-spacing:0px;white-space:pre;fill:#ff8b00;fill-opacity:1;stroke:none;stroke-width:3.51082"
   id="path934" /><path
   d="m 483.12533,77.670414 v 33.535626 h 25.85573 v 18.30378 h -25.85573 v 85.88703 q 0,8.3199 3.45594,12.54387 3.45598,4.09594 11.77587,4.09594 4.09597,0 11.26389,-1.53598 v 19.19977 q -9.34388,2.55998 -18.17581,2.55998 -15.87179,0 -23.93572,-9.59989 -8.06391,-9.5999 -8.06391,-27.26369 v -85.88703 h -25.21571 v -18.30378 h 25.21571 V 77.670414 Z"
   style="font-style:normal;font-variant:normal;font-weight:normal;font-stretch:normal;font-size:74.6667px;line-height:1.25;font-family:Roboto;-inkscape-font-specification:Roboto;letter-spacing:0px;word-spacing:0px;white-space:pre;fill:#ff8b00;fill-opacity:1;stroke:none;stroke-width:3.51082"
   id="path936" /><path
   d="m 527.79681,179.17326 q 0,-20.35176 7.93591,-36.60759 8.06392,-16.25581 22.27175,-25.08772 14.33584,-8.83187 32.6396,-8.83187 28.28771,0 45.69549,19.58376 17.53583,19.58377 17.53583,52.09541 v 1.66398 q 0,20.22377 -7.80793,36.35158 -7.67991,15.99981 -22.14375,24.95971 -14.33582,8.95991 -33.02361,8.95991 -28.15971,0 -45.69547,-19.5838 -17.40782,-19.58376 -17.40782,-51.8394 z m 23.80774,2.81597 q 0,23.03974 10.62388,36.99156 10.75186,13.95186 28.67167,13.95186 18.04781,0 28.67166,-14.07984 10.62386,-14.20783 10.62386,-39.67955 0,-22.78373 -10.87986,-36.86358 -10.75188,-14.20783 -28.67169,-14.20783 -17.53575,0 -28.28764,13.95183 -10.75188,13.95185 -10.75188,39.93555 z"
   style="font-style:normal;font-variant:normal;font-weight:normal;font-stretch:normal;font-size:74.6667px;line-height:1.25;font-family:Roboto;-inkscape-font-specification:Roboto;letter-spacing:0px;word-spacing:0px;white-space:pre;fill:#ff8b00;fill-opacity:1;stroke:none;stroke-width:3.51082"
   id="path938" /><path
   d="m 705.84279,111.20604 0.64002,15.35982 q 15.23181,-17.91978 41.08751,-17.91978 29.05565,0 39.55156,22.27173 6.91192,-9.98388 17.91981,-16.12781 11.13584,-6.14392 26.23968,-6.14392 45.5675,0 46.33548,48.25543 v 92.79894 h -23.67972 v -91.39096 q 0,-14.84781 -6.78394,-22.14372 -6.78393,-7.42394 -22.78374,-7.42394 -13.18383,0 -21.88774,7.93592 -8.70391,7.8079 -10.11188,21.11974 v 91.90296 h -23.80774 v -90.75096 q 0,-30.20766 -29.56765,-30.20766 -23.29574,0 -31.87165,19.83976 V 249.70045 H 683.44306 V 111.20604 Z"
   style="font-style:normal;font-variant:normal;font-weight:normal;font-stretch:normal;font-size:74.6667px;line-height:1.25;font-family:Roboto;-inkscape-font-specification:Roboto;letter-spacing:0px;word-spacing:0px;white-space:pre;fill:#ff8b00;fill-opacity:1;stroke:none;stroke-width:3.51082"
   id="path940" /><path
   d="m 907.05649,179.17326 q 0,-20.35176 7.9359,-36.60759 8.06392,-16.25581 22.27177,-25.08772 14.33582,-8.83187 32.63963,-8.83187 28.28766,0 45.69551,19.58376 17.5357,19.58377 17.5357,52.09541 v 1.66398 q 0,20.22377 -7.8079,36.35158 -7.6799,15.99981 -22.1437,24.95971 -14.33584,8.95991 -33.02364,8.95991 -28.1597,0 -45.69546,-19.5838 -17.40781,-19.58376 -17.40781,-51.8394 z m 23.80773,2.81597 q 0,23.03974 10.62388,36.99156 10.75186,13.95186 28.67166,13.95186 18.04779,0 28.67167,-14.07984 10.62387,-14.20783 10.62387,-39.67955 0,-22.78373 -10.87983,-36.86358 -10.75192,-14.20783 -28.67168,-14.20783 -17.53584,0 -28.28769,13.95183 -10.75188,13.95185 -10.75188,39.93555 z"
   style="font-style:normal;font-variant:normal;font-weight:normal;font-stretch:normal;font-size:74.6667px;line-height:1.25;font-family:Roboto;-inkscape-font-specification:Roboto;letter-spacing:0px;word-spacing:0px;white-space:pre;fill:#ff8b00;fill-opacity:1;stroke:none;stroke-width:3.51082"
   id="path942" /><path
   d="m 1180.0774,181.98923 q 0,31.74362 -14.5918,51.07141 -14.5919,19.19979 -39.1676,19.19979 -26.2397,0 -40.5755,-18.55979 l -1.152,15.99981 h -21.7598 V 53.094699 h 23.6798 v 73.343171 q 14.3358,-17.79179 39.5515,-17.79179 25.2157,0 39.5516,19.07178 14.4638,19.07177 14.4638,52.22339 z m -23.6797,-2.68797 q 0,-24.19174 -9.3439,-37.37557 -9.3439,-13.18386 -26.8797,-13.18386 -23.4237,0 -33.6636,21.75975 v 59.90332 q 10.8799,21.75975 33.9196,21.75975 17.0238,0 26.4957,-13.18386 9.4719,-13.18383 9.4719,-39.67953 z"
   style="font-style:normal;font-variant:normal;font-weight:normal;font-stretch:normal;font-size:74.6667px;line-height:1.25;font-family:Roboto;-inkscape-font-specification:Roboto;letter-spacing:0px;word-spacing:0px;white-space:pre;fill:#ff8b00;fill-opacity:1;stroke:none;stroke-width:3.51082"
   id="path944" /><path
   d="m 1235.6288,249.70045 h -23.6797 V 111.20604 h 23.6797 z M 1210.0291,74.470455 q 0,-5.759923 3.4559,-9.727886 3.584,-3.967962 10.4959,-3.967962 6.9119,0 10.4959,3.967962 3.584,3.967963 3.584,9.727886 0,5.759923 -3.584,9.599892 -3.584,3.839954 -10.4959,3.839954 -6.9119,0 -10.4959,-3.839954 -3.4559,-3.839969 -3.4559,-9.599892 z"
   style="font-style:normal;font-variant:normal;font-weight:normal;font-stretch:normal;font-size:74.6667px;line-height:1.25;font-family:Roboto;-inkscape-font-specification:Roboto;letter-spacing:0px;word-spacing:0px;white-space:pre;fill:#ff8b00;fill-opacity:1;stroke:none;stroke-width:3.51082"
   id="path946" /><path
   d="m 1299.244,249.70045 h -23.6797 V 53.094699 h 23.6797 z"
   style="font-style:normal;font-variant:normal;font-weight:normal;font-stretch:normal;font-size:74.6667px;line-height:1.25;font-family:Roboto;-inkscape-font-specification:Roboto;letter-spacing:0px;word-spacing:0px;white-space:pre;fill:#ff8b00;fill-opacity:1;stroke:none;stroke-width:3.51082"
   id="path948" /><path
   d="m 1351.5955,67.302533 -2.688,47.103467 h -16.5118 l 0.128,-61.311301 h 19.0718 z"
   style="font-style:normal;font-variant:normal;font-weight:normal;font-stretch:normal;font-size:74.6667px;line-height:1.25;font-family:Roboto;-inkscape-font-specification:Roboto;letter-spacing:0px;word-spacing:0px;white-space:pre;fill:#ff8b00;fill-opacity:1;stroke:none;stroke-width:3.51082"
   id="path950" /><path
   d="m 1506.1088,249.70045 h -23.6797 V 111.20604 h 23.6797 z M 1480.509,74.470455 q 0,-5.759923 3.4561,-9.727886 3.5838,-3.967962 10.4958,-3.967962 6.9119,0 10.4958,3.967962 3.5839,3.967963 3.5839,9.727886 0,5.759923 -3.5839,9.599892 -3.5839,3.839954 -10.4958,3.839954 -6.912,0 -10.4958,-3.839954 -3.4561,-3.839969 -3.4561,-9.599892 z"
   style="font-style:normal;font-variant:normal;font-weight:normal;font-stretch:normal;font-size:74.6667px;line-height:1.25;font-family:Roboto;-inkscape-font-specification:Roboto;letter-spacing:0px;word-spacing:0px;white-space:pre;fill:#ff8b00;fill-opacity:1;stroke:none;stroke-width:3.51082"
   id="path952" /><path
   d="m 1576.1241,77.670414 v 33.535626 h 25.8557 v 18.30378 h -25.8557 v 85.88703 q 0,8.3199 3.4558,12.54387 3.4561,4.09594 11.776,4.09594 4.0957,0 11.2638,-1.53598 v 19.19977 q -9.3439,2.55998 -18.1757,2.55998 -15.8719,0 -23.9359,-9.59989 -8.0638,-9.5999 -8.0638,-27.26369 v -85.88703 h -25.2158 v -18.30378 h 25.2158 V 77.670414 Z"
   style="font-style:normal;font-variant:normal;font-weight:normal;font-stretch:normal;font-size:74.6667px;line-height:1.25;font-family:Roboto;-inkscape-font-specification:Roboto;letter-spacing:0px;word-spacing:0px;white-space:pre;fill:#ff8b00;fill-opacity:1;stroke:none;stroke-width:3.51082"
   id="path954" /><path
   d="m 1687.0988,252.26043 c -18.7733,0 -34.0478,-6.14393 -45.8235,-18.4318 -11.7761,-12.37318 -17.664,-28.88499 -17.664,-49.53544 v -4.35194 c 0,-13.73851 2.6028,-25.9837 7.8081,-36.73559 5.2905,-10.83719 12.629,-19.2851 22.0158,-25.34371 9.4716,-6.14392 19.7117,-9.21587 30.7195,-9.21587 18.0051,0 31.9996,5.93059 41.9835,17.79179 9.9838,11.86119 14.976,28.84232 14.976,50.9434 v 9.8559 h -93.8231 c 0.3412,13.65319 4.3092,24.70372 11.9038,33.15162 7.6799,8.36257 17.4078,12.54386 29.1838,12.54386 8.3626,0 15.4452,-1.70666 21.2477,-5.11996 5.8026,-3.41328 10.88,-7.93589 15.2319,-13.56782 l 14.4638,11.26384 c -11.6052,17.83448 -29.013,26.75172 -52.2233,26.75172 z m -2.9441,-124.15858 c -9.5573,0 -17.5783,3.49863 -24.0637,10.49589 -6.4852,6.9119 -10.4959,16.6398 -12.0318,29.18365 h 69.3751 v -1.79199 c -0.6825,-12.03185 -3.9252,-21.33308 -9.7277,-27.90368 -5.8028,-6.65592 -13.6534,-9.98387 -23.5519,-9.98387 z"
   style="font-style:normal;font-variant:normal;font-weight:normal;font-stretch:normal;font-size:74.6667px;line-height:1.25;font-family:Roboto;-inkscape-font-specification:Roboto;letter-spacing:0px;word-spacing:0px;white-space:pre;fill:#ff8b00;fill-opacity:1;stroke:none;stroke-width:3.51082"
   id="path956"
   sodipodi:nodetypes="scssccssscccssccsscccccs" /></svg>
